STARTFONT 2.1
COMMENT
COMMENT Converted from OpenType font "IBMPlexSansArabic-Medium.ttf" by "otf2bdf 3.0".
COMMENT
FONT -FreeType-IBM Plex Sans Arabic Medium-Medium-R-Normal--25-180-100-100-P-143-ISO10646-1
SIZE 18 100 100
FONTBOUNDINGBOX 200 44 -6 -16
STARTPROPERTIES 19
FOUNDRY "FreeType"
FAMILY_NAME "IBM Plex Sans Arabic Medium"
WEIGHT_NAME "Medium"
SLANT "R"
SETWIDTH_NAME "Normal"
ADD_STYLE_NAME ""
PIXEL_SIZE 25
POINT_SIZE 180
RESOLUTION_X 100
RESOLUTION_Y 100
SPACING "P"
AVERAGE_WIDTH 143
CHARSET_REGISTRY "ISO10646"
CHARSET_ENCODING "1"
FONT_ASCENT 27
FONT_DESCENT 10
COPYRIGHT "Copyright 2019 IBM Corp. All rights reserved."
_OTF_FONTFILE "IBMPlexSansArabic-Medium.ttf"
_OTF_PSNAME "IBMPlexSansArabic-Medium"
ENDPROPERTIES
CHARS 1032
STARTCHAR 0000
ENCODING 0
SWIDTH 0 0
DWIDTH 0 0
BBX 0 0 0 0
BITMAP
ENDCHAR
STARTCHAR 000D
ENCODING 13
SWIDTH 240 0
DWIDTH 6 0
BBX 0 0 0 0
BITMAP
ENDCHAR
STARTCHAR 0020
ENCODING 32
SWIDTH 240 0
DWIDTH 6 0
BBX 0 0 0 0
BITMAP
ENDCHAR
STARTCHAR 0021
ENCODING 33
SWIDTH 280 0
DWIDTH 7 0
BBX 4 17 2 0
BITMAP
E0
E0
E0
E0
E0
E0
60
60
60
60
40
00
00
E0
F0
F0
E0
ENDCHAR
STARTCHAR 0022
ENCODING 34
SWIDTH 440 0
DWIDTH 11 0
BBX 7 8 2 11
BITMAP
C6
C6
C6
C6
C6
C6
C6
C6
ENDCHAR
STARTCHAR 0023
ENCODING 35
SWIDTH 680 0
DWIDTH 17 0
BBX 15 17 1 0
BITMAP
0618
0618
0610
0430
0C30
7FFE
7FFE
0C30
0C60
1860
FFFC
FFFC
1860
1840
30C0
30C0
30C0
ENDCHAR
STARTCHAR 0024
ENCODING 36
SWIDTH 600 0
DWIDTH 15 0
BBX 13 21 1 -2
BITMAP
0300
0300
0300
1FC0
3FF0
7378
6320
6300
7300
3F00
1FE0
03F0
0338
0338
6338
F370
7FE0
1FC0
0300
0300
0300
ENDCHAR
STARTCHAR 0025
ENCODING 37
SWIDTH 960 0
DWIDTH 24 0
BBX 21 17 1 0
BITMAP
3E01C0
7F0180
638300
638700
E38E00
638C00
639C00
7F3800
3E31E0
0063F0
00E738
01C618
018618
038618
070738
0603F0
0C01E0
ENDCHAR
STARTCHAR 0026
ENCODING 38
SWIDTH 720 0
DWIDTH 18 0
BBX 15 17 2 0
BITMAP
1F00
3FC0
71C0
70E0
70C0
71C0
3B80
1F00
3E1E
771E
E398
C1F8
C0F0
E070
E0F8
7FDC
3F1E
ENDCHAR
STARTCHAR 0027
ENCODING 39
SWIDTH 240 0
DWIDTH 6 0
BBX 2 8 2 11
BITMAP
C0
C0
C0
C0
C0
C0
C0
C0
ENDCHAR
STARTCHAR 0028
ENCODING 40
SWIDTH 320 0
DWIDTH 8 0
BBX 7 22 2 -3
BITMAP
1E
18
30
70
60
E0
E0
C0
C0
C0
C0
C0
C0
C0
C0
E0
E0
60
70
30
18
1E
ENDCHAR
STARTCHAR 0029
ENCODING 41
SWIDTH 320 0
DWIDTH 8 0
BBX 7 22 0 -3
BITMAP
E0
70
38
18
1C
1C
0C
0C
0E
0E
0E
0E
0E
0E
0C
0C
1C
1C
18
38
70
E0
ENDCHAR
STARTCHAR 002A
ENCODING 42
SWIDTH 520 0
DWIDTH 13 0
BBX 11 11 1 8
BITMAP
0E00
0E00
0E00
ECE0
FFE0
3F80
1E00
1B00
3380
71C0
2100
ENDCHAR
STARTCHAR 002B
ENCODING 43
SWIDTH 600 0
DWIDTH 15 0
BBX 11 12 2 2
BITMAP
0E00
0E00
0E00
0E00
0E00
FFE0
FFE0
0E00
0E00
0E00
0E00
0E00
ENDCHAR
STARTCHAR 002C
ENCODING 44
SWIDTH 280 0
DWIDTH 7 0
BBX 4 7 1 -3
BITMAP
70
70
70
70
30
60
E0
ENDCHAR
STARTCHAR 002D
ENCODING 45
SWIDTH 400 0
DWIDTH 10 0
BBX 6 3 2 6
BITMAP
FC
FC
FC
ENDCHAR
STARTCHAR 002E
ENCODING 46
SWIDTH 280 0
DWIDTH 7 0
BBX 3 4 2 0
BITMAP
E0
E0
E0
E0
ENDCHAR
STARTCHAR 002F
ENCODING 47
SWIDTH 400 0
DWIDTH 10 0
BBX 9 23 0 -4
BITMAP
0180
0180
0380
0300
0300
0700
0700
0600
0600
0E00
0C00
0C00
1C00
1800
1800
3800
3000
3000
3000
7000
6000
6000
E000
ENDCHAR
STARTCHAR 0030
ENCODING 48
SWIDTH 600 0
DWIDTH 15 0
BBX 13 17 1 0
BITMAP
0F80
3FE0
78E0
7070
6030
E038
E038
E038
E038
E038
E038
E038
6030
7070
78E0
3FE0
0F80
ENDCHAR
STARTCHAR 0031
ENCODING 49
SWIDTH 600 0
DWIDTH 15 0
BBX 13 17 1 0
BITMAP
0F80
1F80
3F80
7B80
7380
E380
4380
0380
0380
0380
0380
0380
0380
0380
0380
7FF8
7FF8
ENDCHAR
STARTCHAR 0032
ENCODING 50
SWIDTH 600 0
DWIDTH 15 0
BBX 13 17 1 0
BITMAP
1F80
3FE0
70E0
6070
A070
0070
0070
00E0
00E0
01C0
0780
0E00
1C00
3800
7000
7FF8
7FF8
ENDCHAR
STARTCHAR 0033
ENCODING 51
SWIDTH 600 0
DWIDTH 15 0
BBX 12 17 1 0
BITMAP
1F80
7FE0
F0E0
2070
0070
0060
00E0
0F80
0FC0
00E0
0070
0070
0070
6070
F0E0
7FC0
1F80
ENDCHAR
STARTCHAR 0034
ENCODING 52
SWIDTH 600 0
DWIDTH 15 0
BBX 13 17 1 0
BITMAP
01E0
03E0
07E0
06E0
0EE0
0CE0
1CE0
38E0
30E0
70E0
60E0
E0E0
FFF8
FFF8
00E0
00E0
00E0
ENDCHAR
STARTCHAR 0035
ENCODING 53
SWIDTH 600 0
DWIDTH 15 0
BBX 12 17 2 0
BITMAP
7FE0
7FE0
6000
6000
E000
E000
EF80
FFC0
F1E0
00E0
0070
0070
0060
C0E0
E1E0
7FC0
1F00
ENDCHAR
STARTCHAR 0036
ENCODING 54
SWIDTH 600 0
DWIDTH 15 0
BBX 13 17 1 0
BITMAP
03C0
0700
0E00
1C00
3800
3000
77C0
7FE0
78F0
F070
E038
E038
6038
7070
78F0
3FE0
0F80
ENDCHAR
STARTCHAR 0037
ENCODING 55
SWIDTH 600 0
DWIDTH 15 0
BBX 11 17 2 0
BITMAP
FFE0
FFE0
C0E0
C0E0
C0C0
C1C0
01C0
0380
0380
0700
0700
0700
0E00
0E00
1C00
1C00
3800
ENDCHAR
STARTCHAR 0038
ENCODING 56
SWIDTH 600 0
DWIDTH 15 0
BBX 13 17 1 0
BITMAP
1F80
3FE0
7070
7070
7070
7070
3060
1FC0
3FE0
7070
6030
E038
E038
E038
7070
3FE0
0F80
ENDCHAR
STARTCHAR 0039
ENCODING 57
SWIDTH 600 0
DWIDTH 15 0
BBX 13 17 1 0
BITMAP
0F80
3FE0
70F0
7070
E030
E038
E038
7078
70F0
3FF0
1F70
0060
00E0
01C0
0380
0700
1E00
ENDCHAR
STARTCHAR 003A
ENCODING 58
SWIDTH 320 0
DWIDTH 8 0
BBX 4 14 2 0
BITMAP
60
F0
F0
60
00
00
00
00
00
00
60
F0
F0
60
ENDCHAR
STARTCHAR 003B
ENCODING 59
SWIDTH 320 0
DWIDTH 8 0
BBX 5 17 1 -3
BITMAP
30
78
78
30
00
00
00
00
00
00
30
78
78
78
30
30
E0
ENDCHAR
STARTCHAR 003C
ENCODING 60
SWIDTH 600 0
DWIDTH 15 0
BBX 11 15 2 0
BITMAP
0020
00E0
01E0
07C0
1F00
3C00
F800
E000
F800
3C00
1F00
07C0
01E0
00E0
0020
ENDCHAR
STARTCHAR 003D
ENCODING 61
SWIDTH 600 0
DWIDTH 15 0
BBX 11 7 2 4
BITMAP
FFE0
FFE0
0000
0000
0000
FFE0
FFE0
ENDCHAR
STARTCHAR 003E
ENCODING 62
SWIDTH 600 0
DWIDTH 15 0
BBX 11 15 2 0
BITMAP
8000
E000
F000
7C00
1F00
0780
03E0
00E0
03E0
0780
1F00
7C00
F000
E000
8000
ENDCHAR
STARTCHAR 003F
ENCODING 63
SWIDTH 480 0
DWIDTH 12 0
BBX 11 17 0 0
BITMAP
1F80
3FC0
70E0
E0E0
20E0
00E0
01E0
0FC0
0F80
0E00
0E00
0000
0000
0E00
0E00
0E00
0E00
ENDCHAR
STARTCHAR 0040
ENCODING 64
SWIDTH 880 0
DWIDTH 22 0
BBX 19 20 2 -3
BITMAP
03F800
0FFE00
1C0700
380380
6000C0
E3DCC0
C7FC60
C71C60
CE1C60
CE1C60
CE1C60
CE1C60
C71CC0
C7EFC0
E1C700
600000
300000
3C0000
0FFE00
03FE00
ENDCHAR
STARTCHAR 0041
ENCODING 65
SWIDTH 680 0
DWIDTH 17 0
BBX 15 17 1 0
BITMAP
0780
07C0
07C0
0EC0
0EE0
0CE0
1C60
1870
1870
3830
3FF8
7FF8
7018
701C
E01C
E00C
E00E
ENDCHAR
STARTCHAR 0042
ENCODING 66
SWIDTH 640 0
DWIDTH 16 0
BBX 13 17 2 0
BITMAP
FFC0
FFF0
E070
E070
E038
E070
E070
FFC0
FFE0
E070
E038
E038
E038
E038
E078
FFF0
FFE0
ENDCHAR
STARTCHAR 0043
ENCODING 67
SWIDTH 640 0
DWIDTH 16 0
BBX 14 17 1 0
BITMAP
07E0
1FF8
3C38
701C
7010
7000
E000
E000
E000
E000
E000
7000
7010
701C
3C38
1FF8
07E0
ENDCHAR
STARTCHAR 0044
ENCODING 68
SWIDTH 680 0
DWIDTH 17 0
BBX 14 17 2 0
BITMAP
FF80
FFE0
E0F0
E038
E038
E018
E01C
E01C
E01C
E01C
E01C
E038
E038
E038
E0F0
FFE0
FF80
ENDCHAR
STARTCHAR 0045
ENCODING 69
SWIDTH 600 0
DWIDTH 15 0
BBX 11 17 2 0
BITMAP
FFE0
FFE0
E000
E000
E000
E000
E000
FFE0
FFE0
E000
E000
E000
E000
E000
E000
FFE0
FFE0
ENDCHAR
STARTCHAR 0046
ENCODING 70
SWIDTH 560 0
DWIDTH 14 0
BBX 11 17 2 0
BITMAP
FFE0
FFE0
E000
E000
E000
E000
E000
FFC0
FFC0
E000
E000
E000
E000
E000
E000
E000
E000
ENDCHAR
STARTCHAR 0047
ENCODING 71
SWIDTH 720 0
DWIDTH 18 0
BBX 15 17 1 0
BITMAP
07E0
1FF8
3C3C
381C
700A
7000
E000
E000
E07E
E07E
600E
700E
700E
781E
3C3E
1FFE
07CE
ENDCHAR
STARTCHAR 0048
ENCODING 72
SWIDTH 720 0
DWIDTH 18 0
BBX 14 17 2 0
BITMAP
E01C
E01C
E01C
E01C
E01C
E01C
E01C
FFFC
FFFC
E01C
E01C
E01C
E01C
E01C
E01C
E01C
E01C
ENDCHAR
STARTCHAR 0049
ENCODING 73
SWIDTH 400 0
DWIDTH 10 0
BBX 8 17 1 0
BITMAP
FF
FF
1C
1C
1C
1C
1C
1C
1C
1C
1C
1C
1C
1C
1C
FF
FF
ENDCHAR
STARTCHAR 004A
ENCODING 74
SWIDTH 520 0
DWIDTH 13 0
BBX 10 17 1 0
BITMAP
3FC0
3FC0
01C0
01C0
01C0
01C0
01C0
01C0
01C0
01C0
01C0
01C0
01C0
E1C0
E3C0
7F80
3F00
ENDCHAR
STARTCHAR 004B
ENCODING 75
SWIDTH 680 0
DWIDTH 17 0
BBX 14 17 2 0
BITMAP
E03C
E070
E0E0
E1E0
E3C0
E380
E700
EF00
FF00
FB80
F3C0
E1C0
E0E0
E0F0
E070
E038
E03C
ENDCHAR
STARTCHAR 004C
ENCODING 76
SWIDTH 520 0
DWIDTH 13 0
BBX 10 17 2 0
BITMAP
E000
E000
E000
E000
E000
E000
E000
E000
E000
E000
E000
E000
E000
E000
E000
FFC0
FFC0
ENDCHAR
STARTCHAR 004D
ENCODING 77
SWIDTH 800 0
DWIDTH 20 0
BBX 16 17 2 0
BITMAP
F007
F00F
F80F
FC1F
FC3F
EE3F
EE77
E767
E7E7
E3C7
E1C7
E187
E107
E007
E007
E007
E007
ENDCHAR
STARTCHAR 004E
ENCODING 78
SWIDTH 720 0
DWIDTH 18 0
BBX 14 17 2 0
BITMAP
F01C
F01C
F81C
F81C
FC1C
EE1C
EE1C
E71C
E79C
E39C
E1DC
E1DC
E0FC
E0FC
E07C
E03C
E03C
ENDCHAR
STARTCHAR 004F
ENCODING 79
SWIDTH 720 0
DWIDTH 18 0
BBX 15 17 1 0
BITMAP
07E0
1FF8
3C3C
781C
700E
700E
E00E
E00E
E00E
E00E
600E
700E
700E
781C
3C3C
1FF8
07E0
ENDCHAR
STARTCHAR 0050
ENCODING 80
SWIDTH 640 0
DWIDTH 16 0
BBX 13 17 2 0
BITMAP
FFC0
FFF0
E070
E038
E038
E038
E038
E070
FFF0
FFC0
E000
E000
E000
E000
E000
E000
E000
ENDCHAR
STARTCHAR 0051
ENCODING 81
SWIDTH 720 0
DWIDTH 18 0
BBX 15 21 1 -4
BITMAP
07E0
1FF8
3C3C
781C
700E
700E
E00E
E00E
E00E
E00E
600E
700E
700E
781C
3C3C
1FF8
07E0
0180
0180
01F0
00F0
ENDCHAR
STARTCHAR 0052
ENCODING 82
SWIDTH 640 0
DWIDTH 16 0
BBX 13 17 2 0
BITMAP
FFC0
FFE0
E070
E038
E038
E038
E038
E070
FFF0
FFC0
E1C0
E1C0
E0E0
E0E0
E070
E070
E038
ENDCHAR
STARTCHAR 0053
ENCODING 83
SWIDTH 600 0
DWIDTH 15 0
BBX 13 17 1 0
BITMAP
0FC0
3FF0
7078
7020
6000
7000
7800
3F00
1FE0
01F0
0070
0038
0038
6030
F070
7FE0
1FC0
ENDCHAR
STARTCHAR 0054
ENCODING 84
SWIDTH 560 0
DWIDTH 14 0
BBX 13 17 1 0
BITMAP
FFF8
FFF8
0700
0700
0700
0700
0700
0700
0700
0700
0700
0700
0700
0700
0700
0700
0700
ENDCHAR
STARTCHAR 0055
ENCODING 85
SWIDTH 680 0
DWIDTH 17 0
BBX 13 17 2 0
BITMAP
E038
E038
E038
E038
E038
E038
E038
E038
E038
E038
E038
E038
E038
6038
7070
3FE0
1FC0
ENDCHAR
STARTCHAR 0056
ENCODING 86
SWIDTH 640 0
DWIDTH 16 0
BBX 15 17 0 0
BITMAP
F00E
700E
700C
381C
381C
3818
1C38
1C38
1C30
0C70
0E70
0E60
06E0
07E0
07C0
03C0
03C0
ENDCHAR
STARTCHAR 0057
ENCODING 87
SWIDTH 920 0
DWIDTH 23 0
BBX 22 17 1 0
BITMAP
E0701C
E07838
E0F838
E0D838
60D830
70DC30
71DC70
718C70
318C60
398E60
3B8EE0
3B06E0
1B06C0
1B07C0
1F07C0
1E03C0
0E0380
ENDCHAR
STARTCHAR 0058
ENCODING 88
SWIDTH 640 0
DWIDTH 16 0
BBX 14 17 1 0
BITMAP
E01C
7038
7878
3870
1CE0
1EE0
0FC0
0780
0780
0FC0
0FC0
1CE0
38F0
3870
7038
F038
E01C
ENDCHAR
STARTCHAR 0059
ENCODING 89
SWIDTH 600 0
DWIDTH 15 0
BBX 15 17 0 0
BITMAP
F00E
701C
381C
3838
1C38
1C70
0E70
0EE0
07C0
03C0
0380
0380
0380
0380
0380
0380
0380
ENDCHAR
STARTCHAR 005A
ENCODING 90
SWIDTH 600 0
DWIDTH 15 0
BBX 13 17 1 0
BITMAP
FFF8
FFF8
0070
00F0
00E0
01C0
0380
0780
0700
0E00
1C00
3C00
3800
7000
E000
FFF8
FFF8
ENDCHAR
STARTCHAR 005B
ENCODING 91
SWIDTH 320 0
DWIDTH 8 0
BBX 5 22 2 -3
BITMAP
F8
F8
E0
E0
E0
E0
E0
E0
E0
E0
E0
E0
E0
E0
E0
E0
E0
E0
E0
E0
F8
F8
ENDCHAR
STARTCHAR 005C
ENCODING 92
SWIDTH 400 0
DWIDTH 10 0
BBX 9 23 1 -4
BITMAP
C000
E000
6000
6000
7000
3000
3000
3800
1800
1800
1800
1C00
0C00
0C00
0E00
0600
0600
0700
0300
0300
0380
0380
0180
ENDCHAR
STARTCHAR 005D
ENCODING 93
SWIDTH 320 0
DWIDTH 8 0
BBX 5 22 1 -3
BITMAP
F8
F8
18
18
18
18
18
18
18
18
18
18
18
18
18
18
18
18
18
18
F8
F8
ENDCHAR
STARTCHAR 005E
ENCODING 94
SWIDTH 600 0
DWIDTH 15 0
BBX 13 10 1 7
BITMAP
0700
0F80
0F80
1DC0
19C0
38E0
3060
7070
6030
E038
ENDCHAR
STARTCHAR 005F
ENCODING 95
SWIDTH 560 0
DWIDTH 14 0
BBX 12 2 1 -4
BITMAP
FFF0
FFF0
ENDCHAR
STARTCHAR 0060
ENCODING 96
SWIDTH 600 0
DWIDTH 15 0
BBX 5 5 4 15
BITMAP
60
F0
70
38
10
ENDCHAR
STARTCHAR 0061
ENCODING 97
SWIDTH 560 0
DWIDTH 14 0
BBX 12 13 1 0
BITMAP
1F00
7FC0
E1C0
00E0
00E0
3FE0
7FE0
E0E0
E0E0
E0E0
E1E0
7FF0
3C70
ENDCHAR
STARTCHAR 0062
ENCODING 98
SWIDTH 600 0
DWIDTH 15 0
BBX 12 19 2 0
BITMAP
E000
E000
E000
E000
E000
E000
EF80
FFC0
F1E0
E0E0
E060
E070
E070
E070
E060
E0E0
F1E0
FFC0
EF80
ENDCHAR
STARTCHAR 0063
ENCODING 99
SWIDTH 520 0
DWIDTH 13 0
BBX 11 13 1 0
BITMAP
1F80
3FC0
70E0
6040
E000
E000
E000
E000
E000
6040
70E0
3FC0
1F80
ENDCHAR
STARTCHAR 0064
ENCODING 100
SWIDTH 600 0
DWIDTH 15 0
BBX 12 19 1 0
BITMAP
0070
0070
0070
0070
0070
0070
1F70
3FF0
70F0
7070
E070
E070
E070
E070
E070
6070
70F0
3FF0
1F70
ENDCHAR
STARTCHAR 0065
ENCODING 101
SWIDTH 560 0
DWIDTH 14 0
BBX 12 13 1 0
BITMAP
1F80
3FC0
70E0
6060
E070
FFF0
FFF0
E000
E000
6040
70E0
3FC0
1F80
ENDCHAR
STARTCHAR 0066
ENCODING 102
SWIDTH 360 0
DWIDTH 9 0
BBX 7 19 1 0
BITMAP
1E
3E
30
30
30
30
FE
FE
30
30
30
30
30
30
30
30
30
30
30
ENDCHAR
STARTCHAR 0067
ENCODING 103
SWIDTH 520 0
DWIDTH 13 0
BBX 12 20 1 -5
BITMAP
00F0
00F0
1F80
3FC0
71E0
60E0
60E0
60E0
71C0
3FC0
1F00
6000
6000
7FE0
3FF0
C070
C030
E070
FFF0
3FC0
ENDCHAR
STARTCHAR 0068
ENCODING 104
SWIDTH 600 0
DWIDTH 15 0
BBX 11 19 2 0
BITMAP
E000
E000
E000
E000
E000
E000
EF80
FFC0
F1C0
E0E0
E0E0
E0E0
E0E0
E0E0
E0E0
E0E0
E0E0
E0E0
E0E0
ENDCHAR
STARTCHAR 0069
ENCODING 105
SWIDTH 280 0
DWIDTH 7 0
BBX 3 19 2 0
BITMAP
E0
E0
E0
E0
00
00
E0
E0
E0
E0
E0
E0
E0
E0
E0
E0
E0
E0
E0
ENDCHAR
STARTCHAR 006A
ENCODING 106
SWIDTH 280 0
DWIDTH 7 0
BBX 5 24 0 -5
BITMAP
38
38
38
38
00
00
38
38
38
38
38
38
38
38
38
38
38
38
38
38
38
38
F0
F0
ENDCHAR
STARTCHAR 006B
ENCODING 107
SWIDTH 560 0
DWIDTH 14 0
BBX 11 19 2 0
BITMAP
E000
E000
E000
E000
E000
E000
E1E0
E3C0
E780
E700
EE00
FE00
FE00
F700
E780
E380
E1C0
E1C0
E0E0
ENDCHAR
STARTCHAR 006C
ENCODING 108
SWIDTH 280 0
DWIDTH 7 0
BBX 4 19 2 0
BITMAP
E0
E0
E0
E0
E0
E0
E0
E0
E0
E0
E0
E0
E0
E0
E0
E0
E0
F0
70
ENDCHAR
STARTCHAR 006D
ENCODING 109
SWIDTH 880 0
DWIDTH 22 0
BBX 18 13 2 0
BITMAP
EF8F00
FFDF80
F1E1C0
E1E1C0
E0C1C0
E0C1C0
E0C1C0
E0C1C0
E0C1C0
E0C1C0
E0C1C0
E0C1C0
E0C1C0
ENDCHAR
STARTCHAR 006E
ENCODING 110
SWIDTH 600 0
DWIDTH 15 0
BBX 11 13 2 0
BITMAP
EF80
FFC0
F1C0
E0E0
E0E0
E0E0
E0E0
E0E0
E0E0
E0E0
E0E0
E0E0
E0E0
ENDCHAR
STARTCHAR 006F
ENCODING 111
SWIDTH 560 0
DWIDTH 14 0
BBX 12 13 1 0
BITMAP
1F80
3FC0
70E0
6060
E070
E070
E070
E070
E070
6060
70E0
3FC0
1F80
ENDCHAR
STARTCHAR 0070
ENCODING 112
SWIDTH 600 0
DWIDTH 15 0
BBX 12 18 2 -5
BITMAP
EF80
FFC0
F1E0
E0E0
E060
E070
E070
E070
E060
E0E0
F1E0
FFC0
EF80
E000
E000
E000
E000
E000
ENDCHAR
STARTCHAR 0071
ENCODING 113
SWIDTH 600 0
DWIDTH 15 0
BBX 12 18 1 -5
BITMAP
1F70
3FF0
70F0
7070
E070
E070
E070
E070
E070
6070
70F0
3FF0
1F70
0070
0070
0070
0070
0070
ENDCHAR
STARTCHAR 0072
ENCODING 114
SWIDTH 400 0
DWIDTH 10 0
BBX 7 13 2 0
BITMAP
EE
FE
F0
E0
E0
E0
E0
E0
E0
E0
E0
E0
E0
ENDCHAR
STARTCHAR 0073
ENCODING 115
SWIDTH 480 0
DWIDTH 12 0
BBX 10 13 1 0
BITMAP
3F00
7F80
E1C0
E000
E000
7C00
3F80
07C0
01C0
40C0
E1C0
7F80
3F00
ENDCHAR
STARTCHAR 0074
ENCODING 116
SWIDTH 360 0
DWIDTH 9 0
BBX 7 17 1 0
BITMAP
30
30
30
30
FE
FE
30
30
30
30
30
30
30
30
30
3E
1E
ENDCHAR
STARTCHAR 0075
ENCODING 117
SWIDTH 600 0
DWIDTH 15 0
BBX 11 13 2 0
BITMAP
E0E0
E0E0
E0E0
E0E0
E0E0
E0E0
E0E0
E0E0
E0E0
E0E0
E1E0
7EE0
3CE0
ENDCHAR
STARTCHAR 0076
ENCODING 118
SWIDTH 520 0
DWIDTH 13 0
BBX 12 13 0 0
BITMAP
E030
7070
7070
3060
38E0
38E0
18C0
19C0
1DC0
0D80
0F80
0F80
0700
ENDCHAR
STARTCHAR 0077
ENCODING 119
SWIDTH 800 0
DWIDTH 20 0
BBX 18 13 1 0
BITMAP
C0C0C0
E1E1C0
E1E1C0
61E180
63F180
733380
733380
333300
373B00
3E1F00
1E1F00
1E1E00
1C0E00
ENDCHAR
STARTCHAR 0078
ENCODING 120
SWIDTH 520 0
DWIDTH 13 0
BBX 13 13 0 0
BITMAP
7078
3870
38E0
1DC0
0FC0
0F80
0700
0F80
0DC0
1DC0
38E0
3070
F078
ENDCHAR
STARTCHAR 0079
ENCODING 121
SWIDTH 520 0
DWIDTH 13 0
BBX 13 18 0 -5
BITMAP
E038
7070
7070
7060
38E0
38E0
18C0
1DC0
1DC0
0D80
0D80
0F80
0700
0700
0600
0E00
3E00
3C00
ENDCHAR
STARTCHAR 007A
ENCODING 122
SWIDTH 480 0
DWIDTH 12 0
BBX 10 13 1 0
BITMAP
FFC0
FFC0
03C0
0380
0700
0E00
1E00
1C00
3800
7000
E000
FFC0
FFC0
ENDCHAR
STARTCHAR 007B
ENCODING 123
SWIDTH 360 0
DWIDTH 9 0
BBX 7 22 0 -3
BITMAP
0E
1E
18
18
18
18
18
18
18
38
F0
E0
F0
38
18
18
18
18
18
18
1E
0E
ENDCHAR
STARTCHAR 007C
ENCODING 124
SWIDTH 360 0
DWIDTH 9 0
BBX 3 22 3 -3
BITMAP
E0
E0
E0
E0
E0
E0
E0
E0
E0
E0
E0
E0
E0
E0
E0
E0
E0
E0
E0
E0
E0
E0
ENDCHAR
STARTCHAR 007D
ENCODING 125
SWIDTH 360 0
DWIDTH 9 0
BBX 7 22 1 -3
BITMAP
F0
F8
18
18
18
18
18
18
18
1C
0E
06
0E
1C
18
18
18
18
18
18
F8
F0
ENDCHAR
STARTCHAR 007E
ENCODING 126
SWIDTH 600 0
DWIDTH 15 0
BBX 13 4 1 6
BITMAP
7C00
FF10
47F8
01E0
ENDCHAR
STARTCHAR 00A0
ENCODING 160
SWIDTH 240 0
DWIDTH 6 0
BBX 0 0 0 0
BITMAP
ENDCHAR
STARTCHAR 00A1
ENCODING 161
SWIDTH 280 0
DWIDTH 7 0
BBX 4 17 2 -4
BITMAP
E0
F0
F0
E0
00
00
40
60
60
60
60
E0
E0
E0
E0
E0
E0
ENDCHAR
STARTCHAR 00A2
ENCODING 162
SWIDTH 520 0
DWIDTH 13 0
BBX 11 19 1 -3
BITMAP
0600
0600
0600
1F80
3FC0
76E0
6640
E600
E600
E600
E600
E600
6640
76E0
3FC0
1F80
0600
0600
0600
ENDCHAR
STARTCHAR 00A3
ENCODING 163
SWIDTH 600 0
DWIDTH 15 0
BBX 13 17 1 0
BITMAP
0FC0
1FF0
3878
7820
7000
7000
7000
3800
FFC0
FFC0
1C00
1C00
1800
3800
7000
7FF0
7FF0
ENDCHAR
STARTCHAR 00A4
ENCODING 164
SWIDTH 640 0
DWIDTH 16 0
BBX 15 14 0 2
BITMAP
6006
F7CE
3FFC
1C78
3838
3818
3818
3818
3818
3838
1C78
3FFC
77CE
E006
ENDCHAR
STARTCHAR 00A5
ENCODING 165
SWIDTH 640 0
DWIDTH 16 0
BBX 14 17 1 0
BITMAP
E01C
7038
7030
3870
3860
1CE0
1DC0
0FC0
7FF8
7FF8
0700
0700
7FF8
7FF8
0700
0700
0700
ENDCHAR
STARTCHAR 00A6
ENCODING 166
SWIDTH 360 0
DWIDTH 9 0
BBX 3 22 3 -3
BITMAP
E0
E0
E0
E0
E0
E0
E0
E0
E0
00
00
00
00
E0
E0
E0
E0
E0
E0
E0
E0
E0
ENDCHAR
STARTCHAR 00A7
ENCODING 167
SWIDTH 560 0
DWIDTH 14 0
BBX 11 21 2 -4
BITMAP
1F00
7FC0
7080
E000
E000
7000
7E00
3F80
63C0
C0E0
C0E0
E0E0
F0C0
7F00
1F80
03C0
01C0
01C0
61C0
FF80
3E00
ENDCHAR
STARTCHAR 00A8
ENCODING 168
SWIDTH 600 0
DWIDTH 15 0
BBX 9 3 3 15
BITMAP
6300
F780
6300
ENDCHAR
STARTCHAR 00A9
ENCODING 169
SWIDTH 800 0
DWIDTH 20 0
BBX 17 17 1 0
BITMAP
03F000
0FFC00
3C0E00
300700
61E300
67F180
C63980
CE0180
CE0180
CE0180
C63980
67F180
61E300
300700
3C0E00
0FFC00
03F000
ENDCHAR
STARTCHAR 00AA
ENCODING 170
SWIDTH 440 0
DWIDTH 11 0
BBX 8 9 1 8
BITMAP
3C
C6
46
03
7F
C3
C7
C7
7B
ENDCHAR
STARTCHAR 00AB
ENCODING 171
SWIDTH 520 0
DWIDTH 13 0
BBX 11 11 1 1
BITMAP
0840
18E0
39C0
7380
E780
C700
E780
71C0
38E0
1860
0840
ENDCHAR
STARTCHAR 00AC
ENCODING 172
SWIDTH 600 0
DWIDTH 15 0
BBX 12 7 2 2
BITMAP
FFF0
FFF0
0070
0070
0070
0070
0070
ENDCHAR
STARTCHAR 00AD
ENCODING 173
SWIDTH 400 0
DWIDTH 10 0
BBX 6 3 2 6
BITMAP
FC
FC
FC
ENDCHAR
STARTCHAR 00AE
ENCODING 174
SWIDTH 480 0
DWIDTH 12 0
BBX 10 9 1 8
BITMAP
1E00
6180
DE80
9240
9E40
9440
D280
6180
1E00
ENDCHAR
STARTCHAR 00AF
ENCODING 175
SWIDTH 600 0
DWIDTH 15 0
BBX 7 2 4 16
BITMAP
FE
FE
ENDCHAR
STARTCHAR 00B0
ENCODING 176
SWIDTH 480 0
DWIDTH 12 0
BBX 9 9 1 8
BITMAP
1E00
3F00
6380
6180
E180
6180
6380
3F00
1E00
ENDCHAR
STARTCHAR 00B1
ENCODING 177
SWIDTH 600 0
DWIDTH 15 0
BBX 11 16 2 0
BITMAP
0E00
0E00
0E00
0E00
0E00
FFE0
FFE0
0E00
0E00
0E00
0E00
0E00
0000
0000
FFE0
FFE0
ENDCHAR
STARTCHAR 00B2
ENCODING 178
SWIDTH 360 0
DWIDTH 9 0
BBX 7 9 1 8
BITMAP
78
CC
06
0C
0C
18
60
E0
FE
ENDCHAR
STARTCHAR 00B3
ENCODING 179
SWIDTH 360 0
DWIDTH 9 0
BBX 8 9 0 8
BITMAP
7C
66
07
06
1C
06
03
66
FC
ENDCHAR
STARTCHAR 00B4
ENCODING 180
SWIDTH 600 0
DWIDTH 15 0
BBX 5 5 6 15
BITMAP
30
78
70
E0
40
ENDCHAR
STARTCHAR 00B5
ENCODING 181
SWIDTH 600 0
DWIDTH 15 0
BBX 11 18 2 -5
BITMAP
E0E0
E0E0
E0E0
E0E0
E0E0
E0E0
E0E0
E0E0
E0E0
E0E0
F1E0
FFE0
DEE0
E000
E000
E000
E000
E000
ENDCHAR
STARTCHAR 00B6
ENCODING 182
SWIDTH 680 0
DWIDTH 17 0
BBX 14 21 1 -4
BITMAP
1FFC
3FFC
7E30
FE30
FE30
FE30
FE30
7E30
7E30
1E30
0630
0630
0630
0630
0630
0630
0630
0630
0630
0630
0630
ENDCHAR
STARTCHAR 00B7
ENCODING 183
SWIDTH 360 0
DWIDTH 9 0
BBX 4 4 2 6
BITMAP
70
F0
F0
70
ENDCHAR
STARTCHAR 00B8
ENCODING 184
SWIDTH 600 0
DWIDTH 15 0
BBX 6 6 5 -6
BITMAP
20
38
5C
8C
FC
78
ENDCHAR
STARTCHAR 00B9
ENCODING 185
SWIDTH 360 0
DWIDTH 9 0
BBX 7 9 1 8
BITMAP
78
78
D8
98
18
18
18
18
FE
ENDCHAR
STARTCHAR 00BA
ENCODING 186
SWIDTH 400 0
DWIDTH 10 0
BBX 8 9 1 8
BITMAP
3C
66
C3
C3
C3
C3
C3
62
3C
ENDCHAR
STARTCHAR 00BB
ENCODING 187
SWIDTH 520 0
DWIDTH 13 0
BBX 11 11 1 1
BITMAP
4200
E300
71C0
39E0
1CE0
1C60
3CE0
39C0
7380
C300
8200
ENDCHAR
STARTCHAR 00BC
ENCODING 188
SWIDTH 840 0
DWIDTH 21 0
BBX 20 17 1 0
BITMAP
7801C0
780300
D80700
980600
180C00
181800
183800
183000
FE60C0
00C1C0
01C3C0
0186C0
0306C0
070CC0
060FF0
0C00C0
1800C0
ENDCHAR
STARTCHAR 00BD
ENCODING 189
SWIDTH 840 0
DWIDTH 21 0
BBX 19 17 1 0
BITMAP
780180
780300
D80600
980E00
180C00
181800
183000
187000
FE67C0
00CE60
018060
038060
0300C0
060180
0C0300
1C0E00
380FE0
ENDCHAR
STARTCHAR 00BE
ENCODING 190
SWIDTH 840 0
DWIDTH 21 0
BBX 20 17 0 0
BITMAP
7C01C0
660180
070300
060600
1C0E00
060C00
031800
663800
FC30E0
0061E0
00C1E0
01C360
018660
030660
0607F0
0E0060
1C0060
ENDCHAR
STARTCHAR 00BF
ENCODING 191
SWIDTH 480 0
DWIDTH 12 0
BBX 11 18 1 -5
BITMAP
0E00
0E00
0E00
0E00
0000
0000
0E00
0E00
1E00
7E00
7000
E000
E000
E180
E0E0
F1C0
7F80
1F00
ENDCHAR
STARTCHAR 00C0
ENCODING 192
SWIDTH 680 0
DWIDTH 17 0
BBX 15 24 1 0
BITMAP
0600
0E00
0700
0300
0180
0000
0000
0780
07C0
07C0
0EC0
0EE0
0CE0
1C60
1870
1870
3830
3FF8
7FF8
7018
701C
E01C
E00C
E00E
ENDCHAR
STARTCHAR 00C1
ENCODING 193
SWIDTH 680 0
DWIDTH 17 0
BBX 15 24 1 0
BITMAP
00C0
01C0
0180
0380
0300
0000
0000
0780
07C0
07C0
0EC0
0EE0
0CE0
1C60
1870
1870
3830
3FF8
7FF8
7018
701C
E01C
E00C
E00E
ENDCHAR
STARTCHAR 00C2
ENCODING 194
SWIDTH 680 0
DWIDTH 17 0
BBX 15 24 1 0
BITMAP
0780
07C0
0EE0
1C60
0830
0000
0000
0780
07C0
07C0
0EC0
0EE0
0CE0
1C60
1870
1870
3830
3FF8
7FF8
7018
701C
E01C
E00C
E00E
ENDCHAR
STARTCHAR 00C3
ENCODING 195
SWIDTH 680 0
DWIDTH 17 0
BBX 15 22 1 0
BITMAP
0E20
1FF0
11E0
0000
0000
0780
07C0
07C0
0EC0
0EE0
0CE0
1C60
1870
1870
3830
3FF8
7FF8
7018
701C
E01C
E00C
E00E
ENDCHAR
STARTCHAR 00C4
ENCODING 196
SWIDTH 680 0
DWIDTH 17 0
BBX 15 22 1 0
BITMAP
1CE0
1CE0
1CE0
0000
0000
0780
07C0
07C0
0EC0
0EE0
0CE0
1C60
1870
1870
3830
3FF8
7FF8
7018
701C
E01C
E00C
E00E
ENDCHAR
STARTCHAR 00C5
ENCODING 197
SWIDTH 680 0
DWIDTH 17 0
BBX 15 25 1 0
BITMAP
0380
07C0
0CC0
0C60
0CC0
07C0
0380
0000
0780
07C0
07C0
0EC0
0EE0
0CE0
1C60
1870
1870
3830
3FF8
7FF8
7018
701C
E01C
E00C
E00E
ENDCHAR
STARTCHAR 00C6
ENCODING 198
SWIDTH 920 0
DWIDTH 23 0
BBX 22 17 0 0
BITMAP
007FFC
00FFFC
01D800
019800
039800
039800
071800
071FF8
0E1FF8
0E1800
1FF800
1FF800
381800
381800
701800
701FFC
E01FFC
ENDCHAR
STARTCHAR 00C7
ENCODING 199
SWIDTH 640 0
DWIDTH 16 0
BBX 14 23 1 -6
BITMAP
07E0
1FF8
3C38
701C
7010
7000
E000
E000
E000
E000
E000
7000
7010
701C
3C38
1FF8
07E0
0100
03C0
00E0
0460
07C0
03C0
ENDCHAR
STARTCHAR 00C8
ENCODING 200
SWIDTH 600 0
DWIDTH 15 0
BBX 11 24 2 0
BITMAP
1800
3C00
0C00
0E00
0600
0000
0000
FFE0
FFE0
E000
E000
E000
E000
E000
FFE0
FFE0
E000
E000
E000
E000
E000
E000
FFE0
FFE0
ENDCHAR
STARTCHAR 00C9
ENCODING 201
SWIDTH 600 0
DWIDTH 15 0
BBX 11 24 2 0
BITMAP
0300
0380
0700
0600
0C00
0000
0000
FFE0
FFE0
E000
E000
E000
E000
E000
FFE0
FFE0
E000
E000
E000
E000
E000
E000
FFE0
FFE0
ENDCHAR
STARTCHAR 00CA
ENCODING 202
SWIDTH 600 0
DWIDTH 15 0
BBX 11 24 2 0
BITMAP
0E00
1F00
3B80
31C0
6080
0000
0000
FFE0
FFE0
E000
E000
E000
E000
E000
FFE0
FFE0
E000
E000
E000
E000
E000
E000
FFE0
FFE0
ENDCHAR
STARTCHAR 00CB
ENCODING 203
SWIDTH 600 0
DWIDTH 15 0
BBX 11 22 2 0
BITMAP
39C0
39C0
39C0
0000
0000
FFE0
FFE0
E000
E000
E000
E000
E000
FFE0
FFE0
E000
E000
E000
E000
E000
E000
FFE0
FFE0
ENDCHAR
STARTCHAR 00CC
ENCODING 204
SWIDTH 400 0
DWIDTH 10 0
BBX 8 24 1 0
BITMAP
30
70
38
18
0C
00
00
FF
FF
1C
1C
1C
1C
1C
1C
1C
1C
1C
1C
1C
1C
1C
FF
FF
ENDCHAR
STARTCHAR 00CD
ENCODING 205
SWIDTH 400 0
DWIDTH 10 0
BBX 8 24 1 0
BITMAP
06
0E
0C
1C
18
00
00
FF
FF
1C
1C
1C
1C
1C
1C
1C
1C
1C
1C
1C
1C
1C
FF
FF
ENDCHAR
STARTCHAR 00CE
ENCODING 206
SWIDTH 400 0
DWIDTH 10 0
BBX 9 24 1 0
BITMAP
3C00
3E00
7700
E300
4180
0000
0000
FF00
FF00
1C00
1C00
1C00
1C00
1C00
1C00
1C00
1C00
1C00
1C00
1C00
1C00
1C00
FF00
FF00
ENDCHAR
STARTCHAR 00CF
ENCODING 207
SWIDTH 400 0
DWIDTH 10 0
BBX 8 22 1 0
BITMAP
E7
E7
E7
00
00
FF
FF
1C
1C
1C
1C
1C
1C
1C
1C
1C
1C
1C
1C
1C
FF
FF
ENDCHAR
STARTCHAR 00D0
ENCODING 208
SWIDTH 680 0
DWIDTH 17 0
BBX 16 17 0 0
BITMAP
3FE0
3FF8
383C
380E
380E
3806
3807
FF07
FF07
3807
3807
3806
380E
380E
381C
3FF8
3FE0
ENDCHAR
STARTCHAR 00D1
ENCODING 209
SWIDTH 720 0
DWIDTH 18 0
BBX 14 22 2 0
BITMAP
1E20
1FE0
31C0
0000
0000
F01C
F01C
F81C
F81C
FC1C
EE1C
EE1C
E71C
E79C
E39C
E1DC
E1DC
E0FC
E0FC
E07C
E03C
E03C
ENDCHAR
STARTCHAR 00D2
ENCODING 210
SWIDTH 720 0
DWIDTH 18 0
BBX 15 24 1 0
BITMAP
0600
0700
0300
0180
0180
0000
0000
07E0
1FF8
3C3C
781C
700E
700E
E00E
E00E
E00E
E00E
600E
700E
700E
781C
3C3C
1FF8
07E0
ENDCHAR
STARTCHAR 00D3
ENCODING 211
SWIDTH 720 0
DWIDTH 18 0
BBX 15 24 1 0
BITMAP
00C0
00E0
01C0
0180
0380
0000
0000
07E0
1FF8
3C3C
781C
700E
700E
E00E
E00E
E00E
E00E
600E
700E
700E
781C
3C3C
1FF8
07E0
ENDCHAR
STARTCHAR 00D4
ENCODING 212
SWIDTH 720 0
DWIDTH 18 0
BBX 15 24 1 0
BITMAP
03C0
07C0
06E0
0C70
0830
0000
0000
07E0
1FF8
3C3C
781C
700E
700E
E00E
E00E
E00E
E00E
600E
700E
700E
781C
3C3C
1FF8
07E0
ENDCHAR
STARTCHAR 00D5
ENCODING 213
SWIDTH 720 0
DWIDTH 18 0
BBX 15 22 1 0
BITMAP
0F10
0FF0
18E0
0000
0000
07E0
1FF8
3C3C
781C
700E
700E
E00E
E00E
E00E
E00E
600E
700E
700E
781C
3C3C
1FF8
07E0
ENDCHAR
STARTCHAR 00D6
ENCODING 214
SWIDTH 720 0
DWIDTH 18 0
BBX 15 22 1 0
BITMAP
0E70
0E70
0E70
0000
0000
07E0
1FF8
3C3C
781C
700E
700E
E00E
E00E
E00E
E00E
600E
700E
700E
781C
3C3C
1FF8
07E0
ENDCHAR
STARTCHAR 00D7
ENCODING 215
SWIDTH 600 0
DWIDTH 15 0
BBX 11 11 2 2
BITMAP
4040
E0E0
71C0
3B80
1F00
0E00
1F00
3B80
71C0
E0E0
4040
ENDCHAR
STARTCHAR 00D8
ENCODING 216
SWIDTH 720 0
DWIDTH 18 0
BBX 15 19 1 -1
BITMAP
0004
07EE
1FFC
3C3C
703C
703E
706E
E0CE
E1CE
E18E
E30E
E70E
660E
7C0E
7C1C
3C3C
3FF8
67E0
2000
ENDCHAR
STARTCHAR 00D9
ENCODING 217
SWIDTH 680 0
DWIDTH 17 0
BBX 13 24 2 0
BITMAP
0C00
1E00
0600
0700
0200
0000
0000
E038
E038
E038
E038
E038
E038
E038
E038
E038
E038
E038
E038
E038
6038
7070
3FE0
1FC0
ENDCHAR
STARTCHAR 00DA
ENCODING 218
SWIDTH 680 0
DWIDTH 17 0
BBX 13 24 2 0
BITMAP
0180
03C0
0380
0700
0200
0000
0000
E038
E038
E038
E038
E038
E038
E038
E038
E038
E038
E038
E038
E038
6038
7070
3FE0
1FC0
ENDCHAR
STARTCHAR 00DB
ENCODING 219
SWIDTH 680 0
DWIDTH 17 0
BBX 13 24 2 0
BITMAP
0700
0F80
1DC0
18E0
3040
0000
0000
E038
E038
E038
E038
E038
E038
E038
E038
E038
E038
E038
E038
E038
6038
7070
3FE0
1FC0
ENDCHAR
STARTCHAR 00DC
ENCODING 220
SWIDTH 680 0
DWIDTH 17 0
BBX 13 22 2 0
BITMAP
18C0
3DE0
18C0
0000
0000
E038
E038
E038
E038
E038
E038
E038
E038
E038
E038
E038
E038
E038
6038
7070
3FE0
1FC0
ENDCHAR
STARTCHAR 00DD
ENCODING 221
SWIDTH 600 0
DWIDTH 15 0
BBX 15 24 0 0
BITMAP
00C0
00E0
01C0
0180
0300
0000
0000
F00E
701C
381C
3838
1C38
1C70
0E70
0EE0
07C0
03C0
0380
0380
0380
0380
0380
0380
0380
ENDCHAR
STARTCHAR 00DE
ENCODING 222
SWIDTH 640 0
DWIDTH 16 0
BBX 13 17 2 0
BITMAP
E000
E000
E000
FFC0
FFE0
E070
E038
E038
E038
E038
E070
FFE0
FFC0
E000
E000
E000
E000
ENDCHAR
STARTCHAR 00DF
ENCODING 223
SWIDTH 680 0
DWIDTH 17 0
BBX 15 19 1 0
BITMAP
07C0
1FF0
3C70
3838
3038
3018
F078
F1F8
31C0
3180
3180
31F0
30FC
301E
300E
300E
338E
33FC
30F8
ENDCHAR
STARTCHAR 00E0
ENCODING 224
SWIDTH 560 0
DWIDTH 14 0
BBX 12 20 1 0
BITMAP
1800
3C00
1C00
0E00
0400
0000
0000
1F00
7FC0
E1C0
00E0
00E0
3FE0
7FE0
E0E0
E0E0
E0E0
E1E0
7FF0
3C70
ENDCHAR
STARTCHAR 00E1
ENCODING 225
SWIDTH 560 0
DWIDTH 14 0
BBX 12 20 1 0
BITMAP
0300
0780
0700
0E00
0400
0000
0000
1F00
7FC0
E1C0
00E0
00E0
3FE0
7FE0
E0E0
E0E0
E0E0
E1E0
7FF0
3C70
ENDCHAR
STARTCHAR 00E2
ENCODING 226
SWIDTH 560 0
DWIDTH 14 0
BBX 12 20 1 0
BITMAP
0E00
1F00
3B80
71C0
2080
0000
0000
1F00
7FC0
E1C0
00E0
00E0
3FE0
7FE0
E0E0
E0E0
E0E0
E1E0
7FF0
3C70
ENDCHAR
STARTCHAR 00E3
ENCODING 227
SWIDTH 560 0
DWIDTH 14 0
BBX 12 18 1 0
BITMAP
3C80
7FC0
2780
0000
0000
1F00
7FC0
E1C0
00E0
00E0
3FE0
7FE0
E0E0
E0E0
E0E0
E1E0
7FF0
3C70
ENDCHAR
STARTCHAR 00E4
ENCODING 228
SWIDTH 560 0
DWIDTH 14 0
BBX 12 18 1 0
BITMAP
3180
7BC0
3180
0000
0000
1F00
7FC0
E1C0
00E0
00E0
3FE0
7FE0
E0E0
E0E0
E0E0
E1E0
7FF0
3C70
ENDCHAR
STARTCHAR 00E5
ENCODING 229
SWIDTH 560 0
DWIDTH 14 0
BBX 12 21 1 0
BITMAP
0E00
1F00
3180
3180
3180
1F00
0E00
0000
1F00
7FC0
E1C0
00E0
00E0
3FE0
7FE0
E0E0
E0E0
E0E0
E1E0
7FF0
3C70
ENDCHAR
STARTCHAR 00E6
ENCODING 230
SWIDTH 880 0
DWIDTH 22 0
BBX 20 13 1 0
BITMAP
1F1F00
7FBFC0
E1F0E0
40E0E0
00E060
3FFFF0
7FFFF0
E0E000
E0E000
E0E040
E1F0E0
7F3FC0
3E1F80
ENDCHAR
STARTCHAR 00E7
ENCODING 231
SWIDTH 520 0
DWIDTH 13 0
BBX 11 19 1 -6
BITMAP
1F80
3FC0
70E0
6040
E000
E000
E000
E000
E000
6040
70E0
3FC0
1F80
0400
0700
0180
0980
1F80
0F00
ENDCHAR
STARTCHAR 00E8
ENCODING 232
SWIDTH 560 0
DWIDTH 14 0
BBX 12 20 1 0
BITMAP
0C00
1C00
0E00
0600
0700
0000
0000
1F80
3FC0
70E0
6060
E070
FFF0
FFF0
E000
E000
6040
70E0
3FC0
1F80
ENDCHAR
STARTCHAR 00E9
ENCODING 233
SWIDTH 560 0
DWIDTH 14 0
BBX 12 20 1 0
BITMAP
0180
0380
0300
0600
0600
0000
0000
1F80
3FC0
70E0
6060
E070
FFF0
FFF0
E000
E000
6040
70E0
3FC0
1F80
ENDCHAR
STARTCHAR 00EA
ENCODING 234
SWIDTH 560 0
DWIDTH 14 0
BBX 12 20 1 0
BITMAP
0F00
0F80
1D80
38C0
3040
0000
0000
1F80
3FC0
70E0
6060
E070
FFF0
FFF0
E000
E000
6040
70E0
3FC0
1F80
ENDCHAR
STARTCHAR 00EB
ENCODING 235
SWIDTH 560 0
DWIDTH 14 0
BBX 12 18 1 0
BITMAP
39C0
39C0
39C0
0000
0000
1F80
3FC0
70E0
6060
E070
FFF0
FFF0
E000
E000
6040
70E0
3FC0
1F80
ENDCHAR
STARTCHAR 00EC
ENCODING 236
SWIDTH 280 0
DWIDTH 7 0
BBX 5 20 0 0
BITMAP
60
E0
70
30
18
00
00
38
38
38
38
38
38
38
38
38
38
38
38
38
ENDCHAR
STARTCHAR 00ED
ENCODING 237
SWIDTH 280 0
DWIDTH 7 0
BBX 5 20 2 0
BITMAP
30
78
60
E0
40
00
00
E0
E0
E0
E0
E0
E0
E0
E0
E0
E0
E0
E0
E0
ENDCHAR
STARTCHAR 00EE
ENCODING 238
SWIDTH 280 0
DWIDTH 7 0
BBX 9 20 -1 0
BITMAP
1C00
3E00
7700
E300
4180
0000
0000
1C00
1C00
1C00
1C00
1C00
1C00
1C00
1C00
1C00
1C00
1C00
1C00
1C00
ENDCHAR
STARTCHAR 00EF
ENCODING 239
SWIDTH 280 0
DWIDTH 7 0
BBX 8 18 -1 0
BITMAP
63
E7
63
00
00
1C
1C
1C
1C
1C
1C
1C
1C
1C
1C
1C
1C
1C
ENDCHAR
STARTCHAR 00F0
ENCODING 240
SWIDTH 560 0
DWIDTH 14 0
BBX 12 19 1 0
BITMAP
7C80
1FC0
0F80
0F80
1FC0
11C0
00E0
1F60
3FF0
70F0
E070
E070
E070
E070
E070
6070
70E0
3FC0
1F80
ENDCHAR
STARTCHAR 00F1
ENCODING 241
SWIDTH 600 0
DWIDTH 15 0
BBX 11 18 2 0
BITMAP
3880
7FC0
4780
0000
0000
EF80
FFC0
F1C0
E0E0
E0E0
E0E0
E0E0
E0E0
E0E0
E0E0
E0E0
E0E0
E0E0
ENDCHAR
STARTCHAR 00F2
ENCODING 242
SWIDTH 560 0
DWIDTH 14 0
BBX 12 20 1 0
BITMAP
1C00
1C00
0E00
0600
0600
0000
0000
1F80
3FC0
70E0
6060
E070
E070
E070
E070
E070
6060
70E0
3FC0
1F80
ENDCHAR
STARTCHAR 00F3
ENCODING 243
SWIDTH 560 0
DWIDTH 14 0
BBX 12 20 1 0
BITMAP
0380
0380
0700
0600
0600
0000
0000
1F80
3FC0
70E0
6060
E070
E070
E070
E070
E070
6060
70E0
3FC0
1F80
ENDCHAR
STARTCHAR 00F4
ENCODING 244
SWIDTH 560 0
DWIDTH 14 0
BBX 12 20 1 0
BITMAP
0F00
1F80
1D80
38C0
3040
0000
0000
1F80
3FC0
70E0
6060
E070
E070
E070
E070
E070
6060
70E0
3FC0
1F80
ENDCHAR
STARTCHAR 00F5
ENCODING 245
SWIDTH 560 0
DWIDTH 14 0
BBX 12 18 1 0
BITMAP
1C40
3FC0
23C0
0000
0000
1F80
3FC0
70E0
6060
E070
E070
E070
E070
E070
6060
70E0
3FC0
1F80
ENDCHAR
STARTCHAR 00F6
ENCODING 246
SWIDTH 560 0
DWIDTH 14 0
BBX 12 18 1 0
BITMAP
39C0
39C0
39C0
0000
0000
1F80
3FC0
70E0
6060
E070
E070
E070
E070
E070
6060
70E0
3FC0
1F80
ENDCHAR
STARTCHAR 00F7
ENCODING 247
SWIDTH 600 0
DWIDTH 15 0
BBX 11 12 2 2
BITMAP
0E00
0E00
0E00
0000
0000
FFE0
FFE0
0000
0000
0E00
0E00
0E00
ENDCHAR
STARTCHAR 00F8
ENCODING 248
SWIDTH 560 0
DWIDTH 14 0
BBX 13 15 1 -1
BITMAP
0010
0FB8
3FF0
70E0
60F0
E1F0
E370
E670
EC70
FC70
7870
70E0
7FC0
DF80
8000
ENDCHAR
STARTCHAR 00F9
ENCODING 249
SWIDTH 600 0
DWIDTH 15 0
BBX 11 20 2 0
BITMAP
1800
3800
1C00
0C00
0600
0000
0000
E0E0
E0E0
E0E0
E0E0
E0E0
E0E0
E0E0
E0E0
E0E0
E0E0
E1E0
7EE0
3CE0
ENDCHAR
STARTCHAR 00FA
ENCODING 250
SWIDTH 600 0
DWIDTH 15 0
BBX 11 20 2 0
BITMAP
0300
0700
0600
0E00
0C00
0000
0000
E0E0
E0E0
E0E0
E0E0
E0E0
E0E0
E0E0
E0E0
E0E0
E0E0
E1E0
7EE0
3CE0
ENDCHAR
STARTCHAR 00FB
ENCODING 251
SWIDTH 600 0
DWIDTH 15 0
BBX 11 20 2 0
BITMAP
1E00
1F00
3B80
7180
20C0
0000
0000
E0E0
E0E0
E0E0
E0E0
E0E0
E0E0
E0E0
E0E0
E0E0
E0E0
E1E0
7EE0
3CE0
ENDCHAR
STARTCHAR 00FC
ENCODING 252
SWIDTH 600 0
DWIDTH 15 0
BBX 11 18 2 0
BITMAP
7380
7380
7380
0000
0000
E0E0
E0E0
E0E0
E0E0
E0E0
E0E0
E0E0
E0E0
E0E0
E0E0
E1E0
7EE0
3CE0
ENDCHAR
STARTCHAR 00FD
ENCODING 253
SWIDTH 520 0
DWIDTH 13 0
BBX 13 25 0 -5
BITMAP
0180
03C0
0380
0700
0200
0000
0000
E038
7070
7070
7060
38E0
38E0
18C0
1DC0
1DC0
0D80
0D80
0F80
0700
0700
0600
0E00
3E00
3C00
ENDCHAR
STARTCHAR 00FE
ENCODING 254
SWIDTH 600 0
DWIDTH 15 0
BBX 12 24 2 -5
BITMAP
E000
E000
E000
E000
E000
E000
EF80
FFC0
F1E0
E0E0
E060
E070
E070
E070
E060
E0E0
F1E0
FFC0
EF80
E000
E000
E000
E000
E000
ENDCHAR
STARTCHAR 00FF
ENCODING 255
SWIDTH 520 0
DWIDTH 13 0
BBX 13 23 0 -5
BITMAP
18C0
3DE0
18C0
0000
0000
E038
7070
7070
7060
38E0
38E0
18C0
1DC0
1DC0
0D80
0D80
0F80
0700
0700
0600
0E00
3E00
3C00
ENDCHAR
STARTCHAR 0110
ENCODING 272
SWIDTH 680 0
DWIDTH 17 0
BBX 16 17 0 0
BITMAP
3FE0
3FF8
383C
380E
380E
3806
3807
FF07
FF07
3807
3807
3806
380E
380E
381C
3FF8
3FE0
ENDCHAR
STARTCHAR 0131
ENCODING 305
SWIDTH 280 0
DWIDTH 7 0
BBX 3 13 2 0
BITMAP
E0
E0
E0
E0
E0
E0
E0
E0
E0
E0
E0
E0
E0
ENDCHAR
STARTCHAR 0132
ENCODING 306
SWIDTH 640 0
DWIDTH 16 0
BBX 12 17 2 0
BITMAP
E3F0
E3F0
E070
E070
E070
E070
E070
E070
E070
E070
0070
0070
2070
E070
70E0
7FE0
1F80
ENDCHAR
STARTCHAR 0133
ENCODING 307
SWIDTH 520 0
DWIDTH 13 0
BBX 9 24 2 -5
BITMAP
E180
E380
E380
E180
0000
0000
E380
E380
E380
E380
E380
E380
E380
E380
E380
E380
E380
E380
E380
0380
0380
0380
0F80
0F00
ENDCHAR
STARTCHAR 0135
ENCODING 309
SWIDTH 280 0
DWIDTH 7 0
BBX 9 25 -1 -5
BITMAP
1C00
3E00
7700
E300
4180
0000
0000
1C00
1C00
1C00
1C00
1C00
1C00
1C00
1C00
1C00
1C00
1C00
1C00
1C00
1C00
1C00
1C00
7800
7800
ENDCHAR
STARTCHAR 0140
ENCODING 320
SWIDTH 400 0
DWIDTH 10 0
BBX 8 19 2 0
BITMAP
E0
E0
E0
E0
E0
E0
E0
E0
E0
E0
E7
E7
E7
E0
E0
E0
E0
F0
70
ENDCHAR
STARTCHAR 0141
ENCODING 321
SWIDTH 520 0
DWIDTH 13 0
BBX 12 17 0 0
BITMAP
3800
3800
3800
3800
3800
3800
3880
3F80
3F80
FC00
F800
3800
3800
3800
3800
3FF0
3FF0
ENDCHAR
STARTCHAR 0142
ENCODING 322
SWIDTH 280 0
DWIDTH 7 0
BBX 7 19 0 0
BITMAP
38
38
38
38
38
38
38
3A
3E
FC
F8
38
38
38
38
38
38
3E
1E
ENDCHAR
STARTCHAR 0152
ENCODING 338
SWIDTH 1000 0
DWIDTH 25 0
BBX 22 17 1 0
BITMAP
07FFFC
1FFFFC
3C1C00
701C00
701C00
701C00
E01C00
E01FF8
E01FF8
E01C00
601C00
701C00
701C00
701C00
3C1C00
1FFFFC
07FFFC
ENDCHAR
STARTCHAR 0153
ENCODING 339
SWIDTH 920 0
DWIDTH 23 0
BBX 21 13 1 0
BITMAP
1F87C0
3FDFE0
70F870
607038
E07038
E07FF8
E07FF8
E07000
E07000
607820
70FC78
3FDFF0
1F87C0
ENDCHAR
STARTCHAR 0160
ENCODING 352
SWIDTH 600 0
DWIDTH 15 0
BBX 13 24 1 0
BITMAP
1040
38E0
1DC0
0F80
0700
0000
0000
0FC0
3FF0
7078
7020
6000
7000
7800
3F00
1FE0
01F0
0070
0038
0038
6030
F070
7FE0
1FC0
ENDCHAR
STARTCHAR 0161
ENCODING 353
SWIDTH 480 0
DWIDTH 12 0
BBX 10 20 1 0
BITMAP
6080
7180
3B00
1F00
1E00
0000
0000
3F00
7F80
E1C0
E000
E000
7C00
3F80
07C0
01C0
40C0
E1C0
7F80
3F00
ENDCHAR
STARTCHAR 0178
ENCODING 376
SWIDTH 600 0
DWIDTH 15 0
BBX 15 22 0 0
BITMAP
0E70
0E70
0E70
0000
0000
F00E
701C
381C
3838
1C38
1C70
0E70
0EE0
07C0
03C0
0380
0380
0380
0380
0380
0380
0380
ENDCHAR
STARTCHAR 017D
ENCODING 381
SWIDTH 600 0
DWIDTH 15 0
BBX 13 24 1 0
BITMAP
1040
38E0
1DC0
0F80
0700
0000
0000
FFF8
FFF8
0070
00F0
00E0
01C0
0380
0780
0700
0E00
1C00
3C00
3800
7000
E000
FFF8
FFF8
ENDCHAR
STARTCHAR 017E
ENCODING 382
SWIDTH 480 0
DWIDTH 12 0
BBX 10 20 1 0
BITMAP
2080
71C0
3B00
1F00
1E00
0000
0000
FFC0
FFC0
03C0
0380
0700
0E00
1E00
1C00
3800
7000
E000
FFC0
FFC0
ENDCHAR
STARTCHAR 0192
ENCODING 402
SWIDTH 480 0
DWIDTH 12 0
BBX 12 20 0 -3
BITMAP
01F0
03E0
0700
0700
0700
0700
0600
0600
7FE0
7FE0
0E00
0E00
0E00
0E00
0E00
0E00
0C00
0C00
FC00
F800
ENDCHAR
STARTCHAR 0237
ENCODING 567
SWIDTH 280 0
DWIDTH 7 0
BBX 5 18 0 -5
BITMAP
38
38
38
38
38
38
38
38
38
38
38
38
38
38
38
38
F0
F0
ENDCHAR
STARTCHAR 02BB
ENCODING 699
SWIDTH 600 0
DWIDTH 15 0
BBX 3 5 6 15
BITMAP
60
C0
E0
E0
E0
ENDCHAR
STARTCHAR 02BC
ENCODING 700
SWIDTH 600 0
DWIDTH 15 0
BBX 3 5 6 14
BITMAP
E0
E0
C0
C0
C0
ENDCHAR
STARTCHAR 02C6
ENCODING 710
SWIDTH 600 0
DWIDTH 15 0
BBX 9 5 3 15
BITMAP
1C00
3E00
7700
E380
4100
ENDCHAR
STARTCHAR 02C7
ENCODING 711
SWIDTH 600 0
DWIDTH 15 0
BBX 9 5 3 15
BITMAP
4100
E380
7700
3E00
1C00
ENDCHAR
STARTCHAR 02D8
ENCODING 728
SWIDTH 600 0
DWIDTH 15 0
BBX 9 4 3 15
BITMAP
4100
E380
7F00
3E00
ENDCHAR
STARTCHAR 02D9
ENCODING 729
SWIDTH 600 0
DWIDTH 15 0
BBX 3 3 6 15
BITMAP
E0
E0
E0
ENDCHAR
STARTCHAR 02DA
ENCODING 730
SWIDTH 600 0
DWIDTH 15 0
BBX 7 7 4 14
BITMAP
38
7C
C6
C6
C6
7C
38
ENDCHAR
STARTCHAR 02DB
ENCODING 731
SWIDTH 600 0
DWIDTH 15 0
BBX 6 6 3 -5
BITMAP
18
30
60
C8
FC
78
ENDCHAR
STARTCHAR 02DC
ENCODING 732
SWIDTH 600 0
DWIDTH 15 0
BBX 9 3 3 15
BITMAP
7900
FF80
4F00
ENDCHAR
STARTCHAR 02DD
ENCODING 733
SWIDTH 600 0
DWIDTH 15 0
BBX 9 5 4 15
BITMAP
3300
7380
6700
E600
CC00
ENDCHAR
STARTCHAR 0300
ENCODING 768
SWIDTH 0 0
DWIDTH 0 0
BBX 4 5 -3 15
BITMAP
E0
E0
70
30
30
ENDCHAR
STARTCHAR 0301
ENCODING 769
SWIDTH 0 0
DWIDTH 0 0
BBX 4 5 -1 15
BITMAP
70
70
E0
C0
C0
ENDCHAR
STARTCHAR 0302
ENCODING 770
SWIDTH 0 0
DWIDTH 0 0
BBX 8 5 -4 15
BITMAP
3C
7E
76
E7
C3
ENDCHAR
STARTCHAR 0303
ENCODING 771
SWIDTH 0 0
DWIDTH 0 0
BBX 8 3 -4 15
BITMAP
71
FF
8E
ENDCHAR
STARTCHAR 0304
ENCODING 772
SWIDTH 0 0
DWIDTH 0 0
BBX 8 2 -4 16
BITMAP
FF
FF
ENDCHAR
STARTCHAR 0307
ENCODING 775
SWIDTH 0 0
DWIDTH 0 0
BBX 4 3 -2 15
BITMAP
60
F0
60
ENDCHAR
STARTCHAR 0308
ENCODING 776
SWIDTH 0 0
DWIDTH 0 0
BBX 8 3 -4 15
BITMAP
E7
E7
E7
ENDCHAR
STARTCHAR 030A
ENCODING 778
SWIDTH 0 0
DWIDTH 0 0
BBX 6 7 -3 14
BITMAP
78
FC
CC
CC
CC
FC
78
ENDCHAR
STARTCHAR 030B
ENCODING 779
SWIDTH 0 0
DWIDTH 0 0
BBX 9 5 -4 15
BITMAP
3180
3B80
7300
6700
C600
ENDCHAR
STARTCHAR 030C
ENCODING 780
SWIDTH 0 0
DWIDTH 0 0
BBX 8 5 -4 15
BITMAP
C3
E3
76
7E
3C
ENDCHAR
STARTCHAR 0315
ENCODING 789
SWIDTH 0 0
DWIDTH 0 0
BBX 3 5 0 14
BITMAP
E0
E0
E0
C0
C0
ENDCHAR
STARTCHAR 0327
ENCODING 807
SWIDTH 0 0
DWIDTH 0 0
BBX 5 6 -2 -6
BITMAP
60
78
18
98
F8
F0
ENDCHAR
STARTCHAR 0328
ENCODING 808
SWIDTH 0 0
DWIDTH 0 0
BBX 6 6 -5 -5
BITMAP
18
30
60
C8
FC
78
ENDCHAR
STARTCHAR 03C0
ENCODING 960
SWIDTH 640 0
DWIDTH 16 0
BBX 14 13 1 0
BITMAP
FFFC
FFFC
3870
3870
3870
3870
3870
3870
3870
3870
3870
3878
3838
ENDCHAR
STARTCHAR 0600
ENCODING 1536
SWIDTH 1240 0
DWIDTH 31 0
BBX 31 13 0 0
BITMAP
00000040
00000060
000000F0
000001C0
00000780
00000F00
00000E00
00000E00
00000706
000003FE
FFFFFFFE
FFFFFFF8
FFFFFF80
ENDCHAR
STARTCHAR 0601
ENCODING 1537
SWIDTH 1680 0
DWIDTH 42 0
BBX 42 9 0 0
BITMAP
01E000000000
07F000000000
1FF010000000
3E3818000000
F83830001F80
701C700FFFC0
401FFFFFFFC0
000FFFFFF1C0
0007CFF001C0
ENDCHAR
STARTCHAR 0602
ENCODING 1538
SWIDTH 1120 0
DWIDTH 28 0
BBX 26 10 1 0
BITMAP
1E000000
3F000000
7F800000
E3800000
C1800000
C1800000
E1C00000
FFFFFFC0
7FFFFFC0
3FFFFFC0
ENDCHAR
STARTCHAR 0603
ENCODING 1539
SWIDTH 1320 0
DWIDTH 33 0
BBX 31 11 1 0
BITMAP
000001F0
000007FC
00000FFC
00001C0E
00073806
00073006
00076006
0007600E
FFFBFFFE
FFFBFFFC
FFF1FFF0
ENDCHAR
STARTCHAR 0604
ENCODING 1540
SWIDTH 1800 0
DWIDTH 45 0
BBX 44 13 0 -3
BITMAP
000000F80000
000001FC0000
000003FE0030
0000070F0630
000006070630
00000E030630
00000E038E30
FFFFFE03FFF0
FFFFFF81F7F0
FFFFFFC0F3E0
000003F00000
000000E00000
000000200000
ENDCHAR
STARTCHAR 0606
ENCODING 1542
SWIDTH 600 0
DWIDTH 15 0
BBX 14 22 1 0
BITMAP
0630
02F0
03F0
0360
0200
E200
E200
6000
6000
703C
707C
3060
3860
38E0
18C0
18C0
1CC0
0DC0
0D80
0F80
0F80
0780
ENDCHAR
STARTCHAR 0607
ENCODING 1543
SWIDTH 600 0
DWIDTH 15 0
BBX 14 23 1 0
BITMAP
01C0
03C0
0200
03C0
03C0
0640
E7C0
E3E0
6000
6000
703C
707C
3060
3860
38E0
18C0
18C0
1CC0
0DC0
0D80
0F80
0F80
0780
ENDCHAR
STARTCHAR 0608
ENCODING 1544
SWIDTH 800 0
DWIDTH 20 0
BBX 23 16 -2 -6
BITMAP
000780
000FC0
001FE0
FE38E0
FE3064
0C303E
0C383E
0C3FFC
181FF0
180FF0
0C0070
0C0060
0F00E0
07FFC0
03FF80
00FE00
ENDCHAR
STARTCHAR 0609
ENCODING 1545
SWIDTH 720 0
DWIDTH 18 0
BBX 16 15 1 0
BITMAP
7038
F070
70E0
00C0
01C0
0380
0300
0700
0E00
0C00
1C00
3800
30E7
61EF
E0E7
ENDCHAR
STARTCHAR 060A
ENCODING 1546
SWIDTH 920 0
DWIDTH 23 0
BBX 21 15 1 0
BITMAP
703800
F07000
70E000
00C000
01C000
038000
030000
070000
0E0000
0C0000
1C0000
380000
30E738
61EF78
E0E738
ENDCHAR
STARTCHAR 060B
ENCODING 1547
SWIDTH 880 0
DWIDTH 22 0
BBX 20 23 1 -6
BITMAP
018000
01C000
018000
000780
001FC0
001FE0
0038E0
1E3060
7F3060
7F3FF0
E39FB0
C18F70
C18060
C180E0
FFFFE0
7FFFC0
3FFF80
018000
018000
018000
018000
018000
018000
ENDCHAR
STARTCHAR 060C
ENCODING 1548
SWIDTH 280 0
DWIDTH 7 0
BBX 4 7 2 0
BITMAP
30
60
E0
C0
E0
E0
E0
ENDCHAR
STARTCHAR 060D
ENCODING 1549
SWIDTH 280 0
DWIDTH 7 0
BBX 7 10 0 0
BITMAP
0C
1E
1C
38
70
70
60
60
60
E0
ENDCHAR
STARTCHAR 060E
ENCODING 1550
SWIDTH 1000 0
DWIDTH 25 0
BBX 23 10 1 0
BITMAP
1E0000
3F0000
7F8000
E38000
C18000
C1807C
E1FFFE
FFFFFE
7FFF86
3F8006
ENDCHAR
STARTCHAR 060F
ENCODING 1551
SWIDTH 680 0
DWIDTH 17 0
BBX 17 24 -1 -8
BITMAP
01E000
03F800
07FC00
0E1800
0C1000
0C0000
0C0000
0C0000
0E0200
07FE00
03FE00
01FC00
078000
0E0000
18FC00
3BFF00
37FF00
3F0380
3C0180
380180
3E0380
6FFF00
E7FE00
41FC00
ENDCHAR
STARTCHAR 0610
ENCODING 1552
SWIDTH 0 0
DWIDTH 0 0
BBX 8 7 0 7
BITMAP
0E
1E
F3
7E
7E
40
C0
ENDCHAR
STARTCHAR 0611
ENCODING 1553
SWIDTH 0 0
DWIDTH 0 0
BBX 8 7 0 7
BITMAP
1E
1E
52
7F
7C
40
C0
ENDCHAR
STARTCHAR 0612
ENCODING 1554
SWIDTH 0 0
DWIDTH 0 0
BBX 8 6 0 7
BITMAP
7F
FD
CD
73
47
C6
ENDCHAR
STARTCHAR 0613
ENCODING 1555
SWIDTH 0 0
DWIDTH 0 0
BBX 10 10 0 7
BITMAP
0400
0C00
0000
0E00
1E40
F3C0
7EC0
7EC0
41C0
C180
ENDCHAR
STARTCHAR 0614
ENCODING 1556
SWIDTH 0 0
DWIDTH 0 0
BBX 10 4 0 9
BITMAP
0040
0140
FFC0
FEC0
ENDCHAR
STARTCHAR 0615
ENCODING 1557
SWIDTH 0 0
DWIDTH 0 0
BBX 7 7 0 9
BITMAP
60
60
7C
7E
62
FE
FC
ENDCHAR
STARTCHAR 0616
ENCODING 1558
SWIDTH 0 0
DWIDTH 0 0
BBX 8 9 0 7
BITMAP
0B
0B
0B
0B
1B
7B
E0
FF
7F
ENDCHAR
STARTCHAR 0617
ENCODING 1559
SWIDTH 0 0
DWIDTH 0 0
BBX 4 9 -1 7
BITMAP
20
20
00
20
30
30
20
E0
C0
ENDCHAR
STARTCHAR 0618
ENCODING 1560
SWIDTH 0 0
DWIDTH 0 0
BBX 5 3 0 9
BITMAP
38
F0
C0
ENDCHAR
STARTCHAR 0619
ENCODING 1561
SWIDTH 0 0
DWIDTH 0 0
BBX 5 6 0 9
BITMAP
38
78
68
38
70
C0
ENDCHAR
STARTCHAR 061A
ENCODING 1562
SWIDTH 0 0
DWIDTH 0 0
BBX 5 3 0 9
BITMAP
38
F0
C0
ENDCHAR
STARTCHAR 061B
ENCODING 1563
SWIDTH 280 0
DWIDTH 7 0
BBX 4 13 2 0
BITMAP
30
60
E0
C0
E0
E0
E0
00
00
E0
E0
E0
E0
ENDCHAR
STARTCHAR 061E
ENCODING 1566
SWIDTH 640 0
DWIDTH 16 0
BBX 12 12 2 0
BITMAP
0600
0F00
0F00
0600
0000
0000
0000
0000
E070
E070
E070
E070
ENDCHAR
STARTCHAR 061F
ENCODING 1567
SWIDTH 480 0
DWIDTH 12 0
BBX 11 18 1 0
BITMAP
1F00
7F80
7FC0
E1E0
C0C0
C000
C000
E000
7000
7E00
1E00
0600
0600
0000
0000
0E00
0F00
0E00
ENDCHAR
STARTCHAR 0620
ENCODING 1568
SWIDTH 760 0
DWIDTH 19 0
BBX 17 23 1 -10
BITMAP
003E00
007F00
00FF80
00C300
018200
018000
018000
618000
61F000
C1FF00
C07F80
C00F80
C00180
C00180
E00380
700F00
7FFE00
3FFC00
0FF000
066000
066000
03C000
038000
ENDCHAR
STARTCHAR 0621
ENCODING 1569
SWIDTH 400 0
DWIDTH 10 0
BBX 9 9 1 0
BITMAP
3E00
7F00
7F00
E200
6000
6000
FF80
FF80
FF80
ENDCHAR
STARTCHAR 0622
ENCODING 1570
SWIDTH 240 0
DWIDTH 6 0
BBX 8 20 -1 0
BITMAP
73
FF
DE
00
00
18
18
18
18
18
18
18
18
18
18
18
18
18
18
18
ENDCHAR
STARTCHAR 0623
ENCODING 1571
SWIDTH 240 0
DWIDTH 6 0
BBX 6 23 0 0
BITMAP
38
7C
48
60
FC
FC
00
00
30
30
30
30
30
30
30
30
30
30
30
30
30
30
30
ENDCHAR
STARTCHAR 0624
ENCODING 1572
SWIDTH 480 0
DWIDTH 12 0
BBX 10 24 1 -6
BITMAP
1E00
1E00
1400
1000
3F00
3F00
0000
0000
1E00
3F00
7F80
E380
C180
C1C0
E1C0
FFC0
7EC0
3D80
0180
0380
0700
FF00
FE00
F800
ENDCHAR
STARTCHAR 0625
ENCODING 1573
SWIDTH 240 0
DWIDTH 6 0
BBX 6 26 0 -7
BITMAP
30
30
30
30
30
30
30
30
30
30
30
30
30
30
30
30
30
30
30
00
38
7C
48
60
FC
FC
ENDCHAR
STARTCHAR 0626
ENCODING 1574
SWIDTH 760 0
DWIDTH 19 0
BBX 18 19 0 -6
BITMAP
381F00
7C3F80
487FC0
606180
FCC100
FCC000
00C000
30C000
30F800
60FF80
603FC0
6007C0
6000C0
6000C0
7001C0
380780
3FFF00
1FFE00
07F800
ENDCHAR
STARTCHAR 0627
ENCODING 1575
SWIDTH 240 0
DWIDTH 6 0
BBX 2 19 2 0
BITMAP
C0
C0
C0
C0
C0
C0
C0
C0
C0
C0
C0
C0
C0
C0
C0
C0
C0
C0
C0
ENDCHAR
STARTCHAR 0628
ENCODING 1576
SWIDTH 840 0
DWIDTH 21 0
BBX 19 15 1 -5
BITMAP
600060
600060
C00060
C00060
C00060
C00060
F000E0
7FFFE0
3FFFC0
0FFF00
000000
000000
00E000
00E000
00E000
ENDCHAR
STARTCHAR 0629
ENCODING 1577
SWIDTH 440 0
DWIDTH 11 0
BBX 10 16 1 0
BITMAP
3700
3700
3700
0000
0000
1E00
3F00
7F00
7780
E380
C180
C1C0
E180
FF80
7F00
3E00
ENDCHAR
STARTCHAR 062A
ENCODING 1578
SWIDTH 840 0
DWIDTH 21 0
BBX 19 12 1 0
BITMAP
01B800
03B800
61B860
600060
C00060
C00060
C00060
C00060
F000E0
7FFFE0
3FFFC0
0FFF00
ENDCHAR
STARTCHAR 062B
ENCODING 1579
SWIDTH 840 0
DWIDTH 21 0
BBX 19 16 1 0
BITMAP
00E000
00E000
006000
000000
01B800
03B800
61B860
600060
C00060
C00060
C00060
C00060
F000E0
7FFFE0
3FFFC0
0FFF00
ENDCHAR
STARTCHAR 062C
ENCODING 1580
SWIDTH 600 0
DWIDTH 15 0
BBX 15 20 1 -8
BITMAP
3FF0
7FFC
7FFC
600C
607C
03F0
0FC0
3E00
7000
6000
C300
C380
C300
C000
C000
E00C
703E
7FFC
3FF8
0FE0
ENDCHAR
STARTCHAR 062D
ENCODING 1581
SWIDTH 600 0
DWIDTH 15 0
BBX 15 20 1 -8
BITMAP
3FF0
7FFC
7FFC
600C
607C
03F0
0FC0
3E00
7000
6000
C000
C000
C000
C000
C000
E00C
703E
7FFC
3FF8
0FE0
ENDCHAR
STARTCHAR 062E
ENCODING 1582
SWIDTH 600 0
DWIDTH 15 0
BBX 15 25 1 -8
BITMAP
0300
0700
0300
0000
0000
3FF0
7FFC
7FFC
600C
607C
03F0
0FC0
3E00
7000
6000
C000
C000
C000
C000
C000
E00C
703E
7FFC
3FF8
0FE0
ENDCHAR
STARTCHAR 062F
ENCODING 1583
SWIDTH 480 0
DWIDTH 12 0
BBX 10 13 1 0
BITMAP
0C00
1C00
1E00
0F00
0780
03C0
01C0
00C0
C0C0
C0C0
FFC0
FF80
7F00
ENDCHAR
STARTCHAR 0630
ENCODING 1584
SWIDTH 480 0
DWIDTH 12 0
BBX 10 18 1 0
BITMAP
1C00
1C00
1C00
0000
0000
0C00
1C00
1E00
0F00
0780
03C0
01C0
00C0
C0C0
C0C0
FFC0
FF80
7F00
ENDCHAR
STARTCHAR 0631
ENCODING 1585
SWIDTH 280 0
DWIDTH 7 0
BBX 8 14 -2 -6
BITMAP
06
07
07
03
03
03
03
03
03
07
0E
FE
FC
F0
ENDCHAR
STARTCHAR 0632
ENCODING 1586
SWIDTH 280 0
DWIDTH 7 0
BBX 8 19 -2 -6
BITMAP
06
0E
06
00
00
06
07
07
03
03
03
03
03
03
07
0E
FE
FC
F0
ENDCHAR
STARTCHAR 0633
ENCODING 1587
SWIDTH 1120 0
DWIDTH 28 0
BBX 26 14 1 -6
BITMAP
000000C0
000C18C0
000C18C0
600C18C0
600C38C0
C00FFFC0
C007EFC0
C007C780
C00E0000
E00C0000
F01C0000
7FFC0000
3FF80000
0FE00000
ENDCHAR
STARTCHAR 0634
ENCODING 1588
SWIDTH 1120 0
DWIDTH 28 0
BBX 26 22 1 -6
BITMAP
00001800
00003800
00001800
00000000
00006E00
00007E00
00006600
00000000
000000C0
000C18C0
000C18C0
600C18C0
600C38C0
C00FFFC0
C007EFC0
C007C780
C00E0000
E00C0000
F01C0000
7FFC0000
3FF80000
0FE00000
ENDCHAR
STARTCHAR 0635
ENCODING 1589
SWIDTH 1280 0
DWIDTH 32 0
BBX 30 17 1 -6
BITMAP
000007E0
00000FF0
00001FF8
0000381C
000C600C
600CC00C
600EC00C
C007801C
C007FFF8
C007FFF8
C007FFE0
C0060000
E00E0000
701C0000
7FFC0000
3FF80000
0FE00000
ENDCHAR
STARTCHAR 0636
ENCODING 1590
SWIDTH 1280 0
DWIDTH 32 0
BBX 30 22 1 -6
BITMAP
00000380
00000380
00000380
00000000
00000000
000007E0
00000FF0
00001FF8
0000381C
000C600C
600CC00C
600EC00C
C007801C
C007FFF8
C007FFF8
C007FFE0
C0060000
E00E0000
701C0000
7FFC0000
3FF80000
0FE00000
ENDCHAR
STARTCHAR 0637
ENCODING 1591
SWIDTH 760 0
DWIDTH 19 0
BBX 17 19 1 0
BITMAP
1C0000
1C0000
1C0000
1C0000
1C0000
1C0000
1C0000
1C0000
1C7E00
19FF00
1BFF80
1F0380
1E0180
1C0180
180180
180380
FFFF80
FFFF00
FFFC00
ENDCHAR
STARTCHAR 0638
ENCODING 1592
SWIDTH 760 0
DWIDTH 19 0
BBX 17 19 1 0
BITMAP
1C0000
1C0000
1C0000
1C3000
1C3800
1C3000
1C0000
1C0000
1C7E00
19FF00
1BFF80
1F0380
1E0180
1C0180
180180
180380
FFFF80
FFFF00
FFFC00
ENDCHAR
STARTCHAR 0639
ENCODING 1593
SWIDTH 600 0
DWIDTH 15 0
BBX 15 24 1 -8
BITMAP
0780
0FE0
1FF0
3860
3040
3000
3000
3000
3808
1FF8
0FF8
07F0
1E00
3800
6000
E000
C000
C000
C000
E00C
783E
7FFC
3FF8
0FE0
ENDCHAR
STARTCHAR 063A
ENCODING 1594
SWIDTH 600 0
DWIDTH 15 0
BBX 15 29 1 -8
BITMAP
0300
0300
0300
0000
0000
0780
0FE0
1FF0
3860
3040
3000
3000
3000
3808
1FF8
0FF8
07F0
1E00
3800
6000
E000
C000
C000
C000
E00C
783E
7FFC
3FF8
0FE0
ENDCHAR
STARTCHAR 063B
ENCODING 1595
SWIDTH 880 0
DWIDTH 22 0
BBX 24 22 1 0
BITMAP
0006E0
000EE0
0006E0
000003
00000F
00007F
0001FC
000FF0
000F80
000C00
000C00
000E00
600F00
6007C0
C003E0
C000E0
C00060
C00060
F00060
7FFFE0
3FFFC0
0FFE00
ENDCHAR
STARTCHAR 063C
ENCODING 1596
SWIDTH 880 0
DWIDTH 22 0
BBX 24 29 1 -10
BITMAP
000003
00000F
00007F
0001FC
000FF0
000F80
000C00
000C00
000E00
600F00
6007C0
C003E0
C000E0
C00060
C00060
F00060
7FFFE0
3FFFC0
0FFE00
000000
000000
000000
01B800
03B800
01B800
000000
00E000
00E000
00E000
ENDCHAR
STARTCHAR 063D
ENCODING 1597
SWIDTH 760 0
DWIDTH 19 0
BBX 18 19 0 -6
BITMAP
001F00
303F80
787FC0
786180
4CC100
CCC000
00C000
30C000
30F800
60FF80
603FC0
6007C0
6000C0
6000C0
7001C0
380780
3FFF00
1FFE00
07F800
ENDCHAR
STARTCHAR 063E
ENCODING 1598
SWIDTH 760 0
DWIDTH 19 0
BBX 18 19 0 -6
BITMAP
001F00
003F80
007FC0
CC6180
FCC100
CCC000
00C000
30C000
30F800
60FF80
603FC0
6007C0
6000C0
6000C0
7001C0
380780
3FFF00
1FFE00
07F800
ENDCHAR
STARTCHAR 063F
ENCODING 1599
SWIDTH 760 0
DWIDTH 19 0
BBX 18 20 0 -6
BITMAP
300000
381F00
303F80
007FC0
EC6180
FCC100
ECC000
00C000
30C000
30F800
60FF80
603FC0
6007C0
6000C0
6000C0
7001C0
380780
3FFF00
1FFE00
07F800
ENDCHAR
STARTCHAR 0640
ENCODING 1600
SWIDTH 120 0
DWIDTH 3 0
BBX 4 3 -1 0
BITMAP
70
F0
F0
ENDCHAR
STARTCHAR 0641
ENCODING 1601
SWIDTH 920 0
DWIDTH 23 0
BBX 21 20 1 0
BITMAP
000180
0001C0
000180
000000
000000
000000
0003C0
0007E0
000FF0
000C30
601818
601C18
C01FF8
C00FD8
C007D8
C00038
F00070
7FFFF0
3FFFE0
0FFF00
ENDCHAR
STARTCHAR 0642
ENCODING 1602
SWIDTH 720 0
DWIDTH 18 0
BBX 16 21 1 -6
BITMAP
00EC
00EE
00EC
0000
0000
0078
00FE
01FE
01C7
6183
6183
C183
C1FF
C1FF
C07B
C003
E007
700E
7FFE
3FFC
0FF0
ENDCHAR
STARTCHAR 0643
ENCODING 1603
SWIDTH 760 0
DWIDTH 19 0
BBX 17 19 1 0
BITMAP
000380
000380
000380
000380
000380
00C380
038380
030380
03C380
03E380
00C380
03C380
070380
000380
000300
000700
FFFF00
FFFE00
FFFC00
ENDCHAR
STARTCHAR 0644
ENCODING 1604
SWIDTH 680 0
DWIDTH 17 0
BBX 14 25 1 -6
BITMAP
000C
000C
000C
000C
000C
000C
000C
000C
000C
000C
000C
000C
000C
600C
600C
C00C
C00C
C00C
C01C
C01C
E018
7038
7FF8
3FF0
0FC0
ENDCHAR
STARTCHAR 0645
ENCODING 1605
SWIDTH 600 0
DWIDTH 15 0
BBX 13 19 1 -8
BITMAP
07C0
0FE0
1FE0
1C70
2830
0030
0030
1FF8
7FF8
7FF8
E000
E000
E000
E000
E000
E000
E000
E000
E000
ENDCHAR
STARTCHAR 0646
ENCODING 1606
SWIDTH 680 0
DWIDTH 17 0
BBX 15 16 1 -4
BITMAP
0380
0380
038C
000C
600C
600E
C006
C006
C006
C006
C006
E00E
701C
7FFC
3FF8
0FE0
ENDCHAR
STARTCHAR 0647
ENCODING 1607
SWIDTH 440 0
DWIDTH 11 0
BBX 10 11 1 0
BITMAP
1E00
3F00
7F00
7780
E380
C180
C1C0
E180
FF80
7F00
3E00
ENDCHAR
STARTCHAR 0648
ENCODING 1608
SWIDTH 480 0
DWIDTH 12 0
BBX 10 16 1 -6
BITMAP
1E00
3F00
7F80
E380
C180
C1C0
E1C0
FFC0
7EC0
3D80
0180
0380
0700
FF00
FE00
F800
ENDCHAR
STARTCHAR 0649
ENCODING 1609
SWIDTH 760 0
DWIDTH 19 0
BBX 17 19 1 -6
BITMAP
003E00
007F00
00FF80
00C300
018200
018000
018000
618000
61F000
C1FF00
C07F80
C00F80
C00180
C00180
E00380
700F00
7FFE00
3FFC00
0FF000
ENDCHAR
STARTCHAR 064A
ENCODING 1610
SWIDTH 760 0
DWIDTH 19 0
BBX 17 24 1 -11
BITMAP
003E00
007F00
00FF80
00C300
018200
018000
018000
618000
61F000
C1FF00
C07F80
C00F80
C00180
C00180
E00380
700F00
7FFE00
3FFC00
0FF000
000000
000000
066000
07E000
066000
ENDCHAR
STARTCHAR 064B
ENCODING 1611
SWIDTH 0 0
DWIDTH 0 0
BBX 6 7 0 9
BITMAP
04
3C
F0
C4
3C
F0
C0
ENDCHAR
STARTCHAR 064C
ENCODING 1612
SWIDTH 0 0
DWIDTH 0 0
BBX 8 8 0 8
BITMAP
0E
1F
DB
FB
2E
5C
70
40
ENDCHAR
STARTCHAR 064D
ENCODING 1613
SWIDTH 0 0
DWIDTH 0 0
BBX 6 8 0 5
BITMAP
04
3C
F0
C0
04
3C
F0
C0
ENDCHAR
STARTCHAR 064E
ENCODING 1614
SWIDTH 0 0
DWIDTH 0 0
BBX 6 4 0 9
BITMAP
04
3C
F0
C0
ENDCHAR
STARTCHAR 064F
ENCODING 1615
SWIDTH 0 0
DWIDTH 0 0
BBX 6 8 0 8
BITMAP
1C
3C
24
34
1C
78
E0
80
ENDCHAR
STARTCHAR 0650
ENCODING 1616
SWIDTH 0 0
DWIDTH 0 0
BBX 6 4 0 9
BITMAP
04
3C
F0
C0
ENDCHAR
STARTCHAR 0651
ENCODING 1617
SWIDTH 0 0
DWIDTH 0 0
BBX 7 6 0 9
BITMAP
06
16
D6
DE
EC
60
ENDCHAR
STARTCHAR 0652
ENCODING 1618
SWIDTH 0 0
DWIDTH 0 0
BBX 6 6 0 9
BITMAP
38
78
CC
CC
78
78
ENDCHAR
STARTCHAR 0653
ENCODING 1619
SWIDTH 0 0
DWIDTH 0 0
BBX 8 3 0 9
BITMAP
72
FF
DE
ENDCHAR
STARTCHAR 0654
ENCODING 1620
SWIDTH 0 0
DWIDTH 0 0
BBX 6 6 0 9
BITMAP
38
7C
48
60
FC
FC
ENDCHAR
STARTCHAR 0655
ENCODING 1621
SWIDTH 0 0
DWIDTH 0 0
BBX 6 6 0 9
BITMAP
38
7C
48
60
FC
FC
ENDCHAR
STARTCHAR 0656
ENCODING 1622
SWIDTH 0 0
DWIDTH 0 0
BBX 1 4 1 9
BITMAP
80
80
80
80
ENDCHAR
STARTCHAR 0657
ENCODING 1623
SWIDTH 0 0
DWIDTH 0 0
BBX 7 8 0 9
BITMAP
04
0E
38
70
D8
D8
78
70
ENDCHAR
STARTCHAR 0658
ENCODING 1624
SWIDTH 0 0
DWIDTH 0 0
BBX 6 5 0 9
BITMAP
C4
C4
C4
FC
78
ENDCHAR
STARTCHAR 0659
ENCODING 1625
SWIDTH 0 0
DWIDTH 0 0
BBX 6 2 0 9
BITMAP
FC
FC
ENDCHAR
STARTCHAR 065A
ENCODING 1626
SWIDTH 0 0
DWIDTH 0 0
BBX 7 5 0 9
BITMAP
C6
6C
68
38
38
ENDCHAR
STARTCHAR 065B
ENCODING 1627
SWIDTH 0 0
DWIDTH 0 0
BBX 7 5 0 9
BITMAP
38
38
6C
6C
CE
ENDCHAR
STARTCHAR 065C
ENCODING 1628
SWIDTH 0 0
DWIDTH 0 0
BBX 3 3 0 9
BITMAP
60
E0
60
ENDCHAR
STARTCHAR 065D
ENCODING 1629
SWIDTH 0 0
DWIDTH 0 0
BBX 7 8 0 8
BITMAP
70
78
C8
58
70
38
0E
04
ENDCHAR
STARTCHAR 065E
ENCODING 1630
SWIDTH 0 0
DWIDTH 0 0
BBX 5 6 1 8
BITMAP
C8
D8
30
60
D8
98
ENDCHAR
STARTCHAR 065F
ENCODING 1631
SWIDTH 0 0
DWIDTH 0 0
BBX 7 7 0 8
BITMAP
1C
1E
34
10
7E
FE
C0
ENDCHAR
STARTCHAR 0660
ENCODING 1632
SWIDTH 280 0
DWIDTH 7 0
BBX 4 3 2 6
BITMAP
E0
F0
E0
ENDCHAR
STARTCHAR 0661
ENCODING 1633
SWIDTH 280 0
DWIDTH 7 0
BBX 3 15 2 0
BITMAP
C0
C0
C0
C0
C0
C0
C0
E0
E0
E0
E0
E0
60
60
60
ENDCHAR
STARTCHAR 0662
ENCODING 1634
SWIDTH 480 0
DWIDTH 12 0
BBX 10 15 2 0
BITMAP
C180
C180
C180
C1C0
C180
FF80
FF80
FE00
E000
E000
E000
E000
6000
6000
6000
ENDCHAR
STARTCHAR 0663
ENCODING 1635
SWIDTH 640 0
DWIDTH 16 0
BBX 13 15 2 0
BITMAP
C038
C318
C318
C318
C718
FFF8
FBF0
F9E0
E000
E000
E000
E000
6000
6000
6000
ENDCHAR
STARTCHAR 0664
ENCODING 1636
SWIDTH 520 0
DWIDTH 13 0
BBX 11 15 1 0
BITMAP
0180
1F80
3F80
7C00
6000
7000
7F80
1F80
7F80
E000
C000
E0C0
FFE0
7FC0
3F80
ENDCHAR
STARTCHAR 0665
ENCODING 1637
SWIDTH 560 0
DWIDTH 14 0
BBX 12 13 1 1
BITMAP
0F00
3FC0
7FC0
70E0
E060
C070
C030
C030
C070
E0E0
7FE0
3FC0
1F00
ENDCHAR
STARTCHAR 0666
ENCODING 1638
SWIDTH 520 0
DWIDTH 13 0
BBX 10 15 1 0
BITMAP
FF00
FF80
FF80
0180
0180
0180
0180
0180
0180
01C0
01C0
01C0
01C0
01C0
00C0
ENDCHAR
STARTCHAR 0667
ENCODING 1639
SWIDTH 520 0
DWIDTH 13 0
BBX 13 15 0 0
BITMAP
E038
7038
7030
7070
3870
3860
3860
18E0
1CC0
1CC0
0DC0
0F80
0F80
0780
0780
ENDCHAR
STARTCHAR 0668
ENCODING 1640
SWIDTH 520 0
DWIDTH 13 0
BBX 13 15 0 0
BITMAP
0780
0780
0F80
0D80
0DC0
1DC0
18C0
18E0
38E0
3860
3070
7070
7070
6038
E038
ENDCHAR
STARTCHAR 0669
ENCODING 1641
SWIDTH 520 0
DWIDTH 13 0
BBX 10 15 1 0
BITMAP
1E00
7F00
7F80
E380
C1C0
C1C0
E1C0
FFC0
7EC0
3CC0
00C0
00C0
00C0
00C0
00C0
ENDCHAR
STARTCHAR 066A
ENCODING 1642
SWIDTH 600 0
DWIDTH 15 0
BBX 13 15 1 0
BITMAP
7038
F070
70E0
00C0
01C0
0380
0300
0700
0E00
0C00
1C00
3800
3070
6078
E070
ENDCHAR
STARTCHAR 066B
ENCODING 1643
SWIDTH 280 0
DWIDTH 7 0
BBX 4 7 1 -3
BITMAP
70
70
70
70
30
60
E0
ENDCHAR
STARTCHAR 066C
ENCODING 1644
SWIDTH 280 0
DWIDTH 7 0
BBX 5 6 1 -2
BITMAP
20
78
78
70
E0
60
ENDCHAR
STARTCHAR 066D
ENCODING 1645
SWIDTH 520 0
DWIDTH 13 0
BBX 11 11 1 8
BITMAP
0E00
0E00
0E00
ECE0
FFE0
3F80
1E00
1B00
3380
71C0
2100
ENDCHAR
STARTCHAR 066E
ENCODING 1646
SWIDTH 840 0
DWIDTH 21 0
BBX 19 10 1 0
BITMAP
600060
600060
C00060
C00060
C00060
C00060
F000E0
7FFFE0
3FFFC0
0FFF00
ENDCHAR
STARTCHAR 066F
ENCODING 1647
SWIDTH 720 0
DWIDTH 18 0
BBX 16 16 1 -6
BITMAP
0078
00FE
01FE
01C7
6183
6183
C183
C1FF
C1FF
C07B
C003
E007
700E
7FFE
3FFC
0FF0
ENDCHAR
STARTCHAR 0670
ENCODING 1648
SWIDTH 0 0
DWIDTH 0 0
BBX 1 4 1 9
BITMAP
80
80
80
80
ENDCHAR
STARTCHAR 0671
ENCODING 1649
SWIDTH 240 0
DWIDTH 6 0
BBX 8 23 -1 0
BITMAP
0E
1F
33
73
FE
DE
00
00
18
18
18
18
18
18
18
18
18
18
18
18
18
18
18
ENDCHAR
STARTCHAR 0672
ENCODING 1650
SWIDTH 240 0
DWIDTH 6 0
BBX 7 23 -1 0
BITMAP
1C
3E
34
10
7E
FE
C0
00
18
18
18
18
18
18
18
18
18
18
18
18
18
18
18
ENDCHAR
STARTCHAR 0673
ENCODING 1651
SWIDTH 240 0
DWIDTH 6 0
BBX 7 27 -1 -8
BITMAP
18
18
18
18
18
18
18
18
18
18
18
18
18
18
18
18
18
18
18
00
1E
1E
34
10
7E
FE
C0
ENDCHAR
STARTCHAR 0674
ENCODING 1652
SWIDTH 280 0
DWIDTH 7 0
BBX 5 6 1 13
BITMAP
70
F8
D0
C0
F8
F8
ENDCHAR
STARTCHAR 0675
ENCODING 1653
SWIDTH 240 0
DWIDTH 6 0
BBX 9 20 2 0
BITMAP
0700
CF80
C900
C800
DF80
DF80
C000
C000
C000
C000
C000
C000
C000
C000
C000
C000
C000
C000
C000
C000
ENDCHAR
STARTCHAR 0676
ENCODING 1654
SWIDTH 480 0
DWIDTH 12 0
BBX 10 24 1 -6
BITMAP
0380
03C0
0680
0200
07C0
07C0
0000
0000
1E00
3F00
7F80
E380
C180
C1C0
E1C0
FFC0
7EC0
3D80
0180
0380
0700
FF00
FE00
F800
ENDCHAR
STARTCHAR 0677
ENCODING 1655
SWIDTH 480 0
DWIDTH 12 0
BBX 12 24 -1 -6
BITMAP
38E0
3CF0
65A0
2480
3DF0
79F0
E000
8000
0780
0FC0
1FE0
38E0
3060
3070
3870
3FF0
1FB0
0F60
0060
00E0
01C0
3FC0
3F80
3E00
ENDCHAR
STARTCHAR 0678
ENCODING 1656
SWIDTH 760 0
DWIDTH 19 0
BBX 17 26 1 -6
BITMAP
001C00
003E00
003400
001000
003E00
003E00
000000
003E00
007F00
00FF80
00C300
018200
018000
018000
618000
61F000
C1FF00
C07F80
C00F80
C00180
C00180
E00380
700F00
7FFE00
3FFC00
0FF000
ENDCHAR
STARTCHAR 0679
ENCODING 1657
SWIDTH 840 0
DWIDTH 21 0
BBX 19 15 1 0
BITMAP
018000
018000
01F000
01F800
018800
63F860
63F060
C00060
C00060
C00060
C00060
F000E0
7FFFE0
3FFFC0
0FFF00
ENDCHAR
STARTCHAR 067A
ENCODING 1658
SWIDTH 840 0
DWIDTH 21 0
BBX 19 15 1 0
BITMAP
00E000
00E000
006000
000000
00E000
60E060
606060
C00060
C00060
C00060
C00060
F000E0
7FFFE0
3FFFC0
0FFF00
ENDCHAR
STARTCHAR 067B
ENCODING 1659
SWIDTH 840 0
DWIDTH 21 0
BBX 19 19 1 -9
BITMAP
600060
600060
C00060
C00060
C00060
C00060
F000E0
7FFFE0
3FFFC0
0FFF00
000000
000000
00E000
00E000
006000
000000
00E000
00E000
006000
ENDCHAR
STARTCHAR 067C
ENCODING 1660
SWIDTH 840 0
DWIDTH 21 0
BBX 19 17 1 -5
BITMAP
01B800
03B800
61B860
600060
C00060
C00060
C00060
C00060
F000E0
7FFFE0
3FFFC0
0FFF00
019000
019800
019000
00F000
006000
ENDCHAR
STARTCHAR 067D
ENCODING 1661
SWIDTH 840 0
DWIDTH 21 0
BBX 19 16 1 0
BITMAP
01B800
03B800
01B800
000000
00E000
00E000
606060
600060
C00060
C00060
C00060
C00060
F000E0
7FFFE0
3FFFC0
0FFF00
ENDCHAR
STARTCHAR 067E
ENCODING 1662
SWIDTH 840 0
DWIDTH 21 0
BBX 19 20 1 -10
BITMAP
600060
600060
C00060
C00060
C00060
C00060
F000E0
7FFFE0
3FFFC0
0FFF00
000000
000000
000000
01B800
03B800
01B800
000000
00E000
00E000
00E000
ENDCHAR
STARTCHAR 067F
ENCODING 1663
SWIDTH 840 0
DWIDTH 21 0
BBX 19 16 1 0
BITMAP
01B800
03B800
01B800
000000
01B800
03B800
61B860
600060
C00060
C00060
C00060
C00060
F000E0
7FFFE0
3FFFC0
0FFF00
ENDCHAR
STARTCHAR 0680
ENCODING 1664
SWIDTH 840 0
DWIDTH 21 0
BBX 19 19 1 -9
BITMAP
600060
600060
C00060
C00060
C00060
C00060
F000E0
7FFFE0
3FFFC0
0FFF00
000000
000000
01B800
03B800
01B800
000000
01B800
03B800
01B800
ENDCHAR
STARTCHAR 0681
ENCODING 1665
SWIDTH 600 0
DWIDTH 15 0
BBX 15 27 1 -8
BITMAP
0780
0780
0500
0400
0FC0
0FC0
0000
3FF0
7FFC
7FFC
600C
607C
03F0
0FC0
3E00
7000
6000
C000
C000
C000
C000
C000
E00C
703E
7FFC
3FF8
0FE0
ENDCHAR
STARTCHAR 0682
ENCODING 1666
SWIDTH 600 0
DWIDTH 15 0
BBX 15 28 1 -8
BITMAP
0300
0700
0300
0000
0300
0700
0300
0000
3FF0
7FFC
7FFC
600C
607C
03F0
0FC0
3E00
7000
6000
C000
C000
C000
C000
C000
E00C
703E
7FFC
3FF8
0FE0
ENDCHAR
STARTCHAR 0683
ENCODING 1667
SWIDTH 600 0
DWIDTH 15 0
BBX 15 20 1 -8
BITMAP
3FF0
7FFC
7FFC
600C
607C
03F0
0FC0
3E00
7000
6000
CEC0
CFC0
CEC0
C000
C000
E00C
703E
7FFC
3FF8
0FE0
ENDCHAR
STARTCHAR 0684
ENCODING 1668
SWIDTH 600 0
DWIDTH 15 0
BBX 15 20 1 -8
BITMAP
3FF0
7FFC
7FFC
600C
607C
03F0
0FC0
3E00
7000
6300
C380
C300
C000
C300
C380
E30C
703E
7FFC
3FF8
0FE0
ENDCHAR
STARTCHAR 0685
ENCODING 1669
SWIDTH 600 0
DWIDTH 15 0
BBX 15 29 1 -8
BITMAP
0300
0700
0300
0000
0DC0
0FC0
0DC0
0000
0000
3FF0
7FFC
7FFC
600C
607C
03F0
0FC0
3E00
7000
6000
C000
C000
C000
C000
C000
E00C
703E
7FFC
3FF8
0FE0
ENDCHAR
STARTCHAR 0686
ENCODING 1670
SWIDTH 600 0
DWIDTH 15 0
BBX 15 20 1 -8
BITMAP
3FF0
7FFC
7FFC
601C
60FC
03F8
0FC0
3E00
7800
6EC0
CFC0
CEC0
C300
C300
C300
E00C
703E
7FFC
3FF8
0FE0
ENDCHAR
STARTCHAR 0687
ENCODING 1671
SWIDTH 600 0
DWIDTH 15 0
BBX 15 20 1 -8
BITMAP
3FF0
7FFC
7FFC
600C
607C
03F0
0FC0
3E00
7EC0
6FC0
CEC0
C000
CEC0
CFC0
CEC0
E00C
703E
7FFC
3FF8
0FE0
ENDCHAR
STARTCHAR 0688
ENCODING 1672
SWIDTH 480 0
DWIDTH 12 0
BBX 10 21 1 0
BITMAP
3000
3000
3E00
3F00
3100
7F00
7E00
0000
0C00
1C00
1E00
0F00
0780
03C0
01C0
00C0
C0C0
C0C0
FFC0
FF80
7F00
ENDCHAR
STARTCHAR 0689
ENCODING 1673
SWIDTH 480 0
DWIDTH 12 0
BBX 10 17 1 -4
BITMAP
0C00
1C00
1E00
0F00
0780
03C0
01C0
00C0
C0C0
C0C0
FFC0
FF80
7F00
1300
1300
1F00
0E00
ENDCHAR
STARTCHAR 068A
ENCODING 1674
SWIDTH 480 0
DWIDTH 12 0
BBX 10 18 1 -5
BITMAP
0C00
1C00
1E00
0F00
0780
03C0
01C0
00C0
C0C0
C0C0
FFC0
FF80
7F00
0000
0000
0C00
0C00
0C00
ENDCHAR
STARTCHAR 068B
ENCODING 1675
SWIDTH 480 0
DWIDTH 12 0
BBX 10 26 1 -5
BITMAP
3000
3000
3E00
3F00
3100
7F00
7E00
0000
0C00
1C00
1E00
0F00
0780
03C0
01C0
00C0
C0C0
C0C0
FFC0
FF80
7F00
0000
0000
0C00
0C00
0C00
ENDCHAR
STARTCHAR 068C
ENCODING 1676
SWIDTH 480 0
DWIDTH 12 0
BBX 10 18 1 0
BITMAP
3700
7700
3700
0000
0000
0C00
1C00
1E00
0F00
0780
03C0
01C0
00C0
C0C0
C0C0
FFC0
FF80
7F00
ENDCHAR
STARTCHAR 068D
ENCODING 1677
SWIDTH 480 0
DWIDTH 12 0
BBX 10 18 1 -5
BITMAP
0C00
1C00
1E00
0F00
0780
03C0
01C0
00C0
C0C0
C0C0
FFC0
FF80
7F00
0000
0000
3300
3F00
3300
ENDCHAR
STARTCHAR 068E
ENCODING 1678
SWIDTH 480 0
DWIDTH 12 0
BBX 10 22 1 0
BITMAP
1C00
1C00
0C00
0000
3700
7700
3700
0000
0000
0C00
1C00
1E00
0F00
0780
03C0
01C0
00C0
C0C0
C0C0
FFC0
FF80
7F00
ENDCHAR
STARTCHAR 068F
ENCODING 1679
SWIDTH 480 0
DWIDTH 12 0
BBX 10 22 1 0
BITMAP
3700
7700
3700
0000
1C00
1C00
0C00
0000
0000
0C00
1C00
1E00
0F00
0780
03C0
01C0
00C0
C0C0
C0C0
FFC0
FF80
7F00
ENDCHAR
STARTCHAR 0690
ENCODING 1680
SWIDTH 480 0
DWIDTH 12 0
BBX 10 22 1 0
BITMAP
3700
7700
3700
0000
3700
7700
3700
0000
0000
0C00
1C00
1E00
0F00
0780
03C0
01C0
00C0
C0C0
C0C0
FFC0
FF80
7F00
ENDCHAR
STARTCHAR 0691
ENCODING 1681
SWIDTH 280 0
DWIDTH 7 0
BBX 9 22 -2 -6
BITMAP
0800
0800
0F00
0F80
0880
1F80
1F00
0000
0600
0700
0700
0300
0300
0300
0300
0300
0300
0700
0E00
FE00
FC00
F000
ENDCHAR
STARTCHAR 0692
ENCODING 1682
SWIDTH 280 0
DWIDTH 7 0
BBX 9 20 -2 -6
BITMAP
1980
1900
0F00
0F00
0E00
0000
0600
0700
0700
0300
0300
0300
0300
0300
0300
0700
0E00
FE00
FC00
F000
ENDCHAR
STARTCHAR 0693
ENCODING 1683
SWIDTH 280 0
DWIDTH 7 0
BBX 8 18 -2 -10
BITMAP
06
07
07
03
03
03
03
03
03
07
0E
FE
FC
FE
26
26
3E
1C
ENDCHAR
STARTCHAR 0694
ENCODING 1684
SWIDTH 280 0
DWIDTH 7 0
BBX 8 19 -2 -11
BITMAP
06
07
07
03
03
03
03
03
03
07
0E
FE
FC
F0
00
00
30
70
30
ENDCHAR
STARTCHAR 0695
ENCODING 1685
SWIDTH 280 0
DWIDTH 7 0
BBX 8 21 -2 -13
BITMAP
06
07
07
03
03
03
03
03
03
07
0E
FE
FC
F0
00
00
CC
C8
78
78
30
ENDCHAR
STARTCHAR 0696
ENCODING 1686
SWIDTH 280 0
DWIDTH 7 0
BBX 8 24 -2 -11
BITMAP
06
0E
06
00
00
06
07
07
03
03
03
03
03
03
07
0E
FE
FC
F0
00
00
30
70
30
ENDCHAR
STARTCHAR 0697
ENCODING 1687
SWIDTH 280 0
DWIDTH 7 0
BBX 9 19 -2 -6
BITMAP
1B80
1B80
1B80
0000
0000
0600
0700
0700
0300
0300
0300
0300
0300
0300
0700
0E00
FE00
FC00
F000
ENDCHAR
STARTCHAR 0698
ENCODING 1688
SWIDTH 280 0
DWIDTH 7 0
BBX 9 23 -2 -6
BITMAP
0600
0E00
0600
0000
1B80
1F80
1B80
0000
0000
0600
0700
0700
0300
0300
0300
0300
0300
0300
0700
0E00
FE00
FC00
F000
ENDCHAR
STARTCHAR 0699
ENCODING 1689
SWIDTH 280 0
DWIDTH 7 0
BBX 9 23 -2 -6
BITMAP
1B80
1F80
1B80
0000
1B80
1F80
1B80
0000
0000
0600
0700
0700
0300
0300
0300
0300
0300
0300
0700
0E00
FE00
FC00
F000
ENDCHAR
STARTCHAR 069A
ENCODING 1690
SWIDTH 1120 0
DWIDTH 28 0
BBX 26 18 1 -6
BITMAP
00001800
00003800
00001800
00000000
000000C0
000C18C0
000C18C0
600C18C0
600C38C0
C00FFFC0
C007EFC0
C007C780
C00E0000
E00C0000
F01C1800
7FFC3800
3FF81800
0FE00000
ENDCHAR
STARTCHAR 069B
ENCODING 1691
SWIDTH 1120 0
DWIDTH 28 0
BBX 26 24 1 -16
BITMAP
000000C0
000C18C0
000C18C0
600C18C0
600C38C0
C00FFFC0
C007EFC0
C007C780
C00E0000
E00C0000
F01C0000
7FFC0000
3FF80000
0FE00000
00000000
00000000
00000000
06E00000
0EE00000
06E00000
00000000
03800000
03800000
03800000
ENDCHAR
STARTCHAR 069C
ENCODING 1692
SWIDTH 1120 0
DWIDTH 28 0
BBX 26 32 1 -16
BITMAP
00001800
00003800
00001800
00000000
00006E00
00007E00
00006600
00000000
000000C0
000C18C0
000C18C0
600C18C0
600C38C0
C00FFFC0
C007EFC0
C007C780
C00E0000
E00C0000
F01C0000
7FFC0000
3FF80000
0FE00000
00000000
00000000
00000000
06E00000
0EE00000
06E00000
00000000
03800000
03800000
03800000
ENDCHAR
STARTCHAR 069D
ENCODING 1693
SWIDTH 1280 0
DWIDTH 32 0
BBX 30 22 1 -11
BITMAP
000007E0
00000FF0
00001FF8
0000381C
000C600C
600CC00C
600EC00C
C007801C
C007FFF8
C007FFF8
C007FFE0
C0060000
E00E0000
701C0000
7FFC0000
3FF80000
0FE00000
00000000
00000000
0EC00000
0EC00000
0EC00000
ENDCHAR
STARTCHAR 069E
ENCODING 1694
SWIDTH 1280 0
DWIDTH 32 0
BBX 30 26 1 -6
BITMAP
00000380
00000380
00000380
00000000
000006E0
00000EE0
000006E0
00000000
00000000
000007E0
00000FF0
00001FF8
0000381C
000C600C
600CC00C
600EC00C
C007801C
C007FFF8
C007FFF8
C007FFE0
C0060000
E00E0000
701C0000
7FFC0000
3FF80000
0FE00000
ENDCHAR
STARTCHAR 069F
ENCODING 1695
SWIDTH 760 0
DWIDTH 19 0
BBX 17 20 1 0
BITMAP
003000
1C3800
1C3000
1C0000
1CEC00
1CFC00
1CEC00
1C0000
1C0000
1C7E00
19FF00
1BFF80
1F0380
1E0180
1C0180
180180
180380
FFFF80
FFFF00
FFFC00
ENDCHAR
STARTCHAR 06A0
ENCODING 1696
SWIDTH 600 0
DWIDTH 15 0
BBX 15 33 1 -8
BITMAP
0300
0300
0300
0000
0CC0
0FC0
0CC0
0000
0000
0780
0FE0
1FF0
3860
3040
3000
3000
3000
3808
1FF8
0FF8
07F0
1E00
3800
6000
E000
C000
C000
C000
E00C
783E
7FFC
3FF8
0FE0
ENDCHAR
STARTCHAR 06A1
ENCODING 1697
SWIDTH 920 0
DWIDTH 23 0
BBX 21 14 1 0
BITMAP
0003C0
0007E0
000FF0
000C30
601818
601C18
C01FF8
C00FD8
C007D8
C00038
F00070
7FFFF0
3FFFE0
0FFF00
ENDCHAR
STARTCHAR 06A3
ENCODING 1699
SWIDTH 920 0
DWIDTH 23 0
BBX 21 26 1 -6
BITMAP
000180
0001C0
000180
000000
000000
000000
0003C0
0007E0
000FF0
000C30
601818
601C18
C01FF8
C00FD8
C007D8
C00038
F00070
7FFFF0
3FFFE0
0FFF00
000000
000000
000000
00E000
00E000
00E000
ENDCHAR
STARTCHAR 06A4
ENCODING 1700
SWIDTH 920 0
DWIDTH 23 0
BBX 21 24 1 0
BITMAP
000180
0001C0
000180
000000
000760
0007E0
000760
000000
000000
000000
0003C0
0007E0
000FF0
000C30
601818
601C18
C01FF8
C00FD8
C007D8
C00038
F00070
7FFFF0
3FFFE0
0FFF00
ENDCHAR
STARTCHAR 06A5
ENCODING 1701
SWIDTH 920 0
DWIDTH 23 0
BBX 21 24 1 -10
BITMAP
0003C0
0007E0
000FF0
000C30
601818
601C18
C01FF8
C00FD8
C007D8
C00038
F00070
7FFFF0
3FFFE0
0FFF00
000000
000000
000000
01B800
03B800
01B800
000000
00E000
00E000
00E000
ENDCHAR
STARTCHAR 06A6
ENCODING 1702
SWIDTH 920 0
DWIDTH 23 0
BBX 21 24 1 0
BITMAP
000760
0007E0
000760
000000
000760
0007E0
000760
000000
000000
000000
0003C0
0007E0
000FF0
000C30
601818
601C18
C01FF8
C00FD8
C007D8
C00038
F00070
7FFFF0
3FFFE0
0FFF00
ENDCHAR
STARTCHAR 06A7
ENCODING 1703
SWIDTH 720 0
DWIDTH 18 0
BBX 16 21 1 -6
BITMAP
0038
0038
0038
0000
0000
0078
00FE
01FE
01C7
6183
6183
C183
C1FF
C1FF
C07B
C003
E007
700E
7FFE
3FFC
0FF0
ENDCHAR
STARTCHAR 06A8
ENCODING 1704
SWIDTH 720 0
DWIDTH 18 0
BBX 16 25 1 -6
BITMAP
0038
0038
0038
0000
00EC
00EE
00EC
0000
0000
0078
00FE
01FE
01C7
6183
6183
C183
C1FF
C1FF
C07B
C003
E007
700E
7FFE
3FFC
0FF0
ENDCHAR
STARTCHAR 06A9
ENCODING 1705
SWIDTH 880 0
DWIDTH 22 0
BBX 24 19 1 0
BITMAP
000003
00000F
00007F
0001FC
000FF0
000F80
000C00
000C00
000E00
600F00
6007C0
C003E0
C000E0
C00060
C00060
F00060
7FFFE0
3FFFC0
0FFE00
ENDCHAR
STARTCHAR 06AA
ENCODING 1706
SWIDTH 960 0
DWIDTH 24 0
BBX 22 19 1 0
BITMAP
000800
001800
007800
01F800
07E000
0F8000
3E0000
380000
200000
3FFFE0
3FFFF0
3FFFF8
000038
00001C
00000C
00000C
FFFFF8
FFFFF8
FFFFF0
ENDCHAR
STARTCHAR 06AB
ENCODING 1707
SWIDTH 880 0
DWIDTH 22 0
BBX 24 19 1 0
BITMAP
000003
00000F
00007F
0001FC
000FF8
000FCC
000C4C
000C78
000E38
600F00
6007C0
C003E0
C000E0
C00060
C00060
F00060
7FFFE0
3FFFC0
0FFE00
ENDCHAR
STARTCHAR 06AC
ENCODING 1708
SWIDTH 760 0
DWIDTH 19 0
BBX 17 19 1 0
BITMAP
018380
018380
018380
000380
000380
00C380
038380
030380
03C380
03E380
00C380
03C380
070380
000380
000300
000700
FFFF00
FFFE00
FFFC00
ENDCHAR
STARTCHAR 06AD
ENCODING 1709
SWIDTH 760 0
DWIDTH 19 0
BBX 17 23 1 0
BITMAP
018000
018000
018000
000000
066380
07E380
066380
000380
000380
00C380
038380
030380
03C380
03E380
00C380
03C380
070380
000380
000300
000700
FFFF00
FFFE00
FFFC00
ENDCHAR
STARTCHAR 06AE
ENCODING 1710
SWIDTH 760 0
DWIDTH 19 0
BBX 17 29 1 -10
BITMAP
000380
000380
000380
000380
000380
00C380
038380
030380
03C380
03E380
00C380
03C380
070380
000380
000300
000700
FFFF00
FFFE00
FFFC00
000000
000000
000000
06E000
07E000
06E000
000000
018000
038000
018000
ENDCHAR
STARTCHAR 06AF
ENCODING 1711
SWIDTH 880 0
DWIDTH 22 0
BBX 24 22 1 0
BITMAP
000001
00000F
000038
0001E3
00070F
000C7F
0001FC
000FF0
000F80
000C00
000C00
000E00
600F00
6007C0
C003E0
C000E0
C00060
C00060
F00060
7FFFE0
3FFFC0
0FFE00
ENDCHAR
STARTCHAR 06B0
ENCODING 1712
SWIDTH 880 0
DWIDTH 22 0
BBX 24 22 1 0
BITMAP
000001
00000F
000038
0001E3
00070F
000C7F
0001FC
000FF8
000FCC
000C4C
000C78
000E38
600F00
6007C0
C003E0
C000E0
C00060
C00060
F00060
7FFFE0
3FFFC0
0FFE00
ENDCHAR
STARTCHAR 06B1
ENCODING 1713
SWIDTH 880 0
DWIDTH 22 0
BBX 24 24 1 0
BITMAP
007600
007600
007601
00000F
000038
0001E3
00070F
000C7F
0001FC
000FF0
000F80
000C00
000C00
000E00
600F00
6007C0
C003E0
C000E0
C00060
C00060
F00060
7FFFE0
3FFFC0
0FFE00
ENDCHAR
STARTCHAR 06B2
ENCODING 1714
SWIDTH 880 0
DWIDTH 22 0
BBX 24 27 1 -5
BITMAP
000001
00000F
000038
0001E3
00070F
000C7F
0001FC
000FF0
000F80
000C00
000C00
000E00
600F00
6007C0
C003E0
C000E0
C00060
C00060
F00060
7FFFE0
3FFFC0
0FFE00
000000
000000
01B800
03B800
01B800
ENDCHAR
STARTCHAR 06B3
ENCODING 1715
SWIDTH 880 0
DWIDTH 22 0
BBX 24 31 1 -9
BITMAP
000001
00000F
000038
0001E3
00070F
000C7F
0001FC
000FF0
000F80
000C00
000C00
000E00
600F00
6007C0
C003E0
C000E0
C00060
C00060
F00060
7FFFE0
3FFFC0
0FFE00
000000
000000
00E000
00E000
00E000
000000
00E000
00E000
00E000
ENDCHAR
STARTCHAR 06B4
ENCODING 1716
SWIDTH 880 0
DWIDTH 22 0
BBX 24 28 1 0
BITMAP
001800
001C00
001800
000000
007600
007600
007601
00000F
000038
0001E3
00070F
000C7F
0001FC
000FF0
000F80
000C00
000C00
000E00
600F00
6007C0
C003E0
C000E0
C00060
C00060
F00060
7FFFE0
3FFFC0
0FFE00
ENDCHAR
STARTCHAR 06B5
ENCODING 1717
SWIDTH 680 0
DWIDTH 17 0
BBX 14 26 1 -6
BITMAP
1980
190C
0F0C
0F0C
060C
000C
000C
000C
000C
000C
000C
000C
000C
000C
600C
600C
C00C
C00C
C00C
C01C
C01C
E018
7038
7FF8
3FF0
0FC0
ENDCHAR
STARTCHAR 06B6
ENCODING 1718
SWIDTH 680 0
DWIDTH 17 0
BBX 14 25 1 -6
BITMAP
000C
060C
0E0C
060C
000C
000C
000C
000C
000C
000C
000C
000C
000C
600C
600C
C00C
C00C
C00C
C01C
C01C
E018
7038
7FF8
3FF0
0FC0
ENDCHAR
STARTCHAR 06B7
ENCODING 1719
SWIDTH 680 0
DWIDTH 17 0
BBX 14 28 1 -6
BITMAP
0600
0600
0600
000C
198C
1F8C
198C
000C
000C
000C
000C
000C
000C
000C
000C
000C
600C
600C
C00C
C00C
C00C
C01C
C01C
E018
7038
7FF8
3FF0
0FC0
ENDCHAR
STARTCHAR 06B8
ENCODING 1720
SWIDTH 680 0
DWIDTH 17 0
BBX 14 35 1 -16
BITMAP
000C
000C
000C
000C
000C
000C
000C
000C
000C
000C
000C
000C
000C
600C
600C
C00C
C00C
C00C
C01C
C01C
E018
7038
7FF8
3FF0
0FC0
0000
0000
0000
0DC0
1DC0
0DC0
0000
0300
0700
0300
ENDCHAR
STARTCHAR 06B9
ENCODING 1721
SWIDTH 680 0
DWIDTH 17 0
BBX 15 21 1 -9
BITMAP
0380
0380
038C
000C
600C
600E
C006
C006
C006
C006
C006
E00E
701C
7FFC
3FF8
0FE0
0000
0000
0300
0380
0300
ENDCHAR
STARTCHAR 06BA
ENCODING 1722
SWIDTH 680 0
DWIDTH 17 0
BBX 15 14 1 -4
BITMAP
000C
000C
600C
600E
C006
C006
C006
C006
C006
E00E
701C
7FFC
3FF8
0FE0
ENDCHAR
STARTCHAR 06BB
ENCODING 1723
SWIDTH 680 0
DWIDTH 17 0
BBX 15 20 1 -4
BITMAP
0600
0600
07C0
07C0
0660
0FE0
0FCC
000C
600C
600E
C006
C006
C006
C006
C006
E00E
701C
7FFC
3FF8
0FE0
ENDCHAR
STARTCHAR 06BC
ENCODING 1724
SWIDTH 680 0
DWIDTH 17 0
BBX 15 20 1 -8
BITMAP
0380
0380
038C
000C
600C
600E
C006
C006
C006
C006
C006
E00E
701C
7FFC
3FF8
0FE0
04C0
04C0
07C0
0380
ENDCHAR
STARTCHAR 06BD
ENCODING 1725
SWIDTH 680 0
DWIDTH 17 0
BBX 15 20 1 -4
BITMAP
0380
0380
0380
0000
06C0
0EE0
06CC
000C
600C
600E
C006
C006
C006
C006
C006
E00E
701C
7FFC
3FF8
0FE0
ENDCHAR
STARTCHAR 06BE
ENCODING 1726
SWIDTH 720 0
DWIDTH 18 0
BBX 16 14 1 0
BITMAP
0200
0380
0FC0
1FF0
3FF8
38FC
307E
306E
30E6
38C7
1F83
FFFE
FDFE
F0FC
ENDCHAR
STARTCHAR 06BF
ENCODING 1727
SWIDTH 600 0
DWIDTH 15 0
BBX 15 25 1 -8
BITMAP
0300
0700
0300
0000
0000
3FF0
7FFC
7FFC
600C
607C
03F0
0FC0
3E00
7000
6EC0
CFC0
CEC0
C300
C300
C300
E00C
703E
7FFC
3FF8
0FE0
ENDCHAR
STARTCHAR 06C0
ENCODING 1728
SWIDTH 440 0
DWIDTH 11 0
BBX 10 19 1 0
BITMAP
1E00
1E00
1400
1000
3F00
3F00
0000
0000
1E00
3F00
7F00
7780
E380
C180
C1C0
E180
FF80
7F00
3E00
ENDCHAR
STARTCHAR 06C1
ENCODING 1729
SWIDTH 440 0
DWIDTH 11 0
BBX 10 11 1 0
BITMAP
1E00
3F00
7F00
7780
E380
C180
C1C0
E180
FF80
7F00
3E00
ENDCHAR
STARTCHAR 06C2
ENCODING 1730
SWIDTH 440 0
DWIDTH 11 0
BBX 10 19 1 0
BITMAP
1E00
1E00
1400
1000
3F00
3F00
0000
0000
1E00
3F00
7F00
7780
E380
C180
C1C0
E180
FF80
7F00
3E00
ENDCHAR
STARTCHAR 06C3
ENCODING 1731
SWIDTH 440 0
DWIDTH 11 0
BBX 10 16 1 0
BITMAP
3700
3700
3700
0000
0000
1E00
3F00
7F00
7780
E380
C180
C1C0
E180
FF80
7F00
3E00
ENDCHAR
STARTCHAR 06C4
ENCODING 1732
SWIDTH 480 0
DWIDTH 12 0
BBX 10 16 1 -6
BITMAP
1E00
3F00
7F80
E380
C180
C1C0
E1C0
FFC0
7EC0
3D80
7980
4B80
4F00
FF00
FE00
F800
ENDCHAR
STARTCHAR 06C5
ENCODING 1733
SWIDTH 480 0
DWIDTH 12 0
BBX 10 16 1 -6
BITMAP
1E00
3F00
7F80
E380
C180
C1C0
E1C0
FFC0
7EC0
3D80
0180
FF80
0700
FF00
FE00
F800
ENDCHAR
STARTCHAR 06C6
ENCODING 1734
SWIDTH 480 0
DWIDTH 12 0
BBX 10 23 1 -6
BITMAP
3300
3200
1E00
1E00
1C00
0000
0000
1E00
3F00
7F80
E380
C180
C1C0
E1C0
FFC0
7EC0
3D80
0180
0380
0700
FF00
FE00
F800
ENDCHAR
STARTCHAR 06C7
ENCODING 1735
SWIDTH 480 0
DWIDTH 12 0
BBX 10 25 1 -6
BITMAP
0E00
1F00
1B00
1B00
0E00
1C00
7000
4000
0000
1E00
3F00
7F80
E380
C180
C1C0
E1C0
FFC0
7EC0
3D80
0180
0380
0700
FF00
FE00
F800
ENDCHAR
STARTCHAR 06C8
ENCODING 1736
SWIDTH 480 0
DWIDTH 12 0
BBX 10 22 1 -6
BITMAP
0C00
0C00
0C00
0C00
0000
0000
1E00
3F00
7F80
E380
C180
C1C0
E1C0
FFC0
7EC0
3D80
0180
0380
0700
FF00
FE00
F800
ENDCHAR
STARTCHAR 06C9
ENCODING 1737
SWIDTH 480 0
DWIDTH 12 0
BBX 10 23 1 -6
BITMAP
1C00
1E00
1600
3600
3300
0000
0000
1E00
3F00
7F80
E380
C180
C1C0
E1C0
FFC0
7EC0
3D80
0180
0380
0700
FF00
FE00
F800
ENDCHAR
STARTCHAR 06CA
ENCODING 1738
SWIDTH 480 0
DWIDTH 12 0
BBX 10 21 1 -6
BITMAP
3700
3700
3700
0000
0000
1E00
3F00
7F80
E380
C180
C1C0
E1C0
FFC0
7EC0
3D80
0180
0380
0700
FF00
FE00
F800
ENDCHAR
STARTCHAR 06CB
ENCODING 1739
SWIDTH 480 0
DWIDTH 12 0
BBX 10 25 1 -6
BITMAP
0C00
1C00
0C00
0000
3700
3F00
3700
0000
0000
1E00
3F00
7F80
E380
C180
C1C0
E1C0
FFC0
7EC0
3D80
0180
0380
0700
FF00
FE00
F800
ENDCHAR
STARTCHAR 06CC
ENCODING 1740
SWIDTH 760 0
DWIDTH 19 0
BBX 17 19 1 -6
BITMAP
003E00
007F00
00FF80
00C300
018200
018000
018000
618000
61F000
C1FF00
C07F80
C00F80
C00180
C00180
E00380
700F00
7FFE00
3FFC00
0FF000
ENDCHAR
STARTCHAR 06CD
ENCODING 1741
SWIDTH 760 0
DWIDTH 19 0
BBX 20 19 -2 -6
BITMAP
0007C0
000FE0
001FF0
001860
003040
003000
FC3000
FC3000
0C3E00
183FE0
180FF0
1801F0
180030
180030
1C0070
0E01E0
0FFFC0
07FF80
01FE00
ENDCHAR
STARTCHAR 06CE
ENCODING 1742
SWIDTH 760 0
DWIDTH 19 0
BBX 18 19 0 -6
BITMAP
001F00
CC3F80
6C7FC0
686180
78C100
30C000
00C000
30C000
30F800
60FF80
603FC0
6007C0
6000C0
6000C0
7001C0
380780
3FFF00
1FFE00
07F800
ENDCHAR
STARTCHAR 06CF
ENCODING 1743
SWIDTH 480 0
DWIDTH 12 0
BBX 10 21 1 -6
BITMAP
0C00
1C00
0C00
0000
0000
1E00
3F00
7F80
E380
C180
C1C0
E1C0
FFC0
7EC0
3D80
0180
0380
0700
FF00
FE00
F800
ENDCHAR
STARTCHAR 06D0
ENCODING 1744
SWIDTH 760 0
DWIDTH 19 0
BBX 17 28 1 -15
BITMAP
003E00
007F00
00FF80
00C300
018200
018000
018000
618000
61F000
C1FF00
C07F80
C00F80
C00180
C00180
E00380
700F00
7FFE00
3FFC00
0FF000
000000
000000
018000
018000
018000
000000
018000
018000
018000
ENDCHAR
STARTCHAR 06D1
ENCODING 1745
SWIDTH 760 0
DWIDTH 19 0
BBX 17 29 1 -16
BITMAP
003E00
007F00
00FF80
00C300
018200
018000
018000
618000
61F000
C1FF00
C07F80
C00F80
C00180
C00180
E00380
700F00
7FFE00
3FFC00
0FF000
000000
000000
000000
06E000
07E000
066000
000000
018000
038000
018000
ENDCHAR
STARTCHAR 06D2
ENCODING 1746
SWIDTH 760 0
DWIDTH 19 0
BBX 17 11 1 0
BITMAP
018000
038000
0F8000
3F0000
7C0000
E00000
C00000
C00000
FFFF80
FFFF80
3FFF80
ENDCHAR
STARTCHAR 06D3
ENCODING 1747
SWIDTH 760 0
DWIDTH 19 0
BBX 17 19 1 0
BITMAP
01C000
03E000
024000
020000
07E000
07E000
000000
000000
018000
038000
0F8000
3F0000
7C0000
E00000
C00000
C00000
FFFF80
FFFF80
3FFF80
ENDCHAR
STARTCHAR 06D4
ENCODING 1748
SWIDTH 320 0
DWIDTH 8 0
BBX 7 4 0 0
BITMAP
40
7E
FE
3E
ENDCHAR
STARTCHAR 06D5
ENCODING 1749
SWIDTH 440 0
DWIDTH 11 0
BBX 10 11 1 0
BITMAP
1E00
3F00
7F00
7780
E380
C180
C1C0
E180
FF80
7F00
3E00
ENDCHAR
STARTCHAR 06D6
ENCODING 1750
SWIDTH 0 0
DWIDTH 0 0
BBX 14 10 0 7
BITMAP
0800
0800
0838
087C
0944
3FFC
76F8
C000
FFFC
7FFC
ENDCHAR
STARTCHAR 06D7
ENCODING 1751
SWIDTH 0 0
DWIDTH 0 0
BBX 10 14 0 7
BITMAP
01C0
03C0
0000
0180
0BC0
0A40
0BC0
09C0
0840
3FC0
7780
C000
FFC0
7FC0
ENDCHAR
STARTCHAR 06D8
ENCODING 1752
SWIDTH 0 0
DWIDTH 0 0
BBX 7 5 -1 9
BITMAP
0E
0E
1A
7E
E6
ENDCHAR
STARTCHAR 06D9
ENCODING 1753
SWIDTH 0 0
DWIDTH 0 0
BBX 5 8 0 9
BITMAP
18
98
D0
70
30
58
F8
F0
ENDCHAR
STARTCHAR 06DA
ENCODING 1754
SWIDTH 0 0
DWIDTH 0 0
BBX 6 8 0 6
BITMAP
7C
FC
F8
70
B0
C4
FC
78
ENDCHAR
STARTCHAR 06DB
ENCODING 1755
SWIDTH 0 0
DWIDTH 0 0
BBX 7 7 0 9
BITMAP
38
38
38
00
6C
EE
6C
ENDCHAR
STARTCHAR 06DC
ENCODING 1756
SWIDTH 0 0
DWIDTH 0 0
BBX 11 6 0 7
BITMAP
0060
44A0
47E0
C6C0
7C00
7800
ENDCHAR
STARTCHAR 06DD
ENCODING 1757
SWIDTH 1120 0
DWIDTH 28 0
BBX 26 26 1 -6
BITMAP
003F8000
01FFE000
07FFF800
0F807C00
1E0C0E00
180E0700
300C0300
70000180
60000180
60000180
600000C0
C00000C0
C00000C0
C00000C0
C00000C0
600000C0
60000180
60000180
70000180
300C0300
180E0700
1E0C0E00
0F807C00
07FFF800
01FFE000
007F8000
ENDCHAR
STARTCHAR 06DE
ENCODING 1758
SWIDTH 1080 0
DWIDTH 27 0
BBX 25 25 1 -5
BITMAP
00080000
000C0000
001E0000
00330000
0FFFFC00
0FFFFC00
09806C00
0B003C00
0E001C00
0C000C00
181C0E00
383E0F00
68220D80
E8320F80
383E0F00
18080E00
0C001C00
0E003C00
0B007C00
0980EC00
0FFFFC00
0FFFFC00
00370000
001E0000
000C0000
ENDCHAR
STARTCHAR 06DF
ENCODING 1759
SWIDTH 0 0
DWIDTH 0 0
BBX 6 6 0 9
BITMAP
78
78
CC
CC
78
78
ENDCHAR
STARTCHAR 06E0
ENCODING 1760
SWIDTH 0 0
DWIDTH 0 0
BBX 6 7 0 9
BITMAP
78
78
CC
CC
CC
78
78
ENDCHAR
STARTCHAR 06E1
ENCODING 1761
SWIDTH 0 0
DWIDTH 0 0
BBX 6 6 0 9
BITMAP
60
78
5C
0C
FC
F0
ENDCHAR
STARTCHAR 06E2
ENCODING 1762
SWIDTH 0 0
DWIDTH 0 0
BBX 6 8 0 7
BITMAP
38
38
6C
7C
FC
C0
C0
C0
ENDCHAR
STARTCHAR 06E3
ENCODING 1763
SWIDTH 0 0
DWIDTH 0 0
BBX 11 6 0 7
BITMAP
0060
44A0
47E0
C6C0
7C00
7800
ENDCHAR
STARTCHAR 06E4
ENCODING 1764
SWIDTH 0 0
DWIDTH 0 0
BBX 9 3 0 9
BITMAP
7100
FF80
DF00
ENDCHAR
STARTCHAR 06E5
ENCODING 1765
SWIDTH 240 0
DWIDTH 6 0
BBX 6 9 0 11
BITMAP
38
78
4C
C4
7C
74
0C
F8
F0
ENDCHAR
STARTCHAR 06E6
ENCODING 1766
SWIDTH 320 0
DWIDTH 8 0
BBX 8 6 0 9
BITMAP
10
30
60
C0
FF
7F
ENDCHAR
STARTCHAR 06E7
ENCODING 1767
SWIDTH 0 0
DWIDTH 0 0
BBX 8 6 0 9
BITMAP
10
30
60
C0
FF
7F
ENDCHAR
STARTCHAR 06E8
ENCODING 1768
SWIDTH 0 0
DWIDTH 0 0
BBX 6 8 0 9
BITMAP
30
30
00
C4
C4
C4
FC
78
ENDCHAR
STARTCHAR 06E9
ENCODING 1769
SWIDTH 680 0
DWIDTH 17 0
BBX 14 19 2 0
BITMAP
0200
0500
0F80
1060
7FF0
C008
FFF8
8004
FFF8
7FF0
2020
3FE0
2020
3FE0
2020
3FE0
3FE0
C018
FFF8
ENDCHAR
STARTCHAR 06EA
ENCODING 1770
SWIDTH 0 0
DWIDTH 0 0
BBX 6 6 1 9
BITMAP
20
78
CC
CC
78
20
ENDCHAR
STARTCHAR 06EB
ENCODING 1771
SWIDTH 0 0
DWIDTH 0 0
BBX 6 6 1 9
BITMAP
20
78
CC
CC
78
20
ENDCHAR
STARTCHAR 06EC
ENCODING 1772
SWIDTH 0 0
DWIDTH 0 0
BBX 4 4 2 11
BITMAP
E0
F0
F0
E0
ENDCHAR
STARTCHAR 06ED
ENCODING 1773
SWIDTH 0 0
DWIDTH 0 0
BBX 6 8 0 7
BITMAP
38
38
6C
7C
FC
C0
C0
C0
ENDCHAR
STARTCHAR 06EE
ENCODING 1774
SWIDTH 480 0
DWIDTH 12 0
BBX 10 20 1 0
BITMAP
1C00
1C00
1600
3600
3300
0000
0000
0C00
1C00
1E00
0F00
0780
03C0
01C0
00C0
C0C0
C0C0
FFC0
FF80
7F00
ENDCHAR
STARTCHAR 06EF
ENCODING 1775
SWIDTH 280 0
DWIDTH 7 0
BBX 9 21 -2 -6
BITMAP
0600
0F00
0B00
1B00
1980
0000
0000
0600
0700
0700
0300
0300
0300
0300
0300
0300
0700
0E00
FE00
FC00
F000
ENDCHAR
STARTCHAR 06F0
ENCODING 1776
SWIDTH 280 0
DWIDTH 7 0
BBX 4 3 2 6
BITMAP
E0
F0
E0
ENDCHAR
STARTCHAR 06F1
ENCODING 1777
SWIDTH 280 0
DWIDTH 7 0
BBX 3 15 2 0
BITMAP
C0
C0
C0
C0
C0
C0
C0
E0
E0
E0
E0
E0
60
60
60
ENDCHAR
STARTCHAR 06F2
ENCODING 1778
SWIDTH 480 0
DWIDTH 12 0
BBX 10 15 2 0
BITMAP
C180
C180
C180
C1C0
C180
FF80
FF80
FE00
E000
E000
E000
E000
6000
6000
6000
ENDCHAR
STARTCHAR 06F3
ENCODING 1779
SWIDTH 640 0
DWIDTH 16 0
BBX 13 15 2 0
BITMAP
C038
C318
C318
C318
C718
FFF8
FBF0
F9E0
E000
E000
E000
E000
6000
6000
6000
ENDCHAR
STARTCHAR 06F4
ENCODING 1780
SWIDTH 560 0
DWIDTH 14 0
BBX 11 15 2 0
BITMAP
C3C0
CFE0
CFE0
CC40
CC00
FFE0
FFE0
FFE0
E000
E000
E000
E000
6000
6000
6000
ENDCHAR
STARTCHAR 06F5
ENCODING 1781
SWIDTH 600 0
DWIDTH 15 0
BBX 13 15 1 0
BITMAP
0700
0F80
1FC0
39E0
38E0
7070
6070
E038
C738
C718
C718
E738
FBF0
7BF0
79E0
ENDCHAR
STARTCHAR 06F6
ENCODING 1782
SWIDTH 520 0
DWIDTH 13 0
BBX 12 15 1 0
BITMAP
0F00
3FC0
3FE0
70C0
6000
6000
7020
3FE0
3FF0
0FC0
3E00
7800
7000
E000
E000
ENDCHAR
STARTCHAR 06F7
ENCODING 1783
SWIDTH 520 0
DWIDTH 13 0
BBX 13 15 0 0
BITMAP
E038
7038
7030
7070
3870
3860
3860
18E0
1CC0
1CC0
0DC0
0F80
0F80
0780
0780
ENDCHAR
STARTCHAR 06F8
ENCODING 1784
SWIDTH 520 0
DWIDTH 13 0
BBX 13 15 0 0
BITMAP
0780
0780
0F80
0D80
0DC0
1DC0
18C0
18E0
38E0
3860
3070
7070
7070
6038
E038
ENDCHAR
STARTCHAR 06F9
ENCODING 1785
SWIDTH 520 0
DWIDTH 13 0
BBX 10 15 1 0
BITMAP
1E00
7F00
7F80
E380
C1C0
C1C0
E1C0
FFC0
7EC0
3CC0
00C0
00C0
00C0
00C0
00C0
ENDCHAR
STARTCHAR 06FA
ENCODING 1786
SWIDTH 1120 0
DWIDTH 28 0
BBX 26 27 1 -11
BITMAP
00001800
00003800
00001800
00000000
00006E00
00007E00
00006600
00000000
000000C0
000C18C0
000C18C0
600C18C0
600C38C0
C00FFFC0
C007EFC0
C007C780
C00E0000
E00C0000
F01C0000
7FFC0000
3FF80000
0FE00000
00000000
00000000
03800000
03800000
03800000
ENDCHAR
STARTCHAR 06FB
ENCODING 1787
SWIDTH 1280 0
DWIDTH 32 0
BBX 30 27 1 -11
BITMAP
00000380
00000380
00000380
00000000
00000000
000007E0
00000FF0
00001FF8
0000381C
000C600C
600CC00C
600EC00C
C007801C
C007FFF8
C007FFF8
C007FFE0
C0060000
E00E0000
701C0000
7FFC0000
3FF80000
0FE00000
00000000
00000000
03000000
03800000
03000000
ENDCHAR
STARTCHAR 06FC
ENCODING 1788
SWIDTH 600 0
DWIDTH 15 0
BBX 15 29 1 -8
BITMAP
0300
0300
0300
0000
0000
0780
0FE0
1FF0
3860
3040
3000
3000
3000
3808
1FF8
0FF8
07F0
1E00
3800
6000
E380
C380
C380
C000
E00C
783E
7FFC
3FF8
0FE0
ENDCHAR
STARTCHAR 06FD
ENCODING 1789
SWIDTH 400 0
DWIDTH 10 0
BBX 9 14 1 -5
BITMAP
3E00
7F00
7F00
E200
6000
6000
FF80
FF80
FF80
0000
1600
1600
1600
1600
ENDCHAR
STARTCHAR 06FE
ENCODING 1790
SWIDTH 600 0
DWIDTH 15 0
BBX 13 19 1 -8
BITMAP
07C0
0FE0
1FE0
1C70
2830
0030
0030
1FF8
7FF8
7FF8
E000
E000
E680
E680
E680
E680
E000
E000
E000
ENDCHAR
STARTCHAR 06FF
ENCODING 1791
SWIDTH 720 0
DWIDTH 18 0
BBX 16 20 1 0
BITMAP
0700
0700
0F00
0980
1980
0000
0200
0380
0FC0
1FF0
3FF8
38FC
307E
306E
30E6
38C7
1F83
FFFE
FDFE
F0FC
ENDCHAR
STARTCHAR 0750
ENCODING 1872
SWIDTH 840 0
DWIDTH 21 0
BBX 19 15 1 -5
BITMAP
600060
600060
C00060
C00060
C00060
C00060
F000E0
7FFFE0
3FFFC0
0FFF00
000000
000000
06EC00
07EE00
06EC00
ENDCHAR
STARTCHAR 0751
ENCODING 1873
SWIDTH 840 0
DWIDTH 21 0
BBX 19 21 1 -5
BITMAP
00E000
00E000
006000
000000
01B800
03B800
61B860
600060
C00060
C00060
C00060
C00060
F000E0
7FFFE0
3FFFC0
0FFF00
000000
000000
00E000
00E000
00E000
ENDCHAR
STARTCHAR 0752
ENCODING 1874
SWIDTH 840 0
DWIDTH 21 0
BBX 19 20 1 -10
BITMAP
600060
600060
C00060
C00060
C00060
C00060
F000E0
7FFFE0
3FFFC0
0FFF00
000000
000000
000000
00E000
00E000
00E000
000000
01B800
03B800
01B800
ENDCHAR
STARTCHAR 0753
ENCODING 1875
SWIDTH 840 0
DWIDTH 21 0
BBX 19 22 1 -10
BITMAP
01B800
03B800
61B860
600060
C00060
C00060
C00060
C00060
F000E0
7FFFE0
3FFFC0
0FFF00
000000
000000
000000
00E000
00E000
00E000
000000
01B800
03B800
01B800
ENDCHAR
STARTCHAR 0754
ENCODING 1876
SWIDTH 840 0
DWIDTH 21 0
BBX 19 17 1 -5
BITMAP
00E000
00E000
60E060
600060
C00060
C00060
C00060
C00060
F000E0
7FFFE0
3FFFC0
0FFF00
000000
000000
01B800
03B800
01B800
ENDCHAR
STARTCHAR 0755
ENCODING 1877
SWIDTH 840 0
DWIDTH 21 0
BBX 19 17 1 -7
BITMAP
600060
600060
C00060
C00060
C00060
C00060
F000E0
7FFFE0
3FFFC0
0FFF00
000000
000000
00E000
00E000
00B000
01B000
019800
ENDCHAR
STARTCHAR 0756
ENCODING 1878
SWIDTH 840 0
DWIDTH 21 0
BBX 19 13 1 0
BITMAP
019800
01B000
00B000
60E060
60E060
C00060
C00060
C00060
C00060
F000E0
7FFFE0
3FFFC0
0FFF00
ENDCHAR
STARTCHAR 0757
ENCODING 1879
SWIDTH 600 0
DWIDTH 15 0
BBX 15 25 1 -8
BITMAP
0DC0
0DC0
0DC0
0000
0000
3FF0
7FFC
7FFC
600C
607C
03F0
0FC0
3E00
7000
6000
C000
C000
C000
C000
C000
E00C
703E
7FFC
3FF8
0FE0
ENDCHAR
STARTCHAR 0758
ENCODING 1880
SWIDTH 600 0
DWIDTH 15 0
BBX 15 20 1 -8
BITMAP
3FF0
7FFC
7FFC
600C
607C
03F0
0FC0
3E00
7300
6300
C300
CEC0
CFC0
CEC0
C000
E00C
703E
7FFC
3FF8
0FE0
ENDCHAR
STARTCHAR 0759
ENCODING 1881
SWIDTH 480 0
DWIDTH 12 0
BBX 10 30 1 -9
BITMAP
3000
3000
3E00
3F00
3100
7F00
7E00
0000
0C00
1C00
1E00
0F00
0780
03C0
01C0
00C0
C0C0
C0C0
FFC0
FF80
7F00
0000
0000
0C00
0C00
0C00
0000
0C00
0C00
0C00
ENDCHAR
STARTCHAR 075A
ENCODING 1882
SWIDTH 480 0
DWIDTH 12 0
BBX 10 20 1 -7
BITMAP
0C00
1C00
1E00
0F00
0780
03C0
01C0
00C0
C0C0
C0C0
FFC0
FF80
7F00
0000
0000
0C00
1E00
1E00
3300
3300
ENDCHAR
STARTCHAR 075B
ENCODING 1883
SWIDTH 280 0
DWIDTH 7 0
BBX 8 14 -2 -6
BITMAP
06
07
07
03
03
03
03
03
FF
FF
0E
FE
FC
F0
ENDCHAR
STARTCHAR 075C
ENCODING 1884
SWIDTH 1120 0
DWIDTH 28 0
BBX 26 22 1 -6
BITMAP
00006E00
00007E00
00006600
00000000
00006E00
00007E00
00006600
00000000
000000C0
000C18C0
000C18C0
600C18C0
600C38C0
C00FFFC0
C007EFC0
C007C780
C00E0000
E00C0000
F01C0000
7FFC0000
3FF80000
0FE00000
ENDCHAR
STARTCHAR 075D
ENCODING 1885
SWIDTH 600 0
DWIDTH 15 0
BBX 15 29 1 -8
BITMAP
0CC0
0FC0
0CC0
0000
0000
0780
0FE0
1FF0
3860
3040
3000
3000
3000
3808
1FF8
0FF8
07F0
1E00
3800
6000
E000
C000
C000
C000
E00C
783E
7FFC
3FF8
0FE0
ENDCHAR
STARTCHAR 075E
ENCODING 1886
SWIDTH 600 0
DWIDTH 15 0
BBX 15 33 1 -8
BITMAP
0CC0
0FC0
0CC0
0000
0300
0300
0300
0000
0000
0780
0FE0
1FF0
3860
3040
3000
3000
3000
3808
1FF8
0FF8
07F0
1E00
3800
6000
E000
C000
C000
C000
E00C
783E
7FFC
3FF8
0FE0
ENDCHAR
STARTCHAR 075F
ENCODING 1887
SWIDTH 600 0
DWIDTH 15 0
BBX 15 32 1 -8
BITMAP
0300
0300
0300
0000
0300
0300
0300
0000
0780
0FE0
1FF0
3860
3040
3000
3000
3000
3808
1FF8
0FF8
07F0
1E00
3800
6000
E000
C000
C000
C000
E00C
783E
7FFC
3FF8
0FE0
ENDCHAR
STARTCHAR 0760
ENCODING 1888
SWIDTH 920 0
DWIDTH 23 0
BBX 21 20 1 -6
BITMAP
0003C0
0007E0
000FF0
000C30
601818
601C18
C01FF8
C00FD8
C007D8
C00038
F00070
7FFFF0
3FFFE0
0FFF00
000000
000000
000000
01B800
03B800
01B800
ENDCHAR
STARTCHAR 0761
ENCODING 1889
SWIDTH 920 0
DWIDTH 23 0
BBX 21 24 1 -10
BITMAP
0003C0
0007E0
000FF0
000C30
601818
601C18
C01FF8
C00FD8
C007D8
C00038
F00070
7FFFF0
3FFFE0
0FFF00
000000
000000
000000
00E000
00E000
00E000
000000
01B800
03B800
01B800
ENDCHAR
STARTCHAR 0762
ENCODING 1890
SWIDTH 880 0
DWIDTH 22 0
BBX 24 22 1 0
BITMAP
000380
000380
000380
000003
00000F
00007F
0001FC
000FF0
000F80
000C00
000C00
000E00
600F00
6007C0
C003E0
C000E0
C00060
C00060
F00060
7FFFE0
3FFFC0
0FFE00
ENDCHAR
STARTCHAR 0763
ENCODING 1891
SWIDTH 880 0
DWIDTH 22 0
BBX 24 26 1 0
BITMAP
000380
000380
000380
000000
0006E0
000EE0
0006E0
000003
00000F
00007F
0001FC
000FF0
000F80
000C00
000C00
000E00
600F00
6007C0
C003E0
C000E0
C00060
C00060
F00060
7FFFE0
3FFFC0
0FFE00
ENDCHAR
STARTCHAR 0764
ENCODING 1892
SWIDTH 880 0
DWIDTH 22 0
BBX 24 29 1 -10
BITMAP
000003
00000F
00007F
0001FC
000FF0
000F80
000C00
000C00
000E00
600F00
6007C0
C003E0
C000E0
C00060
C00060
F00060
7FFFE0
3FFFC0
0FFE00
000000
000000
000000
00E000
00E000
00E000
000000
01B800
03B800
01B800
ENDCHAR
STARTCHAR 0765
ENCODING 1893
SWIDTH 600 0
DWIDTH 15 0
BBX 13 24 1 -8
BITMAP
0380
0380
0380
0000
0000
07C0
0FE0
1FE0
1C70
2830
0030
0030
1FF8
7FF8
7FF8
E000
E000
E000
E000
E000
E000
E000
E000
E000
ENDCHAR
STARTCHAR 0766
ENCODING 1894
SWIDTH 600 0
DWIDTH 15 0
BBX 13 19 1 -8
BITMAP
07C0
0FE0
1FE0
1C70
2830
0030
0030
1FF8
7FF8
7FF8
E000
E000
E000
E380
E380
E380
E000
E000
E000
ENDCHAR
STARTCHAR 0767
ENCODING 1895
SWIDTH 680 0
DWIDTH 17 0
BBX 15 21 1 -9
BITMAP
0380
0380
038C
000C
600C
600E
C006
C006
C006
C006
C006
E00E
701C
7FFC
3FF8
0FE0
0000
0000
0EC0
0EC0
0EC0
ENDCHAR
STARTCHAR 0768
ENCODING 1896
SWIDTH 680 0
DWIDTH 17 0
BBX 15 25 1 -4
BITMAP
0600
0600
07C0
07C0
0660
0FE0
0FC0
0000
0000
0380
0380
038C
000C
600C
600E
C006
C006
C006
C006
C006
E00E
701C
7FFC
3FF8
0FE0
ENDCHAR
STARTCHAR 0769
ENCODING 1897
SWIDTH 680 0
DWIDTH 17 0
BBX 15 23 1 -4
BITMAP
0E60
06C0
06C0
0380
0380
0000
0000
0380
0380
038C
000C
600C
600E
C006
C006
C006
C006
C006
E00E
701C
7FFC
3FF8
0FE0
ENDCHAR
STARTCHAR 076A
ENCODING 1898
SWIDTH 680 0
DWIDTH 17 0
BBX 16 25 1 -6
BITMAP
000C
000C
000C
000C
000C
000C
000C
003F
003F
000C
000C
000C
000C
600C
600C
C00C
C00C
C00C
C01C
C01C
E018
7038
7FF8
3FF0
0FC0
ENDCHAR
STARTCHAR 076B
ENCODING 1899
SWIDTH 280 0
DWIDTH 7 0
BBX 8 22 -2 -6
BITMAP
06
0E
06
00
06
0E
06
00
06
07
07
03
03
03
03
03
03
07
0E
FE
FC
F0
ENDCHAR
STARTCHAR 076C
ENCODING 1900
SWIDTH 280 0
DWIDTH 7 0
BBX 9 21 -2 -6
BITMAP
0700
0F00
0A00
0800
1F80
1F80
0000
0600
0700
0700
0300
0300
0300
0300
0300
0300
0700
0E00
FE00
FC00
F000
ENDCHAR
STARTCHAR 076D
ENCODING 1901
SWIDTH 1120 0
DWIDTH 28 0
BBX 26 21 1 -6
BITMAP
00001800
00003800
00001800
00000000
00001800
00003800
00001800
000000C0
000C18C0
000C18C0
600C18C0
600C38C0
C00FFFC0
C007EFC0
C007C780
C00E0000
E00C0000
F01C0000
7FFC0000
3FF80000
0FE00000
ENDCHAR
STARTCHAR 076E
ENCODING 1902
SWIDTH 600 0
DWIDTH 15 0
BBX 15 20 1 -8
BITMAP
3FF0
7FFC
7FFC
600C
607C
03F0
0FC0
3E00
7400
6400
C780
C7C0
C440
CFC0
CF80
E00C
703E
7FFC
3FF8
0FE0
ENDCHAR
STARTCHAR 076F
ENCODING 1903
SWIDTH 600 0
DWIDTH 15 0
BBX 15 34 1 -8
BITMAP
0400
0400
0780
07C0
0440
0FC0
0F80
0000
0000
0DC0
0DC0
0DC0
0000
0000
3FF0
7FFC
7FFC
600C
607C
03F0
0FC0
3E00
7000
6000
C000
C000
C000
C000
C000
E00C
703E
7FFC
3FF8
0FE0
ENDCHAR
STARTCHAR 0770
ENCODING 1904
SWIDTH 1120 0
DWIDTH 28 0
BBX 26 27 1 -6
BITMAP
00002000
00002000
00003C00
00003E00
00002200
00007E00
00007C00
00000000
00000000
00006E00
00007E00
00006E00
00000000
000000C0
000C18C0
000C18C0
600C18C0
600C38C0
C00FFFC0
C007EFC0
C007C780
C00E0000
E00C0000
F01C0000
7FFC0000
3FF80000
0FE00000
ENDCHAR
STARTCHAR 0771
ENCODING 1905
SWIDTH 280 0
DWIDTH 7 0
BBX 9 28 -2 -6
BITMAP
0800
0800
0F00
0F80
0880
1F80
1F00
0000
0000
1B80
1B80
1B80
0000
0000
0600
0700
0700
0300
0300
0300
0300
0300
0300
0700
0E00
FE00
FC00
F000
ENDCHAR
STARTCHAR 0772
ENCODING 1906
SWIDTH 600 0
DWIDTH 15 0
BBX 15 28 1 -8
BITMAP
0400
0400
0780
07C0
0440
0FC0
0F80
0000
3FF0
7FFC
7FFC
600C
607C
03F0
0FC0
3E00
7000
6000
C000
C000
C000
C000
C000
E00C
703E
7FFC
3FF8
0FE0
ENDCHAR
STARTCHAR 0773
ENCODING 1907
SWIDTH 240 0
DWIDTH 6 0
BBX 5 24 1 0
BITMAP
98
D8
F8
F0
C0
C0
C0
00
00
60
60
60
60
60
60
60
60
60
60
60
60
60
60
60
ENDCHAR
STARTCHAR 0774
ENCODING 1908
SWIDTH 240 0
DWIDTH 6 0
BBX 7 24 0 0
BITMAP
C6
5E
7E
6C
40
40
40
00
00
30
30
30
30
30
30
30
30
30
30
30
30
30
30
30
ENDCHAR
STARTCHAR 0775
ENCODING 1909
SWIDTH 760 0
DWIDTH 19 0
BBX 17 20 1 -6
BITMAP
D80000
C83E00
F87F00
F0FF80
C0C300
C18200
C18000
018000
618000
61F000
C1FF00
C07F80
C00F80
C00180
C00180
E00380
700F00
7FFE00
3FFC00
0FF000
ENDCHAR
STARTCHAR 0776
ENCODING 1910
SWIDTH 760 0
DWIDTH 19 0
BBX 17 20 1 -6
BITMAP
8C0000
B43E00
FC7F00
D8FF80
80C300
818200
818000
018000
618000
61F000
C1FF00
C07F80
C00F80
C00180
C00180
E00380
700F00
7FFE00
3FFC00
0FF000
ENDCHAR
STARTCHAR 0777
ENCODING 1911
SWIDTH 760 0
DWIDTH 19 0
BBX 17 27 1 -14
BITMAP
003E00
007F00
00FF80
00C300
018200
018000
018000
618000
61F000
C1FF00
C07F80
C00F80
C00180
C00180
E00380
700F00
7FFE00
3FFC00
0FF000
000000
03A000
03E000
028000
020000
030000
010000
018000
ENDCHAR
STARTCHAR 0778
ENCODING 1912
SWIDTH 480 0
DWIDTH 12 0
BBX 10 25 1 -6
BITMAP
1200
1300
1E00
1E00
1000
1800
1800
0000
0000
1E00
3F00
7F80
E380
C180
C1C0
E1C0
FFC0
7EC0
3D80
0180
0380
0700
FF00
FE00
F800
ENDCHAR
STARTCHAR 0779
ENCODING 1913
SWIDTH 480 0
DWIDTH 12 0
BBX 10 25 1 -6
BITMAP
3100
3580
3F80
1B00
1000
1000
1000
0000
0000
1E00
3F00
7F80
E380
C180
C1C0
E1C0
FFC0
7EC0
3D80
0180
0380
0700
FF00
FE00
F800
ENDCHAR
STARTCHAR 077A
ENCODING 1914
SWIDTH 760 0
DWIDTH 19 0
BBX 17 20 1 0
BITMAP
026000
026000
03E000
03C000
030000
030000
030000
000000
000000
018000
038000
0F8000
3F0000
7C0000
E00000
C00000
C00000
FFFF80
FFFF80
3FFF80
ENDCHAR
STARTCHAR 077B
ENCODING 1915
SWIDTH 760 0
DWIDTH 19 0
BBX 17 20 1 0
BITMAP
063000
02B000
03F000
036000
020000
020000
020000
000000
000000
018000
038000
0F8000
3F0000
7C0000
E00000
C00000
C00000
FFFF80
FFFF80
3FFF80
ENDCHAR
STARTCHAR 077C
ENCODING 1916
SWIDTH 600 0
DWIDTH 15 0
BBX 15 20 1 -8
BITMAP
3FF0
7FFC
7FFC
600C
607C
03F0
0FC0
3E00
7000
6680
C780
C500
C400
C600
C200
E00C
703E
7FFC
3FF8
0FE0
ENDCHAR
STARTCHAR 077D
ENCODING 1917
SWIDTH 1120 0
DWIDTH 28 0
BBX 26 21 1 -6
BITMAP
00003600
00003E00
00006800
00002000
00002000
00003000
00003000
000000C0
000C18C0
000C18C0
600C18C0
600C38C0
C00FFFC0
C007EFC0
C007C780
C00E0000
E00C0000
F01C0000
7FFC0000
3FF80000
0FE00000
ENDCHAR
STARTCHAR 077E
ENCODING 1918
SWIDTH 1120 0
DWIDTH 28 0
BBX 26 20 1 -6
BITMAP
00001800
00003C00
00003C00
00006C00
00006600
00000000
000000C0
000C18C0
000C18C0
600C18C0
600C38C0
C00FFFC0
C007EFC0
C007C780
C00E0000
E00C0000
F01C0000
7FFC0000
3FF80000
0FE00000
ENDCHAR
STARTCHAR 077F
ENCODING 1919
SWIDTH 760 0
DWIDTH 19 0
BBX 17 19 1 0
BITMAP
066380
07E380
066380
000380
000380
00C380
038380
030380
03C380
03E380
00C380
03C380
070380
000380
000300
000700
FFFF00
FFFE00
FFFC00
ENDCHAR
STARTCHAR 08A0
ENCODING 2208
SWIDTH 840 0
DWIDTH 21 0
BBX 19 17 1 -7
BITMAP
600060
600060
C00060
C00060
C00060
C00060
F000E0
7FFFE0
3FFFC0
0FFF00
000000
000000
019800
01B000
00B000
00E000
00E000
ENDCHAR
STARTCHAR 08A2
ENCODING 2210
SWIDTH 600 0
DWIDTH 15 0
BBX 15 25 1 -8
BITMAP
0DC0
0DC0
0DC0
0000
0000
3FF0
7FFC
7FFC
600C
607C
03F0
0FC0
3E00
7000
6000
C300
C380
C300
C000
C000
E00C
703E
7FFC
3FF8
0FE0
ENDCHAR
STARTCHAR 08A3
ENCODING 2211
SWIDTH 760 0
DWIDTH 19 0
BBX 17 19 1 0
BITMAP
1C0000
1C0000
1C0000
1CCC00
1CFC00
1CEC00
1C0000
1C0000
1C7E00
19FF00
1BFF80
1F0380
1E0180
1C0180
180180
180380
FFFF80
FFFF00
FFFC00
ENDCHAR
STARTCHAR 08A4
ENCODING 2212
SWIDTH 760 0
DWIDTH 19 0
BBX 17 24 1 -5
BITMAP
1C0000
1C0000
1C0000
1CCC00
1CFC00
1CEC00
1C0000
1C0000
1C7E00
19FF00
1BFF80
1F0380
1E0180
1C0180
180180
180380
FFFF80
FFFF00
FFFC00
000000
000000
01C000
01C000
01C000
ENDCHAR
STARTCHAR 08A5
ENCODING 2213
SWIDTH 720 0
DWIDTH 18 0
BBX 16 26 1 -11
BITMAP
00EC
00EE
00EC
0000
0000
0078
00FE
01FE
01C7
6183
6183
C183
C1FF
C1FF
C07B
C003
E007
700E
7FFE
3FFC
0FF0
0000
0000
0180
0380
0180
ENDCHAR
STARTCHAR 08A6
ENCODING 2214
SWIDTH 680 0
DWIDTH 17 0
BBX 16 25 1 -6
BITMAP
000C
000C
000C
000C
000C
003F
003F
000C
000C
003F
003F
000C
000C
600C
600C
C00C
C00C
C00C
C01C
C01C
E01C
7038
7FF8
3FF0
0FC0
ENDCHAR
STARTCHAR 08A7
ENCODING 2215
SWIDTH 600 0
DWIDTH 15 0
BBX 13 28 1 -8
BITMAP
0380
0380
0380
0000
0EC0
0EE0
0EC0
0000
0000
07C0
0FE0
1FE0
1C70
2830
0030
0030
1FF8
7FF8
7FF8
E000
E000
E000
E000
E000
E000
E000
E000
E000
ENDCHAR
STARTCHAR 08A8
ENCODING 2216
SWIDTH 760 0
DWIDTH 19 0
BBX 18 24 0 -11
BITMAP
381F00
7C3F80
487FC0
606180
FCC100
FCC000
00C000
30C000
30F800
60FF80
603FC0
6007C0
6000C0
6000C0
7001C0
380780
3FFF00
1FFE00
07F800
000000
000000
033000
03F000
033000
ENDCHAR
STARTCHAR 08A9
ENCODING 2217
SWIDTH 760 0
DWIDTH 19 0
BBX 17 24 1 -11
BITMAP
003E00
007F00
00FF80
60C300
718200
618000
018000
618000
61F000
C1FF00
C07F80
C00F80
C00180
C00180
E00380
700F00
7FFE00
3FFC00
0FF000
000000
000000
066000
07E000
066000
ENDCHAR
STARTCHAR 08AA
ENCODING 2218
SWIDTH 560 0
DWIDTH 14 0
BBX 12 16 1 -8
BITMAP
0060
0070
0070
0030
0030
0030
0030
3C30
FF30
FFF0
C3E0
C1E0
C1E0
FFE0
7F70
3E20
ENDCHAR
STARTCHAR 08AB
ENCODING 2219
SWIDTH 480 0
DWIDTH 12 0
BBX 11 16 0 -6
BITMAP
0F00
1F80
3FC0
71C0
60C0
60E0
70E0
7FE0
3F60
DEC0
E0C0
C1C0
0380
7F80
7F00
7C00
ENDCHAR
STARTCHAR 08AC
ENCODING 2220
SWIDTH 640 0
DWIDTH 16 0
BBX 15 18 1 -5
BITMAP
01E0
07F0
07F8
0E38
0C18
0C18
0C18
0E18
0630
03F0
7FFE
FF7E
FE1C
C000
C000
0370
0370
0370
ENDCHAR
STARTCHAR 08B3
ENCODING 2227
SWIDTH 600 0
DWIDTH 15 0
BBX 15 24 1 -8
BITMAP
0780
0FE0
1FF0
3860
3040
3000
3000
3000
3808
1FF8
0FF8
07F0
1E00
3EC0
66C0
E6C0
C000
C380
C380
E38C
783E
7FFC
3FF8
0FE0
ENDCHAR
STARTCHAR 08E4
ENCODING 2276
SWIDTH 0 0
DWIDTH 0 0
BBX 5 6 1 9
BITMAP
08
18
78
F0
80
80
ENDCHAR
STARTCHAR 08E5
ENCODING 2277
SWIDTH 0 0
DWIDTH 0 0
BBX 7 6 0 8
BITMAP
1C
3E
36
1C
F8
60
ENDCHAR
STARTCHAR 08E6
ENCODING 2278
SWIDTH 0 0
DWIDTH 0 0
BBX 5 6 1 9
BITMAP
08
18
78
F0
80
80
ENDCHAR
STARTCHAR 08E7
ENCODING 2279
SWIDTH 0 0
DWIDTH 0 0
BBX 5 10 1 9
BITMAP
08
18
78
F0
88
98
78
F0
80
80
ENDCHAR
STARTCHAR 08E8
ENCODING 2280
SWIDTH 0 0
DWIDTH 0 0
BBX 10 10 0 8
BITMAP
0E00
3A00
7000
5B80
CBC0
7A40
7240
03C0
1F80
0E00
ENDCHAR
STARTCHAR 08E9
ENCODING 2281
SWIDTH 0 0
DWIDTH 0 0
BBX 5 10 1 5
BITMAP
08
18
78
F0
88
98
78
F0
80
80
ENDCHAR
STARTCHAR 08EA
ENCODING 2282
SWIDTH 0 0
DWIDTH 0 0
BBX 3 3 0 9
BITMAP
60
E0
60
ENDCHAR
STARTCHAR 08EB
ENCODING 2283
SWIDTH 0 0
DWIDTH 0 0
BBX 7 3 0 9
BITMAP
6C
EE
6C
ENDCHAR
STARTCHAR 08EC
ENCODING 2284
SWIDTH 0 0
DWIDTH 0 0
BBX 8 6 0 9
BITMAP
3A
7D
47
C7
7D
3A
ENDCHAR
STARTCHAR 08ED
ENCODING 2285
SWIDTH 0 0
DWIDTH 0 0
BBX 3 3 0 9
BITMAP
60
E0
60
ENDCHAR
STARTCHAR 08EE
ENCODING 2286
SWIDTH 0 0
DWIDTH 0 0
BBX 7 3 0 9
BITMAP
6C
EE
6C
ENDCHAR
STARTCHAR 08EF
ENCODING 2287
SWIDTH 0 0
DWIDTH 0 0
BBX 8 6 0 8
BITMAP
3A
7D
47
C7
7D
3A
ENDCHAR
STARTCHAR 08F0
ENCODING 2288
SWIDTH 0 0
DWIDTH 0 0
BBX 6 8 0 9
BITMAP
04
3C
F0
C0
04
3C
F0
C0
ENDCHAR
STARTCHAR 08F1
ENCODING 2289
SWIDTH 0 0
DWIDTH 0 0
BBX 13 8 0 8
BITMAP
1C30
3C78
2448
3468
1C38
78F0
E1C0
8100
ENDCHAR
STARTCHAR 08F2
ENCODING 2290
SWIDTH 0 0
DWIDTH 0 0
BBX 6 8 0 5
BITMAP
04
3C
F0
C0
04
3C
F0
C0
ENDCHAR
STARTCHAR 08F3
ENCODING 2291
SWIDTH 0 0
DWIDTH 0 0
BBX 6 9 0 11
BITMAP
38
78
4C
C4
7C
74
0C
F8
F0
ENDCHAR
STARTCHAR 08F4
ENCODING 2292
SWIDTH 0 0
DWIDTH 0 0
BBX 6 6 0 9
BITMAP
38
7C
DC
EC
F8
78
ENDCHAR
STARTCHAR 08F5
ENCODING 2293
SWIDTH 0 0
DWIDTH 0 0
BBX 6 6 0 9
BITMAP
60
E0
64
3C
F0
C0
ENDCHAR
STARTCHAR 08F6
ENCODING 2294
SWIDTH 0 0
DWIDTH 0 0
BBX 6 7 0 6
BITMAP
04
3C
F0
C0
18
1C
1C
ENDCHAR
STARTCHAR 08F7
ENCODING 2295
SWIDTH 0 0
DWIDTH 0 0
BBX 6 6 0 9
BITMAP
0C
3C
E0
F0
3C
0C
ENDCHAR
STARTCHAR 08F8
ENCODING 2296
SWIDTH 0 0
DWIDTH 0 0
BBX 6 6 0 9
BITMAP
C0
F0
3C
1C
F0
C0
ENDCHAR
STARTCHAR 08F9
ENCODING 2297
SWIDTH 0 0
DWIDTH 0 0
BBX 6 6 0 9
BITMAP
0C
3C
E0
F0
3C
0C
ENDCHAR
STARTCHAR 08FA
ENCODING 2298
SWIDTH 0 0
DWIDTH 0 0
BBX 6 6 0 9
BITMAP
C0
F0
3C
1C
F0
C0
ENDCHAR
STARTCHAR 08FB
ENCODING 2299
SWIDTH 0 0
DWIDTH 0 0
BBX 11 6 0 9
BITMAP
C200
F3C0
3DE0
1CE0
F3C0
C200
ENDCHAR
STARTCHAR 08FC
ENCODING 2300
SWIDTH 0 0
DWIDTH 0 0
BBX 14 6 0 9
BITMAP
0840
0F78
67BC
E39C
0F78
0840
ENDCHAR
STARTCHAR 08FD
ENCODING 2301
SWIDTH 0 0
DWIDTH 0 0
BBX 9 6 0 9
BITMAP
0800
0F00
6780
E380
0F00
0800
ENDCHAR
STARTCHAR 08FE
ENCODING 2302
SWIDTH 0 0
DWIDTH 0 0
BBX 9 8 0 8
BITMAP
0700
0F00
6D80
ED80
6700
0E00
3800
2000
ENDCHAR
STARTCHAR 0E3F
ENCODING 3647
SWIDTH 640 0
DWIDTH 16 0
BBX 13 21 2 -2
BITMAP
0600
0600
0600
FFC0
FFF0
E670
E630
E670
E670
FFC0
FFE0
E670
E638
E638
E638
E678
FFF0
FFE0
0600
0600
0600
ENDCHAR
STARTCHAR 1E9E
ENCODING 7838
SWIDTH 720 0
DWIDTH 18 0
BBX 15 17 2 0
BITMAP
FFF8
FFF8
E038
E078
E070
E0E0
E1C0
E1E0
E1F8
E01C
E00E
E00E
E00E
E40E
E61C
EFF8
E3F0
ENDCHAR
STARTCHAR 2010
ENCODING 8208
SWIDTH 400 0
DWIDTH 10 0
BBX 6 3 2 6
BITMAP
FC
FC
FC
ENDCHAR
STARTCHAR 2013
ENCODING 8211
SWIDTH 600 0
DWIDTH 15 0
BBX 13 2 1 7
BITMAP
FFF8
FFF8
ENDCHAR
STARTCHAR 2014
ENCODING 8212
SWIDTH 800 0
DWIDTH 20 0
BBX 18 2 1 7
BITMAP
FFFFC0
FFFFC0
ENDCHAR
STARTCHAR 2015
ENCODING 8213
SWIDTH 600 0
DWIDTH 15 0
BBX 18 2 1 7
BITMAP
FFFFC0
FFFFC0
ENDCHAR
STARTCHAR 2018
ENCODING 8216
SWIDTH 280 0
DWIDTH 7 0
BBX 4 7 2 12
BITMAP
30
60
C0
E0
E0
E0
E0
ENDCHAR
STARTCHAR 2019
ENCODING 8217
SWIDTH 280 0
DWIDTH 7 0
BBX 4 7 1 12
BITMAP
70
70
70
70
30
60
E0
ENDCHAR
STARTCHAR 201A
ENCODING 8218
SWIDTH 280 0
DWIDTH 7 0
BBX 4 7 1 -3
BITMAP
70
70
70
70
30
60
C0
ENDCHAR
STARTCHAR 201C
ENCODING 8220
SWIDTH 520 0
DWIDTH 13 0
BBX 10 7 2 12
BITMAP
31C0
6300
C300
E700
E780
E780
E300
ENDCHAR
STARTCHAR 201D
ENCODING 8221
SWIDTH 520 0
DWIDTH 13 0
BBX 10 7 1 12
BITMAP
7180
73C0
73C0
71C0
3180
6180
E700
ENDCHAR
STARTCHAR 201E
ENCODING 8222
SWIDTH 520 0
DWIDTH 13 0
BBX 10 7 1 -3
BITMAP
7180
73C0
73C0
71C0
3180
6180
C700
ENDCHAR
STARTCHAR 2020
ENCODING 8224
SWIDTH 560 0
DWIDTH 14 0
BBX 12 24 1 -5
BITMAP
0600
0600
0600
0600
0600
0600
FFF0
FFF0
0600
0600
0600
0600
0600
0600
0600
0600
0600
0600
0600
0600
0600
0600
0600
0600
ENDCHAR
STARTCHAR 2021
ENCODING 8225
SWIDTH 560 0
DWIDTH 14 0
BBX 12 24 1 -5
BITMAP
0600
0600
0600
0600
0600
0600
FFF0
FFF0
0600
0600
0600
0600
0600
0600
0600
0600
FFF0
FFF0
0600
0600
0600
0600
0600
0600
ENDCHAR
STARTCHAR 2022
ENCODING 8226
SWIDTH 400 0
DWIDTH 10 0
BBX 7 7 2 4
BITMAP
78
FC
FC
FE
FC
FC
78
ENDCHAR
STARTCHAR 2026
ENCODING 8230
SWIDTH 840 0
DWIDTH 21 0
BBX 17 4 2 0
BITMAP
E1C380
E1C380
E1C380
E1C380
ENDCHAR
STARTCHAR 2030
ENCODING 8240
SWIDTH 1320 0
DWIDTH 33 0
BBX 31 17 1 0
BITMAP
3E01C000
7F018000
63830000
63870000
E38E0000
638C0000
639C0000
7F380000
3E31E078
0063F1FC
00E739CE
01C61986
01861986
03861986
0707398E
0603F1FC
0C01E078
ENDCHAR
STARTCHAR 2039
ENCODING 8249
SWIDTH 320 0
DWIDTH 8 0
BBX 5 11 1 1
BITMAP
08
18
38
70
E0
C0
E0
70
38
18
08
ENDCHAR
STARTCHAR 203A
ENCODING 8250
SWIDTH 320 0
DWIDTH 8 0
BBX 6 11 1 1
BITMAP
40
E0
70
38
1C
1C
3C
38
70
C0
80
ENDCHAR
STARTCHAR 2044
ENCODING 8260
SWIDTH 160 0
DWIDTH 4 0
BBX 15 17 -6 0
BITMAP
0006
000C
0018
0038
0030
0060
00C0
00C0
0180
0300
0700
0600
0C00
1800
3800
3000
E000
ENDCHAR
STARTCHAR 2070
ENCODING 8304
SWIDTH 360 0
DWIDTH 9 0
BBX 7 9 1 8
BITMAP
3C
66
C6
C6
C6
C6
C6
66
3C
ENDCHAR
STARTCHAR 2074
ENCODING 8308
SWIDTH 360 0
DWIDTH 9 0
BBX 8 9 0 8
BITMAP
0E
1E
16
36
66
C6
FF
06
06
ENDCHAR
STARTCHAR 2075
ENCODING 8309
SWIDTH 360 0
DWIDTH 9 0
BBX 7 9 1 8
BITMAP
FC
C0
C0
FC
CE
06
86
CE
7C
ENDCHAR
STARTCHAR 2076
ENCODING 8310
SWIDTH 360 0
DWIDTH 9 0
BBX 7 9 1 8
BITMAP
1C
30
60
FC
C6
C6
C6
C6
7C
ENDCHAR
STARTCHAR 2077
ENCODING 8311
SWIDTH 320 0
DWIDTH 8 0
BBX 7 9 1 8
BITMAP
FE
8E
8C
0C
18
18
30
30
70
ENDCHAR
STARTCHAR 2078
ENCODING 8312
SWIDTH 360 0
DWIDTH 9 0
BBX 7 9 1 8
BITMAP
7C
C6
C6
46
38
C6
C6
C6
7C
ENDCHAR
STARTCHAR 2079
ENCODING 8313
SWIDTH 360 0
DWIDTH 9 0
BBX 7 9 1 8
BITMAP
7C
C6
C6
C6
C6
7E
0C
18
70
ENDCHAR
STARTCHAR 2080
ENCODING 8320
SWIDTH 360 0
DWIDTH 9 0
BBX 7 9 1 0
BITMAP
3C
66
C6
C6
C6
C6
C6
66
3C
ENDCHAR
STARTCHAR 2081
ENCODING 8321
SWIDTH 360 0
DWIDTH 9 0
BBX 7 9 1 0
BITMAP
78
78
D8
98
18
18
18
18
FE
ENDCHAR
STARTCHAR 2082
ENCODING 8322
SWIDTH 360 0
DWIDTH 9 0
BBX 7 9 1 0
BITMAP
78
CC
06
0C
0C
18
60
E0
FE
ENDCHAR
STARTCHAR 2083
ENCODING 8323
SWIDTH 360 0
DWIDTH 9 0
BBX 8 9 0 0
BITMAP
7C
66
07
06
1C
06
03
66
FC
ENDCHAR
STARTCHAR 2084
ENCODING 8324
SWIDTH 360 0
DWIDTH 9 0
BBX 8 9 0 0
BITMAP
0E
1E
16
36
66
C6
FF
06
06
ENDCHAR
STARTCHAR 2085
ENCODING 8325
SWIDTH 360 0
DWIDTH 9 0
BBX 7 9 1 0
BITMAP
FC
C0
C0
FC
CE
06
86
CE
7C
ENDCHAR
STARTCHAR 2086
ENCODING 8326
SWIDTH 360 0
DWIDTH 9 0
BBX 7 9 1 0
BITMAP
1C
30
60
FC
C6
C6
C6
C6
7C
ENDCHAR
STARTCHAR 2087
ENCODING 8327
SWIDTH 320 0
DWIDTH 8 0
BBX 7 9 1 0
BITMAP
FE
8E
8C
0C
18
18
30
30
70
ENDCHAR
STARTCHAR 2088
ENCODING 8328
SWIDTH 360 0
DWIDTH 9 0
BBX 7 9 1 0
BITMAP
7C
C6
C6
46
38
C6
C6
C6
7C
ENDCHAR
STARTCHAR 2089
ENCODING 8329
SWIDTH 360 0
DWIDTH 9 0
BBX 7 9 1 0
BITMAP
7C
C6
C6
C6
C6
7E
0C
18
70
ENDCHAR
STARTCHAR 20A1
ENCODING 8353
SWIDTH 640 0
DWIDTH 16 0
BBX 14 21 1 -2
BITMAP
0360
0360
0360
07E0
1FF0
3AF8
76DC
76C0
66C0
E6C0
E6C0
E680
6480
6490
7598
3DBC
1FF0
0FE0
0D80
0D80
0D00
ENDCHAR
STARTCHAR 20A4
ENCODING 8356
SWIDTH 600 0
DWIDTH 15 0
BBX 13 17 1 0
BITMAP
0FC0
1FF0
3878
3820
7000
7000
FFC0
FFC0
3800
3800
FFC0
FFC0
1800
3800
7000
7FF0
7FF0
ENDCHAR
STARTCHAR 20A6
ENCODING 8358
SWIDTH 720 0
DWIDTH 18 0
BBX 18 17 0 0
BITMAP
3C0700
3E0700
3E0700
3F0700
3B8700
FBFFC0
F9FFC0
39C700
38E700
FFE7C0
FFF7C0
383700
383F00
381F00
381F00
380F00
380F00
ENDCHAR
STARTCHAR 20A8
ENCODING 8360
SWIDTH 800 0
DWIDTH 20 0
BBX 17 17 2 0
BITMAP
FF0000
FF8000
E3C000
E1C000
E1C000
E1CF80
E1DF80
E39900
FF9800
FF1C00
E71E00
E38700
E38380
E1C380
E1E380
E0FF00
E07E00
ENDCHAR
STARTCHAR 20A9
ENCODING 8361
SWIDTH 1000 0
DWIDTH 25 0
BBX 23 17 1 0
BITMAP
E0381C
60781C
707C1C
707C18
30EC38
FFEFFE
FFCFFE
38CE30
39C630
F9FE7E
F9FF7E
1D8760
1D8360
0F03E0
0F03E0
0F03C0
0F01C0
ENDCHAR
STARTCHAR 20AA
ENCODING 8362
SWIDTH 840 0
DWIDTH 21 0
BBX 17 17 2 0
BITMAP
FFC380
FFE380
E07380
E07380
E67380
E67380
E67380
E67380
E67380
E67380
E67380
E67380
E67380
E60300
E60700
E7FF00
E7FC00
ENDCHAR
STARTCHAR 20AB
ENCODING 8363
SWIDTH 560 0
DWIDTH 14 0
BBX 12 19 1 0
BITMAP
00E0
00E0
07F0
07F0
00E0
00E0
3EE0
7FE0
70E0
E0E0
E0E0
E0E0
70E0
7FE0
3EE0
0000
0000
7FF0
7FF0
ENDCHAR
STARTCHAR 20AC
ENCODING 8364
SWIDTH 640 0
DWIDTH 16 0
BBX 14 17 1 0
BITMAP
07E0
1FF0
3838
7014
7000
7FC0
FFC0
E000
E000
FFC0
7FC0
7000
7010
781C
3C38
1FF0
07C0
ENDCHAR
STARTCHAR 20AD
ENCODING 8365
SWIDTH 640 0
DWIDTH 16 0
BBX 16 17 0 0
BITMAP
380E
381C
3838
3870
3870
38E0
39C0
FFFE
FFFE
39C0
38E0
38F0
3870
3838
381C
381E
380F
ENDCHAR
STARTCHAR 20AE
ENCODING 8366
SWIDTH 600 0
DWIDTH 15 0
BBX 13 17 1 0
BITMAP
FFF8
FFF8
0700
0700
0720
0760
07E0
0F80
3F20
3760
47E0
0F00
3F00
3700
4700
0700
0700
ENDCHAR
STARTCHAR 20B1
ENCODING 8369
SWIDTH 640 0
DWIDTH 16 0
BBX 15 17 1 0
BITMAP
3FC0
3FF0
3870
3838
FFFE
FFFE
3838
3838
FFFE
FFFE
3830
3870
3FE0
3FC0
3800
3800
3800
ENDCHAR
STARTCHAR 20B2
ENCODING 8370
SWIDTH 680 0
DWIDTH 17 0
BBX 14 21 1 -2
BITMAP
00C0
00C0
00C0
07E0
1FF0
39B8
719C
7190
6180
E300
E3FC
E3FC
630C
730C
761C
3E38
1FF0
07E0
0600
0600
0E00
ENDCHAR
STARTCHAR 20B4
ENCODING 8372
SWIDTH 640 0
DWIDTH 16 0
BBX 14 17 1 0
BITMAP
0FC0
3FE0
1870
0070
0070
FFFC
FFFC
03C0
0F00
FFFC
FFFC
3000
3000
3820
3870
1FF0
0FC0
ENDCHAR
STARTCHAR 20B5
ENCODING 8373
SWIDTH 600 0
DWIDTH 15 0
BBX 14 21 1 -2
BITMAP
00C0
00C0
00C0
07C0
1FF0
39B8
7198
7180
6180
E100
E300
E300
6300
7310
7218
3E3C
1FF0
07E0
0600
0600
0E00
ENDCHAR
STARTCHAR 20B8
ENCODING 8376
SWIDTH 600 0
DWIDTH 15 0
BBX 13 17 1 0
BITMAP
FFF8
FFF8
0000
0000
FFF8
FFF8
0700
0700
0700
0700
0700
0700
0700
0700
0700
0700
0700
ENDCHAR
STARTCHAR 20B9
ENCODING 8377
SWIDTH 600 0
DWIDTH 15 0
BBX 14 17 1 0
BITMAP
FFFC
FFFC
01C0
00E0
FFFC
FFFC
00E0
01C0
FFC0
FF00
0E00
0700
0780
0380
01C0
01E0
00F0
ENDCHAR
STARTCHAR 20BA
ENCODING 8378
SWIDTH 600 0
DWIDTH 15 0
BBX 14 17 0 0
BITMAP
1C00
1C00
1C40
1DC0
1F80
1E00
7C40
FDC0
9F80
1E00
7C0C
FC1C
9C1C
1C1C
1C38
1FF0
1FE0
ENDCHAR
STARTCHAR 20BD
ENCODING 8381
SWIDTH 640 0
DWIDTH 16 0
BBX 14 17 1 0
BITMAP
3FE0
3FF8
383C
381C
381C
381C
381C
383C
FFF8
FFE0
3800
3800
FFE0
FFE0
3800
3800
3800
ENDCHAR
STARTCHAR 20BF
ENCODING 8383
SWIDTH 640 0
DWIDTH 16 0
BBX 13 21 2 -2
BITMAP
1980
1980
1980
FFC0
FFF0
E070
E030
E070
E070
FFC0
FFF0
E070
E038
E038
E038
E078
FFF0
FFE0
1980
1980
1980
ENDCHAR
STARTCHAR 2113
ENCODING 8467
SWIDTH 520 0
DWIDTH 13 0
BBX 11 19 1 0
BITMAP
0F00
1F80
39C0
39C0
39C0
39C0
3980
3980
3B80
3F00
3E00
3C00
3800
F800
F880
3860
38E0
1FC0
0F80
ENDCHAR
STARTCHAR 2116
ENCODING 8470
SWIDTH 1040 0
DWIDTH 26 0
BBX 23 17 2 0
BITMAP
F03878
F038FC
F8398E
F83986
FC3986
FC398E
EE38FC
E63878
E73800
E3B9FE
E3B9FE
E1F800
E1F800
E0F800
E0F800
E07800
E03800
ENDCHAR
STARTCHAR 2122
ENCODING 8482
SWIDTH 640 0
DWIDTH 16 0
BBX 13 7 1 10
BITMAP
FB18
23B8
23A8
23E8
2348
2348
2308
ENDCHAR
STARTCHAR 2126
ENCODING 8486
SWIDTH 720 0
DWIDTH 18 0
BBX 16 18 1 -1
BITMAP
07E0
1FF8
3C3C
381C
700E
700E
600E
E007
E007
700E
700E
700E
381C
1C38
0E70
FE7F
FE7F
007F
ENDCHAR
STARTCHAR 212E
ENCODING 8494
SWIDTH 720 0
DWIDTH 18 0
BBX 16 17 1 0
BITMAP
07E0
1818
300C
700E
700E
F00F
F00F
FFFF
F000
F000
F000
F000
7002
7006
300C
1818
07E0
ENDCHAR
STARTCHAR 2150
ENCODING 8528
SWIDTH 880 0
DWIDTH 22 0
BBX 20 17 1 0
BITMAP
7801C0
780300
D80700
980600
180C00
181800
183800
183000
FE67F0
00C630
01C660
018060
0300E0
0700C0
0600C0
0C0180
180380
ENDCHAR
STARTCHAR 2151
ENCODING 8529
SWIDTH 880 0
DWIDTH 22 0
BBX 20 17 1 0
BITMAP
7801C0
780300
D80700
980600
180C00
181800
183800
183000
FE63E0
00C630
01C630
018630
030630
0703F0
060060
0C00C0
180380
ENDCHAR
STARTCHAR 2153
ENCODING 8531
SWIDTH 880 0
DWIDTH 22 0
BBX 20 17 1 0
BITMAP
7801C0
780300
D80700
980600
180C00
181800
183800
183000
FE63E0
00C670
01C030
018060
0301C0
070070
060030
0C0670
1803E0
ENDCHAR
STARTCHAR 2154
ENCODING 8532
SWIDTH 840 0
DWIDTH 21 0
BBX 19 17 1 0
BITMAP
780380
CC0300
060600
0C0C00
0C1C00
181800
603000
E06000
FEE7C0
00CC60
018060
030060
070380
060060
0C0060
180C60
3807C0
ENDCHAR
STARTCHAR 2155
ENCODING 8533
SWIDTH 880 0
DWIDTH 22 0
BBX 20 17 1 0
BITMAP
7801C0
780300
D80700
980600
180C00
181800
183800
183000
FE67F0
00C600
01C600
0187E0
030670
070030
060430
0C0630
1803E0
ENDCHAR
STARTCHAR 2156
ENCODING 8534
SWIDTH 840 0
DWIDTH 21 0
BBX 19 17 1 0
BITMAP
780380
CC0300
060600
0C0C00
0C1C00
181800
603000
E06000
FEE7E0
00C400
018400
0305C0
070660
060060
0C0460
180C60
3807C0
ENDCHAR
STARTCHAR 2157
ENCODING 8535
SWIDTH 840 0
DWIDTH 21 0
BBX 21 17 0 0
BITMAP
7C01C0
660180
070300
060600
1C0E00
060C00
031800
663800
FC33F0
006200
00C200
01C2E0
018330
030038
060238
0E0730
1C01E0
ENDCHAR
STARTCHAR 2158
ENCODING 8536
SWIDTH 880 0
DWIDTH 22 0
BBX 21 17 0 0
BITMAP
0E00C0
1E0180
160300
360700
660600
C60C00
FF1800
063800
0633F0
006300
00C300
01C2F0
018330
030018
060218
0E0730
1C01E0
ENDCHAR
STARTCHAR 2159
ENCODING 8537
SWIDTH 840 0
DWIDTH 21 0
BBX 20 17 1 0
BITMAP
7801C0
780300
D80700
980600
180C00
181800
183800
183000
FE61C0
00C300
01C600
0185C0
030E60
070C60
060C70
0C0660
1803C0
ENDCHAR
STARTCHAR 215A
ENCODING 8538
SWIDTH 840 0
DWIDTH 21 0
BBX 19 17 1 0
BITMAP
FC0180
C00300
C00600
FC0E00
CE0C00
061800
863000
CE7000
7C61C0
00C300
018600
038FC0
030C60
060C60
0C0C60
1C0C60
3807C0
ENDCHAR
STARTCHAR 215B
ENCODING 8539
SWIDTH 880 0
DWIDTH 22 0
BBX 20 17 1 0
BITMAP
7801C0
780300
D80700
980600
180C00
181800
183800
183000
FE63E0
00C630
01C630
018230
0301C0
070630
060630
0C0630
1803E0
ENDCHAR
STARTCHAR 215C
ENCODING 8540
SWIDTH 880 0
DWIDTH 22 0
BBX 21 17 0 0
BITMAP
7C01C0
660180
070300
060600
1C0E00
060C00
031800
663800
FC31E0
006330
00C318
01C330
0181E0
030338
060718
0E0338
1C01F0
ENDCHAR
STARTCHAR 215D
ENCODING 8541
SWIDTH 880 0
DWIDTH 22 0
BBX 20 17 1 0
BITMAP
FC0180
C00300
C00600
FC0E00
CE0C00
061800
863000
CE7000
7C63E0
00C660
018630
038660
0301C0
060630
0C0630
1C0630
3803E0
ENDCHAR
STARTCHAR 215E
ENCODING 8542
SWIDTH 840 0
DWIDTH 21 0
BBX 19 17 1 0
BITMAP
FE0300
8E0600
8C0C00
0C1C00
181800
183000
306000
30E000
70C7C0
018C60
030C60
070CC0
060380
0C0C60
1C0C60
180C60
7007C0
ENDCHAR
STARTCHAR 2190
ENCODING 8592
SWIDTH 840 0
DWIDTH 21 0
BBX 18 10 2 4
BITMAP
0C0000
1E0000
3C0000
700000
FFFFC0
FFFFC0
700000
3C0000
1E0000
0C0000
ENDCHAR
STARTCHAR 2191
ENCODING 8593
SWIDTH 840 0
DWIDTH 21 0
BBX 11 17 5 0
BITMAP
0400
0E00
1F00
3F80
77C0
E6E0
4640
0600
0600
0600
0600
0600
0600
0600
0600
0600
0600
ENDCHAR
STARTCHAR 2192
ENCODING 8594
SWIDTH 840 0
DWIDTH 21 0
BBX 18 10 2 4
BITMAP
001800
003C00
000E00
000700
FFFF80
FFFFC0
000700
000E00
001C00
003800
ENDCHAR
STARTCHAR 2193
ENCODING 8595
SWIDTH 840 0
DWIDTH 21 0
BBX 11 17 5 0
BITMAP
0600
0600
0600
0600
0600
0600
0600
0600
0600
0600
4640
E6E0
77C0
3F80
1F00
0E00
0400
ENDCHAR
STARTCHAR 2194
ENCODING 8596
SWIDTH 840 0
DWIDTH 21 0
BBX 18 10 2 4
BITMAP
0C1800
1E1C00
380E00
700700
FFFF80
FFFFC0
700700
380E00
1C1C00
0E1800
ENDCHAR
STARTCHAR 2195
ENCODING 8597
SWIDTH 840 0
DWIDTH 21 0
BBX 11 17 5 0
BITMAP
0400
0E00
1F00
3F80
77C0
E6E0
4640
0600
0600
0600
4640
E6E0
77C0
3F80
1F00
0E00
0400
ENDCHAR
STARTCHAR 2196
ENCODING 8598
SWIDTH 840 0
DWIDTH 21 0
BBX 14 13 4 2
BITMAP
FF00
FF00
F800
FC00
EE00
E700
E380
E1C0
00E0
0070
0038
001C
0008
ENDCHAR
STARTCHAR 2197
ENCODING 8599
SWIDTH 840 0
DWIDTH 21 0
BBX 14 13 3 2
BITMAP
03FC
03FC
003C
007C
00EC
01CC
038C
070C
0E00
1C00
3800
7000
E000
ENDCHAR
STARTCHAR 2198
ENCODING 8600
SWIDTH 840 0
DWIDTH 21 0
BBX 14 13 3 2
BITMAP
6000
F000
3800
1C00
0E00
070C
038C
01CC
00EC
007C
003C
03FC
03FC
ENDCHAR
STARTCHAR 2199
ENCODING 8601
SWIDTH 840 0
DWIDTH 21 0
BBX 14 13 4 2
BITMAP
0008
001C
0038
0070
00E0
E1C0
E380
E700
EE00
FC00
F800
FF00
FF00
ENDCHAR
STARTCHAR 21A9
ENCODING 8617
SWIDTH 840 0
DWIDTH 21 0
BBX 18 14 2 2
BITMAP
000E00
000F00
000380
000180
0C01C0
1E01C0
3C0180
700380
FFFF00
FFFE00
700000
3C0000
1E0000
0C0000
ENDCHAR
STARTCHAR 21AA
ENCODING 8618
SWIDTH 840 0
DWIDTH 21 0
BBX 18 14 2 2
BITMAP
180000
780000
F00000
E00000
C01800
C03C00
E00E00
F00700
7FFF80
1FFFC0
000700
000E00
001C00
003800
ENDCHAR
STARTCHAR 21B0
ENCODING 8624
SWIDTH 840 0
DWIDTH 21 0
BBX 13 17 4 0
BITMAP
0400
0E00
1C00
7800
FFF8
FFF8
7038
3C38
1E38
0C38
0038
0038
0038
0038
0038
0038
0038
ENDCHAR
STARTCHAR 21B1
ENCODING 8625
SWIDTH 840 0
DWIDTH 21 0
BBX 13 17 5 0
BITMAP
0300
0780
01C0
00E0
FFF0
FFF8
C0E0
C1C0
C380
C700
C000
C000
C000
C000
C000
C000
C000
ENDCHAR
STARTCHAR 21B2
ENCODING 8626
SWIDTH 840 0
DWIDTH 21 0
BBX 13 17 4 0
BITMAP
0038
0038
0038
0038
0038
0038
0038
0C38
1E38
3C38
7038
FFF8
FFF8
7800
1C00
0E00
0400
ENDCHAR
STARTCHAR 21B3
ENCODING 8627
SWIDTH 840 0
DWIDTH 21 0
BBX 13 17 5 0
BITMAP
C000
C000
C000
C000
C000
C000
C000
C300
C780
C1C0
C0E0
FFF0
FFF8
00E0
01C0
0380
0700
ENDCHAR
STARTCHAR 21B6
ENCODING 8630
SWIDTH 840 0
DWIDTH 21 0
BBX 21 16 0 1
BITMAP
003F00
00FFC0
01C1E0
038060
030070
070030
060038
060038
060018
666000
F6F000
3FC000
1F8000
0F0000
0E0000
040000
ENDCHAR
STARTCHAR 21B7
ENCODING 8631
SWIDTH 840 0
DWIDTH 21 0
BBX 21 16 0 1
BITMAP
03F000
0FF800
1C1C00
380E00
700700
600300
600300
600300
E00300
001390
003B38
001F70
000FE0
0007C0
000380
000100
ENDCHAR
STARTCHAR 21BA
ENCODING 8634
SWIDTH 840 0
DWIDTH 21 0
BBX 17 17 2 0
BITMAP
00FF00
00FF00
08F800
1CFC00
38CE00
70E700
60E300
60E380
E00180
E00180
E00180
600380
700300
380700
3C1E00
0FFC00
03F000
ENDCHAR
STARTCHAR 21BB
ENCODING 8635
SWIDTH 840 0
DWIDTH 21 0
BBX 17 17 2 0
BITMAP
7F8000
7F8000
078C00
0F8E00
3D8700
398300
718380
618380
E00180
E00180
E00180
600380
700300
300700
3C1E00
0FFC00
03F000
ENDCHAR
STARTCHAR 21C4
ENCODING 8644
SWIDTH 840 0
DWIDTH 21 0
BBX 18 18 2 0
BITMAP
001800
003C00
000E00
000700
FFFF80
FFFFC0
000700
000E00
0C1C00
1E3800
3C0000
700000
FFFFC0
FFFFC0
700000
3C0000
1E0000
0C0000
ENDCHAR
STARTCHAR 21C6
ENCODING 8646
SWIDTH 840 0
DWIDTH 21 0
BBX 18 18 2 0
BITMAP
0C0000
1E0000
3C0000
700000
FFFFC0
FFFFC0
700000
3C0000
1E1800
0C3C00
000E00
000700
FFFF80
FFFFC0
000700
000E00
001C00
003800
ENDCHAR
STARTCHAR 2202
ENCODING 8706
SWIDTH 600 0
DWIDTH 15 0
BBX 12 17 1 0
BITMAP
3E00
0F00
0380
01C0
00E0
1F60
3FF0
70F0
7070
E070
E070
E070
E070
7070
70E0
3FE0
0F80
ENDCHAR
STARTCHAR 2206
ENCODING 8710
SWIDTH 680 0
DWIDTH 17 0
BBX 14 17 1 0
BITMAP
0780
07C0
07C0
0EC0
0EE0
1CE0
1C60
1C70
3870
3830
3838
7038
701C
701C
E01C
FFFC
FFFC
ENDCHAR
STARTCHAR 220F
ENCODING 8719
SWIDTH 720 0
DWIDTH 18 0
BBX 16 22 1 -5
BITMAP
FFFF
FFFF
381C
381C
381C
381C
381C
381C
381C
381C
381C
381C
381C
381C
381C
381C
381C
381C
381C
381C
381C
381C
ENDCHAR
STARTCHAR 2211
ENCODING 8721
SWIDTH 520 0
DWIDTH 13 0
BBX 11 22 1 -5
BITMAP
FFE0
FFE0
E000
7000
7800
3800
1C00
0E00
0E00
0700
0300
0300
0700
0E00
1E00
1C00
3800
7800
7000
E000
FFE0
FFE0
ENDCHAR
STARTCHAR 2212
ENCODING 8722
SWIDTH 600 0
DWIDTH 15 0
BBX 11 2 2 7
BITMAP
FFE0
FFE0
ENDCHAR
STARTCHAR 2215
ENCODING 8725
SWIDTH 160 0
DWIDTH 4 0
BBX 15 17 -6 0
BITMAP
0006
000C
0018
0038
0030
0060
00C0
00C0
0180
0300
0700
0600
0C00
1800
3800
3000
E000
ENDCHAR
STARTCHAR 221A
ENCODING 8730
SWIDTH 600 0
DWIDTH 15 0
BBX 13 17 1 0
BITMAP
0018
0018
0038
0030
F030
F070
3060
3860
18E0
18E0
18C0
1CC0
0DC0
0D80
0F80
0F80
0780
ENDCHAR
STARTCHAR 221E
ENCODING 8734
SWIDTH 760 0
DWIDTH 19 0
BBX 19 9 0 3
BITMAP
1F0F00
7F9FC0
71F1C0
60E0C0
E0E0E0
60E0E0
71F1C0
7F3FC0
1E1F00
ENDCHAR
STARTCHAR 222B
ENCODING 8747
SWIDTH 440 0
DWIDTH 11 0
BBX 9 24 1 -5
BITMAP
0F80
1F80
1C00
1C00
1C00
1C00
1C00
1C00
1C00
1C00
1C00
1C00
1C00
1C00
1C00
1C00
1C00
1C00
1C00
1C00
1C00
1C00
F800
F800
ENDCHAR
STARTCHAR 2248
ENCODING 8776
SWIDTH 600 0
DWIDTH 15 0
BBX 13 10 1 3
BITMAP
7C00
FF10
47F8
01E0
0000
0000
7C00
FF10
47F8
01E0
ENDCHAR
STARTCHAR 2260
ENCODING 8800
SWIDTH 600 0
DWIDTH 15 0
BBX 11 11 2 2
BITMAP
01C0
0180
FFE0
FFE0
0600
0E00
0C00
FFE0
FFE0
3000
7000
ENDCHAR
STARTCHAR 2264
ENCODING 8804
SWIDTH 600 0
DWIDTH 15 0
BBX 11 15 2 0
BITMAP
0020
01E0
07E0
1F80
7E00
F000
F000
7C00
1F80
07E0
01E0
0020
0000
FFE0
FFE0
ENDCHAR
STARTCHAR 2265
ENCODING 8805
SWIDTH 600 0
DWIDTH 15 0
BBX 11 15 2 0
BITMAP
8000
F000
FC00
3F00
0FC0
01E0
01E0
0FC0
3F00
FC00
F000
8000
0000
FFE0
FFE0
ENDCHAR
STARTCHAR 25CA
ENCODING 9674
SWIDTH 600 0
DWIDTH 15 0
BBX 13 17 1 0
BITMAP
0700
0700
0F80
1DC0
18C0
38E0
7070
6030
E038
6030
7070
38E0
18C0
1DC0
0F80
0700
0700
ENDCHAR
STARTCHAR 25CC
ENCODING 9676
SWIDTH 600 0
DWIDTH 15 0
BBX 15 15 0 0
BITMAP
0100
09B0
1830
0000
600C
4004
0000
C006
C006
0000
600C
600C
0820
1930
0180
ENDCHAR
STARTCHAR 2713
ENCODING 10003
SWIDTH 920 0
DWIDTH 23 0
BBX 17 18 3 0
BITMAP
000300
000380
000700
000700
000E00
600E00
E01C00
701C00
703800
383800
387000
187000
1C6000
1CE000
0EC000
0FC000
078000
078000
ENDCHAR
STARTCHAR 274C
ENCODING 10060
SWIDTH 920 0
DWIDTH 23 0
BBX 17 17 3 0
BITMAP
400100
E00380
F00700
780E00
3C1C00
1E3800
0F7000
03E000
01C000
03E000
0F7000
1E3800
3C1C00
780E00
F00700
E00380
400100
ENDCHAR
STARTCHAR 2B0E
ENCODING 11022
SWIDTH 840 0
DWIDTH 21 0
BBX 18 13 2 2
BITMAP
FFF800
FFF800
001800
001800
001800
001800
019980
03DBC0
00FF00
007E00
003E00
001C00
000800
ENDCHAR
STARTCHAR 2B0F
ENCODING 11023
SWIDTH 840 0
DWIDTH 21 0
BBX 18 13 2 3
BITMAP
000800
001C00
003E00
007F00
00FF00
01DB80
0399C0
001800
001800
001800
001800
FFF800
FFF800
ENDCHAR
STARTCHAR 2B10
ENCODING 11024
SWIDTH 840 0
DWIDTH 21 0
BBX 18 13 2 2
BITMAP
0FFFC0
0FFFC0
0C0000
0C0000
0C0000
0C0000
4CC000
ECE000
7DC000
3F8000
1F0000
0E0000
040000
ENDCHAR
STARTCHAR 2B11
ENCODING 11025
SWIDTH 840 0
DWIDTH 21 0
BBX 18 13 2 3
BITMAP
040000
0E0000
1F0000
3F8000
7DC000
EDE000
4CC000
0C0000
0C0000
0C0000
0C0000
0FFFC0
0FFFC0
ENDCHAR
STARTCHAR ECE0
ENCODING 60640
SWIDTH 1160 0
DWIDTH 29 0
BBX 25 17 2 0
BITMAP
03C00780
0FC01F80
3FC03F80
7C007800
7000F000
E000E000
E001C000
C001FE00
C001FE00
C001FE00
E001C000
E000E000
7000F000
7C007800
3FC03F80
1FC01F80
07C00780
ENDCHAR
STARTCHAR EFCC
ENCODING 61388
SWIDTH 1040 0
DWIDTH 26 0
BBX 22 17 3 0
BITMAP
FF1F80
FE7FE0
C0F070
C1C018
C38F8C
C33FC0
C730E0
FE6000
FE6000
C66000
C330C0
C33FE0
C18F88
C1C01C
C0F070
C07FE0
801F80
ENDCHAR
STARTCHAR FB01
ENCODING 64257
SWIDTH 600 0
DWIDTH 15 0
BBX 12 19 1 0
BITMAP
1E70
3E70
3070
3070
3000
3000
FFF0
FFF0
3070
3070
3070
3070
3070
3070
3070
3070
3070
3070
3070
ENDCHAR
STARTCHAR FB02
ENCODING 64258
SWIDTH 640 0
DWIDTH 16 0
BBX 14 19 1 0
BITMAP
1E70
3E70
3070
3070
3070
3070
FE70
FE70
3070
3070
3070
3070
3070
3070
3070
3070
3070
303C
303C
ENDCHAR
STARTCHAR FB51
ENCODING 64337
SWIDTH 280 0
DWIDTH 7 0
BBX 8 23 -1 0
BITMAP
0E
1F
33
73
FE
DE
00
00
18
18
18
18
18
18
18
18
18
18
18
18
1F
1F
0F
ENDCHAR
STARTCHAR FB53
ENCODING 64339
SWIDTH 920 0
DWIDTH 23 0
BBX 22 19 1 -9
BITMAP
600000
600070
C00070
C00070
C00070
C00070
F000F0
7FFFBC
3FFFBC
0FFE1C
000000
000000
00E000
00E000
006000
000000
00E000
00E000
006000
ENDCHAR
STARTCHAR FB54
ENCODING 64340
SWIDTH 280 0
DWIDTH 7 0
BBX 7 19 -1 -9
BITMAP
0C
0C
0C
0E
06
06
0E
7C
FC
F0
00
00
1C
1C
1C
00
1C
1C
1C
ENDCHAR
STARTCHAR FB55
ENCODING 64341
SWIDTH 320 0
DWIDTH 8 0
BBX 9 18 -1 -9
BITMAP
0C00
0C00
0C00
0C00
0C00
1E00
7F80
F780
E380
0000
0000
0C00
0C00
0C00
0000
0C00
0C00
0C00
ENDCHAR
STARTCHAR FB57
ENCODING 64343
SWIDTH 920 0
DWIDTH 23 0
BBX 22 20 1 -10
BITMAP
600000
600070
C00070
C00070
C00070
C00070
F000F0
7FFFBC
3FFFBC
0FFE1C
000000
000000
000000
01B800
03B800
01B800
000000
00E000
00E000
00E000
ENDCHAR
STARTCHAR FB58
ENCODING 64344
SWIDTH 280 0
DWIDTH 7 0
BBX 8 20 -1 -10
BITMAP
0C
0C
0C
0E
06
06
0E
7C
FC
F0
00
00
00
37
77
37
00
1C
1C
1C
ENDCHAR
STARTCHAR FB59
ENCODING 64345
SWIDTH 320 0
DWIDTH 8 0
BBX 9 19 -1 -10
BITMAP
0C00
0C00
0C00
0C00
0C00
1E00
7F80
F780
E380
0000
0000
0000
3700
3F00
3300
0000
0C00
1C00
0C00
ENDCHAR
STARTCHAR FB5B
ENCODING 64347
SWIDTH 920 0
DWIDTH 23 0
BBX 22 19 1 -9
BITMAP
600000
600070
C00070
C00070
C00070
C00070
F000F0
7FFFBC
3FFFBC
0FFE1C
000000
000000
01B800
03B800
01B800
000000
01B800
03B800
01B800
ENDCHAR
STARTCHAR FB5C
ENCODING 64348
SWIDTH 280 0
DWIDTH 7 0
BBX 8 19 -1 -9
BITMAP
0C
0C
0C
0E
06
06
0E
7C
FC
F0
00
00
37
77
37
00
37
77
37
ENDCHAR
STARTCHAR FB5D
ENCODING 64349
SWIDTH 320 0
DWIDTH 8 0
BBX 9 18 -1 -9
BITMAP
0C00
0C00
0C00
0C00
0C00
1E00
7F80
F780
E380
0000
0000
3300
3F00
3300
0000
3300
3F00
3300
ENDCHAR
STARTCHAR FB5F
ENCODING 64351
SWIDTH 920 0
DWIDTH 23 0
BBX 22 15 1 0
BITMAP
00E000
00E000
006000
000000
00E000
60E000
606070
C00070
C00070
C00070
C00070
F000F0
7FFFBC
3FFFBC
0FFE1C
ENDCHAR
STARTCHAR FB60
ENCODING 64352
SWIDTH 280 0
DWIDTH 7 0
BBX 7 18 -1 0
BITMAP
0C
1C
0C
00
0C
1C
0C
00
0C
0C
0C
0E
06
06
0E
7C
FC
F0
ENDCHAR
STARTCHAR FB61
ENCODING 64353
SWIDTH 320 0
DWIDTH 8 0
BBX 9 17 -1 0
BITMAP
0C00
0C00
0C00
0000
0C00
0C00
0C00
0000
0C00
0C00
0C00
0C00
0C00
1E00
7F80
F780
E380
ENDCHAR
STARTCHAR FB63
ENCODING 64355
SWIDTH 920 0
DWIDTH 23 0
BBX 22 16 1 0
BITMAP
01B800
03B800
01B800
000000
01B800
03B800
61B800
600070
C00070
C00070
C00070
C00070
F000F0
7FFFBC
3FFFBC
0FFE1C
ENDCHAR
STARTCHAR FB64
ENCODING 64356
SWIDTH 280 0
DWIDTH 7 0
BBX 8 19 -1 0
BITMAP
37
77
37
00
37
77
37
00
00
0C
0C
0C
0E
06
06
0E
7C
FC
F0
ENDCHAR
STARTCHAR FB65
ENCODING 64357
SWIDTH 320 0
DWIDTH 8 0
BBX 9 18 -1 0
BITMAP
3300
3F00
3300
0000
3300
3F00
3300
0000
0000
0C00
0C00
0C00
0C00
0C00
1E00
7F80
F780
E380
ENDCHAR
STARTCHAR FB67
ENCODING 64359
SWIDTH 920 0
DWIDTH 23 0
BBX 22 15 1 0
BITMAP
018000
018000
01F000
01F800
018800
63F800
63F070
C00070
C00070
C00070
C00070
F000F0
7FFFBC
3FFFBC
0FFE1C
ENDCHAR
STARTCHAR FB68
ENCODING 64360
SWIDTH 280 0
DWIDTH 7 0
BBX 8 19 -1 0
BITMAP
30
30
3E
3F
31
7F
7E
00
00
0C
0C
0C
0E
06
06
0E
7C
FC
F0
ENDCHAR
STARTCHAR FB69
ENCODING 64361
SWIDTH 320 0
DWIDTH 8 0
BBX 9 17 -1 0
BITMAP
1000
1000
1E00
1F00
1100
3F00
3E00
0000
0C00
0C00
0C00
0C00
0C00
1E00
7F80
F780
E380
ENDCHAR
STARTCHAR FB6B
ENCODING 64363
SWIDTH 1000 0
DWIDTH 25 0
BBX 24 22 1 0
BITMAP
000060
000070
000060
000000
0001D8
0001D8
0001D8
000000
000000
0000F0
0001FC
0003FC
60038E
600306
C00306
C00306
C0030C
C0019C
F001F8
7FFFFF
3FFFDF
0FFE0F
ENDCHAR
STARTCHAR FB6C
ENCODING 64364
SWIDTH 480 0
DWIDTH 12 0
BBX 12 24 -1 0
BITMAP
0300
0700
0300
0000
0DC0
0DC0
0DC0
0000
0000
0000
0780
1FC0
1FE0
38E0
3060
3060
3FF0
1FF0
0F70
0060
00E0
7FE0
FFC0
FF80
ENDCHAR
STARTCHAR FB6D
ENCODING 64365
SWIDTH 440 0
DWIDTH 11 0
BBX 12 22 -1 0
BITMAP
0300
0700
0300
0000
0DC0
0DC0
0DC0
0000
0000
0780
1FC0
1FE0
38E0
3060
3060
3060
3860
18C0
0FC0
7FF0
FDF0
F870
ENDCHAR
STARTCHAR FB6F
ENCODING 64367
SWIDTH 1000 0
DWIDTH 25 0
BBX 24 22 1 0
BITMAP
0001D8
0001D8
0001D8
000000
0001D8
0001D8
0001D8
000000
000000
0000F0
0001FC
0003FC
60038E
600306
C00306
C00306
C0030C
C0019C
F001F8
7FFFFF
3FFFDF
0FFE0F
ENDCHAR
STARTCHAR FB70
ENCODING 64368
SWIDTH 480 0
DWIDTH 12 0
BBX 12 24 -1 0
BITMAP
0DC0
0DC0
0DC0
0000
0DC0
0DC0
0DC0
0000
0000
0000
0780
1FC0
1FE0
38E0
3060
3060
3FF0
1FF0
0F70
0060
00E0
7FE0
FFC0
FF80
ENDCHAR
STARTCHAR FB71
ENCODING 64369
SWIDTH 440 0
DWIDTH 11 0
BBX 12 22 -1 0
BITMAP
0DC0
0DC0
0DC0
0000
0DC0
0DC0
0DC0
0000
0000
0780
1FC0
1FE0
38E0
3060
3060
3060
3860
18C0
0FC0
7FF0
FDF0
F870
ENDCHAR
STARTCHAR FB73
ENCODING 64371
SWIDTH 640 0
DWIDTH 16 0
BBX 15 20 1 -8
BITMAP
3FE0
7FFC
7FFC
600C
607C
03F8
0FF0
3E30
7038
631E
C39E
C30E
C000
C300
C380
E30C
703E
7FFC
3FF8
0FE0
ENDCHAR
STARTCHAR FB74
ENCODING 64372
SWIDTH 640 0
DWIDTH 16 0
BBX 17 20 -1 -9
BITMAP
1E0000
3FC000
3FF800
33FF80
303F80
000F80
003C00
01F000
7FE000
FF8000
FE0000
000000
000000
00C000
01C000
00C000
000000
00C000
01C000
00C000
ENDCHAR
STARTCHAR FB75
ENCODING 64373
SWIDTH 680 0
DWIDTH 17 0
BBX 18 20 -1 -9
BITMAP
1E0000
3FC000
3FF800
33FF80
303F80
000F80
003E00
01F600
7FE7C0
FF83C0
FE01C0
000000
000000
00C000
01C000
00C000
000000
00C000
01C000
00C000
ENDCHAR
STARTCHAR FB77
ENCODING 64375
SWIDTH 640 0
DWIDTH 16 0
BBX 15 20 1 -8
BITMAP
3FE0
7FFC
7FFC
600C
607C
03F8
0FF0
3E30
7038
601E
CEDE
CFCE
CEC0
C000
C000
E00C
703E
7FFC
3FF8
0FE0
ENDCHAR
STARTCHAR FB78
ENCODING 64376
SWIDTH 640 0
DWIDTH 16 0
BBX 17 16 -1 -5
BITMAP
1E0000
3FC000
3FF800
33FF80
303F80
000F80
003C00
01F000
7FE000
FF8000
FE0000
000000
000000
037000
03F000
037000
ENDCHAR
STARTCHAR FB79
ENCODING 64377
SWIDTH 680 0
DWIDTH 17 0
BBX 18 16 -1 -5
BITMAP
1E0000
3FC000
3FF800
33FF80
303F80
000F80
003E00
01F600
7FE7C0
FF83C0
FE01C0
000000
000000
037000
03F000
037000
ENDCHAR
STARTCHAR FB7B
ENCODING 64379
SWIDTH 640 0
DWIDTH 16 0
BBX 15 20 1 -8
BITMAP
3FE0
7FFC
7FFC
600C
607C
03F8
0FF0
3E30
7038
6EDE
CFDE
CECE
C300
C300
C300
E00C
703E
7FFC
3FF8
0FE0
ENDCHAR
STARTCHAR FB7C
ENCODING 64380
SWIDTH 640 0
DWIDTH 16 0
BBX 17 21 -1 -10
BITMAP
1E0000
3FC000
3FF800
33FF80
303F80
000F80
003C00
01F000
7FE000
FF8000
FE0000
000000
000000
000000
037000
03F000
037000
000000
00C000
01C000
00C000
ENDCHAR
STARTCHAR FB7D
ENCODING 64381
SWIDTH 680 0
DWIDTH 17 0
BBX 18 21 -1 -10
BITMAP
1E0000
3FC000
3FF800
33FF80
303F80
000F80
003E00
01F600
7FE7C0
FF83C0
FE01C0
000000
000000
000000
037000
03F000
037000
000000
00C000
01C000
00C000
ENDCHAR
STARTCHAR FB7F
ENCODING 64383
SWIDTH 640 0
DWIDTH 16 0
BBX 15 20 1 -8
BITMAP
3FE0
7FFC
7FFC
600C
607C
03F8
0FF0
3E30
7EF8
6FDE
CEDE
C00E
CEC0
CFC0
CEC0
E00C
703E
7FFC
3FF8
0FE0
ENDCHAR
STARTCHAR FB80
ENCODING 64384
SWIDTH 640 0
DWIDTH 16 0
BBX 17 20 -1 -9
BITMAP
1E0000
3FC000
3FF800
33FF80
303F80
000F80
003C00
01F000
7FE000
FF8000
FE0000
000000
000000
037000
03F000
037000
000000
037000
03F000
037000
ENDCHAR
STARTCHAR FB81
ENCODING 64385
SWIDTH 680 0
DWIDTH 17 0
BBX 18 20 -1 -9
BITMAP
1E0000
3FC000
3FF800
33FF80
303F80
000F80
003E00
01F600
7FE7C0
FF83C0
FE01C0
000000
000000
037000
03F000
037000
000000
037000
03F000
037000
ENDCHAR
STARTCHAR FB83
ENCODING 64387
SWIDTH 560 0
DWIDTH 14 0
BBX 13 18 1 -5
BITMAP
0700
0700
0300
0380
0380
0180
01C0
01C0
C0C0
C0E0
FFF8
FF78
7E38
0000
0000
1B80
3B80
1B80
ENDCHAR
STARTCHAR FB85
ENCODING 64389
SWIDTH 560 0
DWIDTH 14 0
BBX 13 18 1 0
BITMAP
1B80
1B80
1B80
0000
0000
0700
0700
0300
0380
0380
0180
01C0
01C0
C0C0
C0E0
FFF8
FF78
7E38
ENDCHAR
STARTCHAR FB87
ENCODING 64391
SWIDTH 560 0
DWIDTH 14 0
BBX 13 22 1 0
BITMAP
0600
0E00
0600
0000
1B80
1F80
1B80
0000
0000
0700
0700
0300
0380
0380
0180
01C0
01C0
C0C0
C0E0
FFF8
FF78
7E38
ENDCHAR
STARTCHAR FB89
ENCODING 64393
SWIDTH 560 0
DWIDTH 14 0
BBX 13 21 1 0
BITMAP
0800
0800
0F00
0F80
0880
1F80
1F00
0000
0700
0700
0300
0380
0380
0180
01C0
01C0
C0C0
C0E0
FFF8
FF78
7E38
ENDCHAR
STARTCHAR FB8B
ENCODING 64395
SWIDTH 320 0
DWIDTH 8 0
BBX 10 23 -2 -6
BITMAP
0600
0E00
0600
0000
1B80
1F80
1B80
0000
0000
0600
0700
0700
0300
0300
03C0
03C0
03C0
0300
0700
0E00
FE00
FC00
F000
ENDCHAR
STARTCHAR FB8D
ENCODING 64397
SWIDTH 320 0
DWIDTH 8 0
BBX 10 22 -2 -6
BITMAP
0800
0800
0F00
0F80
0880
1F80
1F00
0000
0600
0700
0700
0300
0300
03C0
03C0
03C0
0300
0700
0E00
FE00
FC00
F000
ENDCHAR
STARTCHAR FB8F
ENCODING 64399
SWIDTH 1000 0
DWIDTH 25 0
BBX 24 19 1 0
BITMAP
000003
00000F
00007F
0001FC
000FF0
000F80
000C00
000C00
000E00
600F00
600700
C00380
C001C0
C001E0
C000F0
F000BC
7FFFBF
3FFF9F
0FFF07
ENDCHAR
STARTCHAR FB90
ENCODING 64400
SWIDTH 360 0
DWIDTH 9 0
BBX 13 19 -1 0
BITMAP
0018
0078
03F8
0FE0
7F80
7C00
6000
6000
7000
7800
3E00
1E00
0700
0300
0300
0300
7F00
FF00
FC00
ENDCHAR
STARTCHAR FB91
ENCODING 64401
SWIDTH 480 0
DWIDTH 12 0
BBX 13 19 -1 0
BITMAP
0018
0078
03F8
0FE0
7F80
7C00
6000
6000
7000
7800
3800
1C00
0E00
0F00
0780
05E0
7DF8
FCF8
F838
ENDCHAR
STARTCHAR FB93
ENCODING 64403
SWIDTH 1000 0
DWIDTH 25 0
BBX 24 22 1 0
BITMAP
000001
00000F
000038
0001E3
00070F
00087F
0001FC
000FF0
000F80
000C00
000C00
000E00
600F00
600700
C00380
C001C0
C001E0
C000F0
F000BC
7FFFBF
3FFF9F
0FFF07
ENDCHAR
STARTCHAR FB94
ENCODING 64404
SWIDTH 360 0
DWIDTH 9 0
BBX 13 22 -1 0
BITMAP
0008
0078
01C0
0F18
3878
63F8
0FE0
7F80
7C00
6000
6000
7000
7800
3E00
1E00
0700
0300
0300
0300
7F00
FF00
FC00
ENDCHAR
STARTCHAR FB95
ENCODING 64405
SWIDTH 480 0
DWIDTH 12 0
BBX 13 22 -1 0
BITMAP
0008
0078
01C0
0F18
3878
63F8
0FE0
7F80
7C00
6000
6000
7000
7800
3800
1C00
0E00
0F00
0780
05E0
7DF8
FCF8
F838
ENDCHAR
STARTCHAR FB97
ENCODING 64407
SWIDTH 1000 0
DWIDTH 25 0
BBX 24 31 1 -9
BITMAP
000001
00000F
000038
0001E3
00070F
00087F
0001FC
000FF0
000F80
000C00
000C00
000E00
600F00
600700
C00380
C001C0
C001E0
C000F0
F000BC
7FFFBF
3FFF9F
0FFF07
000000
000000
00E000
00E000
00E000
000000
00E000
00E000
00E000
ENDCHAR
STARTCHAR FB98
ENCODING 64408
SWIDTH 360 0
DWIDTH 9 0
BBX 13 31 -1 -9
BITMAP
0008
0078
01C0
0F18
3878
63F8
0FE0
7F80
7C00
6000
6000
7000
7800
3E00
1E00
0700
0300
0300
0300
7F00
FF00
FC00
0000
0000
0600
0700
0600
0000
0600
0700
0600
ENDCHAR
STARTCHAR FB99
ENCODING 64409
SWIDTH 480 0
DWIDTH 12 0
BBX 13 31 -1 -9
BITMAP
0008
0078
01C0
0F18
3878
63F8
0FE0
7F80
7C00
6000
6000
7000
7800
3800
1C00
0E00
0F00
0780
05E0
7DF8
FCF8
F838
0000
0000
0E00
0E00
0E00
0000
0E00
0E00
0E00
ENDCHAR
STARTCHAR FB9B
ENCODING 64411
SWIDTH 1000 0
DWIDTH 25 0
BBX 24 24 1 0
BITMAP
007600
007E00
007601
00000F
000038
0001E3
00070F
00087F
0001FC
000FF0
000F80
000C00
000C00
000E00
600F00
600700
C00380
C001C0
C001E0
C000F0
F000BC
7FFFBF
3FFF9F
0FFF07
ENDCHAR
STARTCHAR FB9C
ENCODING 64412
SWIDTH 360 0
DWIDTH 9 0
BBX 15 24 -3 0
BITMAP
EC00
EC00
EC02
001E
0070
03C6
0E1E
18FE
03F8
1FE0
1F00
1800
1800
1C00
1E00
0F80
0780
01C0
00C0
00C0
00C0
1FC0
3FC0
3F00
ENDCHAR
STARTCHAR FB9D
ENCODING 64413
SWIDTH 480 0
DWIDTH 12 0
BBX 15 24 -3 0
BITMAP
EC00
EC00
EC02
001E
0070
03C6
0E1E
18FE
03F8
1FE0
1F00
1800
1800
1C00
1E00
0E00
0700
0380
03C0
01E0
0178
1F7E
3F3E
3E0E
ENDCHAR
STARTCHAR FB9F
ENCODING 64415
SWIDTH 720 0
DWIDTH 18 0
BBX 17 14 1 -6
BITMAP
000C00
000C00
600C00
600E00
C00600
C00780
C00780
C00780
C00600
E00E00
701C00
7FFC00
3FF800
0FE000
ENDCHAR
STARTCHAR FBA1
ENCODING 64417
SWIDTH 720 0
DWIDTH 18 0
BBX 17 20 1 -6
BITMAP
060000
060000
07C000
07C000
066000
0FE000
0FCC00
000C00
600C00
600E00
C00600
C00780
C00780
C00780
C00600
E00E00
701C00
7FFC00
3FF800
0FE000
ENDCHAR
STARTCHAR FBA5
ENCODING 64421
SWIDTH 480 0
DWIDTH 12 0
BBX 11 20 1 0
BITMAP
0700
0F80
0900
0800
1F80
1F80
0000
0380
0380
0F80
3F80
7F80
E380
C380
C380
FD80
FD80
79E0
01E0
00E0
ENDCHAR
STARTCHAR FBA7
ENCODING 64423
SWIDTH 600 0
DWIDTH 15 0
BBX 15 9 0 0
BITMAP
01E0
07F0
1FF0
3E38
F838
701C
401E
001E
000E
ENDCHAR
STARTCHAR FBA8
ENCODING 64424
SWIDTH 480 0
DWIDTH 12 0
BBX 12 13 -1 -6
BITMAP
0070
0C30
0E30
1C30
7FF0
FFE0
E3C0
0000
0600
0C00
0C00
0C00
0C00
ENDCHAR
STARTCHAR FBA9
ENCODING 64425
SWIDTH 600 0
DWIDTH 15 0
BBX 16 14 -1 -7
BITMAP
0080
01C0
0180
0380
7F0F
FF0F
FF1F
0318
1B18
33B0
3BB0
3BF0
39E0
00E0
ENDCHAR
STARTCHAR FBAB
ENCODING 64427
SWIDTH 560 0
DWIDTH 14 0
BBX 13 16 1 -6
BITMAP
03C0
07E0
0FF0
0E70
1C30
1830
3870
FFF8
FFF8
FFB8
3830
1830
1C70
0FE0
07E0
03C0
ENDCHAR
STARTCHAR FBAC
ENCODING 64428
SWIDTH 640 0
DWIDTH 16 0
BBX 16 14 -1 0
BITMAP
0200
0180
07E0
1FF8
1FFC
38FE
306E
3067
3863
18E3
0FC3
7FFF
FDFE
F87E
ENDCHAR
STARTCHAR FBAD
ENCODING 64429
SWIDTH 480 0
DWIDTH 12 0
BBX 13 16 -1 -6
BITMAP
03C0
07E0
0FF0
0E70
1C30
1870
3860
7FF8
FFF8
FFB8
3830
1870
1C70
0FE0
0FE0
07C0
ENDCHAR
STARTCHAR FBAF
ENCODING 64431
SWIDTH 320 0
DWIDTH 8 0
BBX 16 9 1 -6
BITMAP
3E00
7E00
FE00
E000
C000
C000
FFFF
FFFF
7FFF
ENDCHAR
STARTCHAR FBB1
ENCODING 64433
SWIDTH 320 0
DWIDTH 8 0
BBX 16 17 1 -6
BITMAP
1C00
1E00
3400
1000
3E00
3E00
0000
0000
3E00
7E00
FE00
E000
C000
C000
FFFF
FFFF
7FFF
ENDCHAR
STARTCHAR FBB2
ENCODING 64434
SWIDTH 0 0
DWIDTH 0 0
BBX 3 3 0 9
BITMAP
60
E0
60
ENDCHAR
STARTCHAR FBB3
ENCODING 64435
SWIDTH 0 0
DWIDTH 0 0
BBX 3 3 0 9
BITMAP
60
E0
60
ENDCHAR
STARTCHAR FBB4
ENCODING 64436
SWIDTH 0 0
DWIDTH 0 0
BBX 7 3 0 9
BITMAP
6C
EE
6C
ENDCHAR
STARTCHAR FBB5
ENCODING 64437
SWIDTH 0 0
DWIDTH 0 0
BBX 7 3 0 9
BITMAP
6C
EE
6C
ENDCHAR
STARTCHAR FBB6
ENCODING 64438
SWIDTH 0 0
DWIDTH 0 0
BBX 7 7 0 9
BITMAP
38
38
38
00
6C
EE
6C
ENDCHAR
STARTCHAR FBB7
ENCODING 64439
SWIDTH 0 0
DWIDTH 0 0
BBX 7 7 0 8
BITMAP
38
38
38
00
6C
EE
6C
ENDCHAR
STARTCHAR FBB8
ENCODING 64440
SWIDTH 0 0
DWIDTH 0 0
BBX 7 7 0 9
BITMAP
6C
EE
6C
00
38
38
38
ENDCHAR
STARTCHAR FBB9
ENCODING 64441
SWIDTH 0 0
DWIDTH 0 0
BBX 7 7 0 8
BITMAP
6C
EE
6C
00
38
38
38
ENDCHAR
STARTCHAR FBBA
ENCODING 64442
SWIDTH 0 0
DWIDTH 0 0
BBX 7 7 0 9
BITMAP
6C
EE
6C
00
6C
EE
6C
ENDCHAR
STARTCHAR FBBB
ENCODING 64443
SWIDTH 0 0
DWIDTH 0 0
BBX 7 7 0 8
BITMAP
6C
EE
6C
00
6C
EE
6C
ENDCHAR
STARTCHAR FBBC
ENCODING 64444
SWIDTH 200 0
DWIDTH 5 0
BBX 4 4 1 10
BITMAP
B0
B0
B0
B0
ENDCHAR
STARTCHAR FBBD
ENCODING 64445
SWIDTH 0 0
DWIDTH 0 0
BBX 3 7 4 8
BITMAP
E0
E0
E0
00
E0
E0
E0
ENDCHAR
STARTCHAR FBBE
ENCODING 64446
SWIDTH 0 0
DWIDTH 0 0
BBX 3 7 4 8
BITMAP
E0
E0
E0
00
E0
E0
E0
ENDCHAR
STARTCHAR FBBF
ENCODING 64447
SWIDTH 0 0
DWIDTH 0 0
BBX 6 6 0 9
BITMAP
38
78
CC
CC
78
38
ENDCHAR
STARTCHAR FBC0
ENCODING 64448
SWIDTH 280 0
DWIDTH 7 0
BBX 7 7 0 9
BITMAP
60
60
7C
7E
62
FE
FC
ENDCHAR
STARTCHAR FBC1
ENCODING 64449
SWIDTH 0 0
DWIDTH 0 0
BBX 7 7 0 9
BITMAP
60
60
7C
7E
62
FE
FC
ENDCHAR
STARTCHAR FBD4
ENCODING 64468
SWIDTH 920 0
DWIDTH 23 0
BBX 22 23 1 0
BITMAP
006000
006000
006000
000000
019870
01F870
019870
000070
000070
003070
00E070
00C070
00F070
60F870
603070
C0F070
C1C070
C00070
C00070
F000F0
7FFFBC
3FFFBC
0FFE1C
ENDCHAR
STARTCHAR FBD5
ENCODING 64469
SWIDTH 360 0
DWIDTH 9 0
BBX 13 26 -1 0
BITMAP
1C00
1C00
1C00
0000
3700
7700
3700
0018
0078
03F8
0FE0
7F80
7C00
6000
6000
7000
7800
3E00
1E00
0700
0300
0300
0300
7F00
FF00
FC00
ENDCHAR
STARTCHAR FBD6
ENCODING 64470
SWIDTH 480 0
DWIDTH 12 0
BBX 13 26 -1 0
BITMAP
1C00
1C00
1C00
0000
3700
7700
3700
0018
0078
03F8
0FE0
7F80
7C00
6000
6000
7000
7800
3800
1C00
0E00
0F00
0780
05E0
7DF8
FCF8
F838
ENDCHAR
STARTCHAR FBD8
ENCODING 64472
SWIDTH 480 0
DWIDTH 12 0
BBX 11 25 1 -6
BITMAP
0E00
1F00
1B00
1B00
0E00
1C00
7000
4000
0000
1E00
3F00
7F80
E380
C180
C180
E1C0
FFE0
7FE0
3FE0
0180
0380
0700
FF00
FE00
F800
ENDCHAR
STARTCHAR FBDA
ENCODING 64474
SWIDTH 480 0
DWIDTH 12 0
BBX 11 23 1 -6
BITMAP
3300
3200
1E00
1E00
0C00
0000
0000
1E00
3F00
7F80
E380
C180
C180
E1C0
FFE0
7FE0
3FE0
0180
0380
0700
FF00
FE00
F800
ENDCHAR
STARTCHAR FBDC
ENCODING 64476
SWIDTH 480 0
DWIDTH 12 0
BBX 11 22 1 -6
BITMAP
0C00
0C00
0C00
0C00
0000
0000
1E00
3F00
7F80
E380
C180
C180
E1C0
FFE0
7FE0
3FE0
0180
0380
0700
FF00
FE00
F800
ENDCHAR
STARTCHAR FBDF
ENCODING 64479
SWIDTH 480 0
DWIDTH 12 0
BBX 11 25 1 -6
BITMAP
0C00
1C00
0C00
0000
3700
3F00
3700
0000
0000
1E00
3F00
7F80
E380
C180
C180
E1C0
FFE0
7FE0
3FE0
0180
0380
0700
FF00
FE00
F800
ENDCHAR
STARTCHAR FBE1
ENCODING 64481
SWIDTH 480 0
DWIDTH 12 0
BBX 11 16 1 -6
BITMAP
1E00
3F00
7F80
E380
C180
C180
E1C0
FFE0
7FE0
3FE0
0180
FF80
0F00
FF00
FE00
F800
ENDCHAR
STARTCHAR FBE3
ENCODING 64483
SWIDTH 480 0
DWIDTH 12 0
BBX 11 23 1 -6
BITMAP
0C00
1E00
1600
3600
3300
0000
0000
1E00
3F00
7F80
E380
C180
C180
E1C0
FFE0
7FE0
3FE0
0180
0380
0700
FF00
FE00
F800
ENDCHAR
STARTCHAR FBE5
ENCODING 64485
SWIDTH 720 0
DWIDTH 18 0
BBX 17 21 1 -15
BITMAP
600000
600000
C07000
C07F80
C07F80
C00F80
C00180
E00380
700F00
7FFE00
3FFC00
0FF000
000000
000000
018000
018000
018000
000000
018000
018000
018000
ENDCHAR
STARTCHAR FBE6
ENCODING 64486
SWIDTH 280 0
DWIDTH 7 0
BBX 7 19 -1 -9
BITMAP
0C
0C
0C
0E
06
06
0E
7C
FC
F0
00
00
1C
1C
1C
00
1C
1C
1C
ENDCHAR
STARTCHAR FBE7
ENCODING 64487
SWIDTH 320 0
DWIDTH 8 0
BBX 9 18 -1 -9
BITMAP
0C00
0C00
0C00
0C00
0C00
1E00
7F80
F780
E380
0000
0000
0C00
0C00
0C00
0000
0C00
0C00
0C00
ENDCHAR
STARTCHAR FBE8
ENCODING 64488
SWIDTH 280 0
DWIDTH 7 0
BBX 7 10 -1 0
BITMAP
0C
0C
0C
0E
06
06
0E
7C
FC
F0
ENDCHAR
STARTCHAR FBE9
ENCODING 64489
SWIDTH 320 0
DWIDTH 8 0
BBX 9 9 -1 0
BITMAP
0C00
0C00
0C00
0C00
0C00
1E00
7F80
F780
E380
ENDCHAR
STARTCHAR FBFD
ENCODING 64509
SWIDTH 720 0
DWIDTH 18 0
BBX 17 12 1 -6
BITMAP
600000
600000
C07000
C07F80
C07F80
C00F80
C00180
E00380
700F00
7FFE00
3FFC00
0FF000
ENDCHAR
STARTCHAR FBFE
ENCODING 64510
SWIDTH 280 0
DWIDTH 7 0
BBX 8 15 -1 -5
BITMAP
0C
0C
0C
0E
06
06
0E
7C
FC
F0
00
00
37
77
37
ENDCHAR
STARTCHAR FBFF
ENCODING 64511
SWIDTH 320 0
DWIDTH 8 0
BBX 9 14 -1 -5
BITMAP
0C00
0C00
0C00
0C00
0C00
1E00
7F80
F780
E380
0000
0000
3300
3F00
3300
ENDCHAR
STARTCHAR FC03
ENCODING 64515
SWIDTH 760 0
DWIDTH 19 0
BBX 17 25 1 -6
BITMAP
000E00
001F00
001A00
001800
001F00
001F00
000000
000000
000600
000600
000600
000600
000600
600600
600600
C07E00
C07E00
C07F80
C00F80
C00180
E00380
700F00
7FFF00
3FFC00
0FF000
ENDCHAR
STARTCHAR FC04
ENCODING 64516
SWIDTH 760 0
DWIDTH 19 0
BBX 17 30 1 -11
BITMAP
000E00
001F00
001A00
001800
001F00
001F00
000000
000000
000600
000600
000600
000600
000600
600600
600600
C07E00
C07E00
C07F80
C00F80
C00180
E00380
700F00
7FFF00
3FFC00
0FF000
000000
000000
066000
07E000
066000
ENDCHAR
STARTCHAR FC09
ENCODING 64521
SWIDTH 760 0
DWIDTH 19 0
BBX 17 20 1 -9
BITMAP
000600
000600
000600
000600
000600
600600
600600
C07E00
C07E00
C07F80
C00F80
C00180
E00380
700F00
7FFF00
3FFC00
0FF000
000180
000380
000180
ENDCHAR
STARTCHAR FC0A
ENCODING 64522
SWIDTH 760 0
DWIDTH 19 0
BBX 17 22 1 -11
BITMAP
000600
000600
000600
000600
000600
600600
600600
C07E00
C07E00
C07F80
C00F80
C00180
E00380
700F00
7FFF00
3FFC00
0FF000
000180
000380
066180
07E000
066000
ENDCHAR
STARTCHAR FC0F
ENCODING 64527
SWIDTH 760 0
DWIDTH 19 0
BBX 17 22 1 -6
BITMAP
003B00
003B80
003B00
000000
000000
000600
000600
000600
000600
000600
600600
600600
C07E00
C07E00
C07F80
C00F80
C00180
E00380
700F00
7FFF00
3FFC00
0FF000
ENDCHAR
STARTCHAR FC10
ENCODING 64528
SWIDTH 760 0
DWIDTH 19 0
BBX 17 27 1 -11
BITMAP
003B00
003B80
003B00
000000
000000
000600
000600
000600
000600
000600
600600
600600
C07E00
C07E00
C07F80
C00F80
C00180
E00380
700F00
7FFF00
3FFC00
0FF000
000000
000000
066000
07E000
066000
ENDCHAR
STARTCHAR FC13
ENCODING 64531
SWIDTH 760 0
DWIDTH 19 0
BBX 17 26 1 -6
BITMAP
000E00
000E00
000E00
000000
003B00
003B80
001B00
000000
000000
000600
000600
000600
000600
000600
600600
600600
C07E00
C07E00
C07F80
C00F80
C00180
E00380
700F00
7FFF00
3FFC00
0FF000
ENDCHAR
STARTCHAR FC14
ENCODING 64532
SWIDTH 760 0
DWIDTH 19 0
BBX 17 31 1 -11
BITMAP
000E00
000E00
000E00
000000
003B00
003B80
001B00
000000
000000
000600
000600
000600
000600
000600
600600
600600
C07E00
C07E00
C07F80
C00F80
C00180
E00380
700F00
7FFF00
3FFC00
0FF000
000000
000000
066000
07E000
066000
ENDCHAR
STARTCHAR FC31
ENCODING 64561
SWIDTH 760 0
DWIDTH 19 0
BBX 17 27 1 -6
BITMAP
003800
003800
003800
000000
000000
000000
007C00
00FE00
01FE00
018700
018300
018300
01FF00
01FF00
00FB00
600300
600700
C07E00
C07E00
C07F80
C00F80
C00180
E00380
700F00
7FFF00
3FFC00
0FF000
ENDCHAR
STARTCHAR FC32
ENCODING 64562
SWIDTH 760 0
DWIDTH 19 0
BBX 17 32 1 -11
BITMAP
003800
003800
003800
000000
000000
000000
007C00
00FE00
01FE00
018700
018300
018300
01FF00
01FF00
00FB00
600300
600700
C07E00
C07E00
C07F80
C00F80
C00180
E00380
700F00
7FFF00
3FFC00
0FF000
000000
000000
066000
07E000
066000
ENDCHAR
STARTCHAR FC35
ENCODING 64565
SWIDTH 760 0
DWIDTH 19 0
BBX 17 27 1 -6
BITMAP
006C00
00EE00
006C00
000000
000000
000000
007C00
00FE00
01FE00
018700
018300
018300
01FF00
01FF00
00FB00
600300
600700
C07E00
C07E00
C07F80
C00F80
C00180
E00380
700F00
7FFF00
3FFC00
0FF000
ENDCHAR
STARTCHAR FC36
ENCODING 64566
SWIDTH 760 0
DWIDTH 19 0
BBX 17 32 1 -11
BITMAP
006C00
00EE00
006C00
000000
000000
000000
007C00
00FE00
01FE00
018700
018300
018300
01FF00
01FF00
00FB00
600300
600700
C07E00
C07E00
C07F80
C00F80
C00180
E00380
700F00
7FFF00
3FFC00
0FF000
000000
000000
066000
07E000
066000
ENDCHAR
STARTCHAR FC3D
ENCODING 64573
SWIDTH 800 0
DWIDTH 20 0
BBX 19 26 1 -6
BITMAP
000020
0000E0
0007E0
001FC0
00FE00
00F800
00C000
00C000
00E000
00F000
007800
003C00
001E00
000600
600600
600600
C07E00
C07E00
C07F80
C00F80
C00180
E00380
700F00
7FFF00
3FFC00
0FF000
ENDCHAR
STARTCHAR FC3E
ENCODING 64574
SWIDTH 800 0
DWIDTH 20 0
BBX 19 31 1 -11
BITMAP
000020
0000E0
0007E0
001FC0
00FE00
00F800
00C000
00C000
00E000
00F000
007800
003C00
001E00
000600
600600
600600
C07E00
C07E00
C07F80
C00F80
C00180
E00380
700F00
7FFF00
3FFC00
0FF000
000000
000000
066000
07E000
066000
ENDCHAR
STARTCHAR FC42
ENCODING 64578
SWIDTH 440 0
DWIDTH 11 0
BBX 10 27 1 -8
BITMAP
0C00
0C00
0C00
0C00
0C00
0C00
0C00
0C00
0C00
0C00
0C00
0C00
0C00
3F00
7FC0
7FC0
E180
E000
E000
E000
E000
E000
E000
E000
E000
E000
E000
ENDCHAR
STARTCHAR FC43
ENCODING 64579
SWIDTH 760 0
DWIDTH 19 0
BBX 17 25 1 -6
BITMAP
000700
000700
000700
000700
000700
000700
000700
000700
000700
000700
000700
000700
000700
600700
600600
C07E00
C07E00
C07F80
C00F80
C00180
E00380
700F00
7FFF00
3FFC00
0FF000
ENDCHAR
STARTCHAR FC44
ENCODING 64580
SWIDTH 760 0
DWIDTH 19 0
BBX 17 30 1 -11
BITMAP
000700
000700
000700
000700
000700
000700
000700
000700
000700
000700
000700
000700
000700
600700
600600
C07E00
C07E00
C07F80
C00F80
C00180
E00380
700F00
7FFF00
3FFC00
0FF000
000000
000000
066000
07E000
066000
ENDCHAR
STARTCHAR FC4F
ENCODING 64591
SWIDTH 760 0
DWIDTH 19 0
BBX 17 22 1 -6
BITMAP
000E00
000E00
000E00
000000
000000
000600
000600
000600
000600
000600
600600
600600
C07E00
C07E00
C07F80
C00F80
C00180
E00380
700F00
7FFF00
3FFC00
0FF000
ENDCHAR
STARTCHAR FC50
ENCODING 64592
SWIDTH 760 0
DWIDTH 19 0
BBX 17 27 1 -11
BITMAP
000E00
000E00
000E00
000000
000000
000600
000600
000600
000600
000600
600600
600600
C07E00
C07E00
C07F80
C00F80
C00180
E00380
700F00
7FFF00
3FFC00
0FF000
000000
000000
066000
07E000
066000
ENDCHAR
STARTCHAR FC59
ENCODING 64601
SWIDTH 760 0
DWIDTH 19 0
BBX 19 20 1 -9
BITMAP
000600
000600
000600
000600
000600
600600
600600
C07E00
C07E00
C07F80
C00F80
C00180
E00380
700F00
7FFF00
3FFC00
0FF000
0006E0
0007E0
0006E0
ENDCHAR
STARTCHAR FC5A
ENCODING 64602
SWIDTH 760 0
DWIDTH 19 0
BBX 19 22 1 -11
BITMAP
000600
000600
000600
000600
000600
600600
600600
C07E00
C07E00
C07F80
C00F80
C00180
E00380
700F00
7FFF00
3FFC00
0FF000
0006E0
0007E0
0666E0
07E000
066000
ENDCHAR
STARTCHAR FC5B
ENCODING 64603
SWIDTH 480 0
DWIDTH 12 0
BBX 10 24 1 0
BITMAP
0800
0800
0800
0800
0000
0000
1C00
1C00
1C00
0000
0000
0C00
1C00
1E00
0F00
0780
03C0
01C0
00C0
C0C0
C0C0
FFC0
FF80
7F00
ENDCHAR
STARTCHAR FC5C
ENCODING 64604
SWIDTH 280 0
DWIDTH 7 0
BBX 8 19 -2 -6
BITMAP
06
06
06
06
00
06
07
07
03
03
03
03
03
03
07
0E
FE
FC
F0
ENDCHAR
STARTCHAR FC5D
ENCODING 64605
SWIDTH 760 0
DWIDTH 19 0
BBX 17 19 1 -6
BITMAP
003E00
007F00
60FF80
60C300
618200
618000
018000
618000
61F000
C1FF00
C07F80
C00F80
C00180
C00180
E00380
700F00
7FFE00
3FFC00
0FF000
ENDCHAR
STARTCHAR FC64
ENCODING 64612
SWIDTH 600 0
DWIDTH 15 0
BBX 17 22 -2 -6
BITMAP
000E00
001E00
001200
001800
003F00
003F00
000000
000C00
060C00
073C00
07FC00
03FC00
03CC00
030F80
030F80
030380
030000
070000
0E0000
FE0000
FC0000
F00000
ENDCHAR
STARTCHAR FC65
ENCODING 64613
SWIDTH 600 0
DWIDTH 15 0
BBX 17 22 -2 -6
BITMAP
000E00
001E00
001200
061800
0E3F00
063F00
000000
000C00
060C00
073C00
07FC00
03FC00
03CC00
030F80
030F80
030380
030000
070000
0E0000
FE0000
FC0000
F00000
ENDCHAR
STARTCHAR FC67
ENCODING 64615
SWIDTH 1000 0
DWIDTH 25 0
BBX 24 22 1 -6
BITMAP
00003C
00003C
000028
000020
00007E
00007E
038000
038018
038C18
000C78
600FF8
600FF8
C00718
C0061F
C0061F
C0060F
C00600
E00E00
701C00
7FFC00
3FF800
0FE000
ENDCHAR
STARTCHAR FC68
ENCODING 64616
SWIDTH 920 0
DWIDTH 23 0
BBX 22 25 1 -6
BITMAP
000E00
001F00
001A00
001800
001F00
001F00
000000
000000
001F00
003F80
007FC0
00E1C0
00C0E0
6180E0
61C060
C1F070
C0FF30
C07FBC
C0079C
C00180
E00380
700700
7FFF00
3FFC00
0FF000
ENDCHAR
STARTCHAR FC69
ENCODING 64617
SWIDTH 920 0
DWIDTH 23 0
BBX 22 30 1 -11
BITMAP
000E00
001F00
001A00
001800
001F00
001F00
000000
000000
001F00
003F80
007FC0
00E1C0
00C0E0
6180E0
61C060
C1F070
C0FF30
C07FBC
C0079C
C00180
E00380
700700
7FFF00
3FFC00
0FF000
000000
000000
066000
07E000
066000
ENDCHAR
STARTCHAR FC6A
ENCODING 64618
SWIDTH 600 0
DWIDTH 15 0
BBX 17 15 -2 -6
BITMAP
000C00
060C00
073C00
07FC00
03FC00
03CC00
030F80
030F80
030380
030000
070000
0E0C00
FE1C00
FC0C00
F00000
ENDCHAR
STARTCHAR FC6B
ENCODING 64619
SWIDTH 600 0
DWIDTH 15 0
BBX 17 19 -2 -6
BITMAP
060000
0E0000
060000
000000
000C00
060C00
073C00
07FC00
03FC00
03CC00
030F80
030F80
030380
030000
070000
0E0C00
FE1C00
FC0C00
F00000
ENDCHAR
STARTCHAR FC6D
ENCODING 64621
SWIDTH 1000 0
DWIDTH 25 0
BBX 24 16 1 -6
BITMAP
038000
038018
038C18
000C78
600FF8
600FF8
C00718
C0061F
C0061F
C0060F
C00600
E00E00
701C18
7FFC38
3FF818
0FE000
ENDCHAR
STARTCHAR FC6E
ENCODING 64622
SWIDTH 920 0
DWIDTH 23 0
BBX 22 20 1 -9
BITMAP
001F00
003F80
007FC0
00E1C0
00C0E0
6180E0
61C060
C1F070
C0FF30
C07FBC
C0079C
C00180
E00380
700700
7FFF00
3FFC00
0FF000
000180
000380
000180
ENDCHAR
STARTCHAR FC6F
ENCODING 64623
SWIDTH 920 0
DWIDTH 23 0
BBX 22 22 1 -11
BITMAP
001F00
003F80
007FC0
00E1C0
00C0E0
6180E0
61C060
C1F070
C0FF30
C07FBC
C0079C
C00180
E00380
700700
7FFF00
3FFC00
0FF000
000180
000380
066180
07E000
066000
ENDCHAR
STARTCHAR FC70
ENCODING 64624
SWIDTH 600 0
DWIDTH 15 0
BBX 17 20 -2 -6
BITMAP
003700
003F00
003700
000000
000000
000C00
060C00
073C00
07FC00
03FC00
03CC00
030F80
030F80
030380
030000
070000
0E0000
FE0000
FC0000
F00000
ENDCHAR
STARTCHAR FC71
ENCODING 64625
SWIDTH 600 0
DWIDTH 15 0
BBX 17 20 -2 -6
BITMAP
003700
063F00
0E3700
060000
000000
000C00
060C00
073C00
07FC00
03FC00
03CC00
030F80
030F80
030380
030000
070000
0E0000
FE0000
FC0000
F00000
ENDCHAR
STARTCHAR FC73
ENCODING 64627
SWIDTH 1000 0
DWIDTH 25 0
BBX 24 20 1 -6
BITMAP
00006E
00006E
00006E
000000
038000
038018
038C18
000C78
600FF8
600FF8
C00718
C0061F
C0061F
C0060F
C00600
E00E00
701C00
7FFC00
3FF800
0FE000
ENDCHAR
STARTCHAR FC74
ENCODING 64628
SWIDTH 920 0
DWIDTH 23 0
BBX 22 23 1 -6
BITMAP
003B00
003B80
003B00
000000
000000
000000
001F00
003F80
007FC0
00E1C0
00C0E0
6180E0
61C060
C1F070
C0FF30
C07FBC
C0079C
C00180
E00380
700700
7FFF00
3FFC00
0FF000
ENDCHAR
STARTCHAR FC75
ENCODING 64629
SWIDTH 920 0
DWIDTH 23 0
BBX 22 28 1 -11
BITMAP
003B00
003B80
003B00
000000
000000
000000
001F00
003F80
007FC0
00E1C0
00C0E0
6180E0
61C060
C1F070
C0FF30
C07FBC
C0079C
C00180
E00380
700700
7FFF00
3FFC00
0FF000
000000
000000
066000
07E000
066000
ENDCHAR
STARTCHAR FC76
ENCODING 64630
SWIDTH 600 0
DWIDTH 15 0
BBX 17 24 -2 -6
BITMAP
000C00
001C00
000C00
000000
003700
003F00
003300
000000
000000
000C00
060C00
073C00
07FC00
03FC00
03CC00
030F80
030F80
030380
030000
070000
0E0000
FE0000
FC0000
F00000
ENDCHAR
STARTCHAR FC77
ENCODING 64631
SWIDTH 600 0
DWIDTH 15 0
BBX 17 24 -2 -6
BITMAP
000C00
001C00
000C00
000000
003700
063F00
0E3300
060000
000000
000C00
060C00
073C00
07FC00
03FC00
03CC00
030F80
030F80
030380
030000
070000
0E0000
FE0000
FC0000
F00000
ENDCHAR
STARTCHAR FC79
ENCODING 64633
SWIDTH 1000 0
DWIDTH 25 0
BBX 24 24 1 -6
BITMAP
000018
000038
000018
000000
00006E
00007E
00006E
000000
038000
038018
038C18
000C78
600FF8
600FF8
C00718
C0061F
C0061F
C0060F
C00600
E00E00
701C00
7FFC00
3FF800
0FE000
ENDCHAR
STARTCHAR FC7A
ENCODING 64634
SWIDTH 920 0
DWIDTH 23 0
BBX 22 27 1 -6
BITMAP
000E00
000E00
000E00
000000
003B00
003B80
003B00
000000
000000
000000
001F00
003F80
007FC0
00E1C0
00C0E0
6180E0
61C060
C1F070
C0FF30
C07FBC
C0079C
C00180
E00380
700700
7FFF00
3FFC00
0FF000
ENDCHAR
STARTCHAR FC7B
ENCODING 64635
SWIDTH 920 0
DWIDTH 23 0
BBX 22 32 1 -11
BITMAP
000E00
000E00
000E00
000000
003B00
003B80
003B00
000000
000000
000000
001F00
003F80
007FC0
00E1C0
00C0E0
6180E0
61C060
C1F070
C0FF30
C07FBC
C0079C
C00180
E00380
700700
7FFF00
3FFC00
0FF000
000000
000000
066000
07E000
066000
ENDCHAR
STARTCHAR FC83
ENCODING 64643
SWIDTH 1080 0
DWIDTH 27 0
BBX 26 25 1 -6
BITMAP
00000040
000003C0
00000FC0
00007F80
0001FC00
0001E000
00018000
00010000
00018000
0001C000
0001E000
0000F000
00007800
60003C00
60003E00
C0702F00
C07FF7C0
C07FE3C0
C00FC1C0
C0018000
E0038000
700F0000
7FFE0000
3FFC0000
0FF00000
ENDCHAR
STARTCHAR FC84
ENCODING 64644
SWIDTH 1080 0
DWIDTH 27 0
BBX 26 30 1 -11
BITMAP
00000040
000003C0
00000FC0
00007F80
0001FC00
0001E000
00018000
00010000
00018000
0001C000
0001E000
0000F000
00007800
60003C00
60003E00
C0702F00
C07FF7C0
C07FE3C0
C00FC1C0
C0018000
E0038000
700F0000
7FFE0000
3FFC0000
0FF00000
00000000
00000000
06600000
07E00000
06600000
ENDCHAR
STARTCHAR FC8A
ENCODING 64650
SWIDTH 600 0
DWIDTH 15 0
BBX 17 20 -2 -6
BITMAP
000C00
001C00
000C00
000000
000000
000C00
060C00
073C00
07FC00
03FC00
03CC00
030F80
030F80
030380
030000
070000
0E0000
FE0000
FC0000
F00000
ENDCHAR
STARTCHAR FC8B
ENCODING 64651
SWIDTH 600 0
DWIDTH 15 0
BBX 17 20 -2 -6
BITMAP
000C00
061C00
0E0C00
060000
000000
000C00
060C00
073C00
07FC00
03FC00
03CC00
030F80
030F80
030380
030000
070000
0E0000
FE0000
FC0000
F00000
ENDCHAR
STARTCHAR FC8D
ENCODING 64653
SWIDTH 1000 0
DWIDTH 25 0
BBX 24 20 1 -6
BITMAP
000018
000038
000018
000000
038000
038018
038C18
000C78
600FF8
600FF8
C00718
C0061F
C0061F
C0060F
C00600
E00E00
701C00
7FFC00
3FF800
0FE000
ENDCHAR
STARTCHAR FC8E
ENCODING 64654
SWIDTH 920 0
DWIDTH 23 0
BBX 22 23 1 -6
BITMAP
000E00
000E00
000E00
000000
000000
000000
001F00
003F80
007FC0
00E1C0
00C0E0
6180E0
61C060
C1F070
C0FF30
C07FBC
C0079C
C00180
E00380
700700
7FFF00
3FFC00
0FF000
ENDCHAR
STARTCHAR FC8F
ENCODING 64655
SWIDTH 920 0
DWIDTH 23 0
BBX 22 28 1 -11
BITMAP
000E00
000E00
000E00
000000
000000
000000
001F00
003F80
007FC0
00E1C0
00C0E0
6180E0
61C060
C1F070
C0FF30
C07FBC
C0079C
C00180
E00380
700700
7FFF00
3FFC00
0FF000
000000
000000
066000
07E000
066000
ENDCHAR
STARTCHAR FC90
ENCODING 64656
SWIDTH 720 0
DWIDTH 18 0
BBX 17 17 1 -6
BITMAP
600000
600000
600000
600000
000000
600000
600000
C07000
C07F80
C07F80
C00F80
C00180
E00380
700F00
7FFE00
3FFC00
0FF000
ENDCHAR
STARTCHAR FC91
ENCODING 64657
SWIDTH 600 0
DWIDTH 15 0
BBX 17 15 -2 -6
BITMAP
000C00
060C00
073C00
07FC00
03FC00
03CC00
030F80
030F80
030380
030000
070000
0E3700
FE3F00
FC3300
F00000
ENDCHAR
STARTCHAR FC92
ENCODING 64658
SWIDTH 600 0
DWIDTH 15 0
BBX 17 19 -2 -6
BITMAP
060000
0E0000
060000
000000
000C00
060C00
073C00
07FC00
03FC00
03CC00
030F80
030F80
030380
030000
070000
0E3700
FE3F00
FC3300
F00000
ENDCHAR
STARTCHAR FC94
ENCODING 64660
SWIDTH 1000 0
DWIDTH 25 0
BBX 24 16 1 -6
BITMAP
038000
038018
038C18
000C78
600FF8
600FF8
C00718
C0061F
C0061F
C0060F
C00600
E00E00
701C6E
7FFC7E
3FF86E
0FE000
ENDCHAR
STARTCHAR FC95
ENCODING 64661
SWIDTH 920 0
DWIDTH 23 0
BBX 22 20 1 -9
BITMAP
001F00
003F80
007FC0
00E1C0
00C0E0
6180E0
61C060
C1F070
C0FF30
C07FBC
C0079C
C00180
E00380
700700
7FFF00
3FFC00
0FF000
0006E0
0007E0
0006E0
ENDCHAR
STARTCHAR FC96
ENCODING 64662
SWIDTH 920 0
DWIDTH 23 0
BBX 22 22 1 -11
BITMAP
001F00
003F80
007FC0
00E1C0
00C0E0
6180E0
61C060
C1F070
C0FF30
C07FBC
C0079C
C00180
E00380
700700
7FFF00
3FFC00
0FF000
0006E0
0007E0
0666E0
07E000
066000
ENDCHAR
STARTCHAR FCCC
ENCODING 64716
SWIDTH 280 0
DWIDTH 7 0
BBX 9 21 -1 -2
BITMAP
1800
1800
1800
1800
1800
1800
1800
1800
1800
1800
1800
1800
1800
1800
1800
1800
7C00
FF00
FF80
0700
0100
ENDCHAR
STARTCHAR FCD9
ENCODING 64729
SWIDTH 640 0
DWIDTH 16 0
BBX 16 18 -1 0
BITMAP
0200
0200
0200
0200
0200
0180
07E0
1FF8
1FFC
38FE
306E
3067
3863
18E3
0FC3
7FFF
FDFE
F87E
ENDCHAR
STARTCHAR FCF2
ENCODING 64754
SWIDTH 320 0
DWIDTH 8 0
BBX 9 17 -1 0
BITMAP
0200
0F00
3800
6300
0D00
6D00
6F00
7600
3000
0000
0000
0000
0000
0000
7F80
FF80
FF80
ENDCHAR
STARTCHAR FCF3
ENCODING 64755
SWIDTH 320 0
DWIDTH 8 0
BBX 9 20 -1 0
BITMAP
0E00
1F00
1B00
1B00
0E00
1C00
7300
4D00
6D00
6F00
7600
3000
0000
0000
0000
0000
0000
7F80
FF80
FF80
ENDCHAR
STARTCHAR FCF4
ENCODING 64756
SWIDTH 320 0
DWIDTH 8 0
BBX 9 17 -1 0
BITMAP
0300
0D00
6D00
6F00
7600
3300
0F00
3800
2000
0000
0000
0000
0000
0000
7F80
FF80
FF80
ENDCHAR
STARTCHAR FCFB
ENCODING 64763
SWIDTH 1320 0
DWIDTH 33 0
BBX 31 18 1 -8
BITMAP
001F0000
003F8000
007FC006
00E1C0C6
00C0E0C6
0180E1C6
618071C6
61C07FFE
C0FE3EFE
C0FF1C7C
C03F8000
C0018000
C0018000
E0038000
700F0000
7FFF0000
3FFC0000
0FF00000
ENDCHAR
STARTCHAR FCFC
ENCODING 64764
SWIDTH 1320 0
DWIDTH 33 0
BBX 31 23 1 -13
BITMAP
001F0000
003F8000
007FC006
00E1C0C6
00C0E0C6
0180E1C6
618071C6
61C07FFE
C0FE3EFE
C0FF1C7C
C03F8000
C0018000
C0018000
E0038000
700F0000
7FFF0000
3FFC0000
0FF00000
00000000
00000000
06E00000
07E00000
06600000
ENDCHAR
STARTCHAR FCFD
ENCODING 64765
SWIDTH 1320 0
DWIDTH 33 0
BBX 31 24 1 -8
BITMAP
000001C0
000001C0
000000C0
00000000
00000370
00000770
001F0370
003F8000
007FC006
00E1C0C6
00C0E0C6
0180E1C6
618071C6
61C07FFE
C0FE3EFE
C0FF1C7C
C03F8000
C0018000
C0018000
E0038000
700F0000
7FFF0000
3FFC0000
0FF00000
ENDCHAR
STARTCHAR FCFE
ENCODING 64766
SWIDTH 1320 0
DWIDTH 33 0
BBX 31 29 1 -13
BITMAP
000001C0
000001C0
000000C0
00000000
00000370
00000770
001F0370
003F8000
007FC006
00E1C0C6
00C0E0C6
0180E1C6
618071C6
61C07FFE
C0FE3EFE
C0FF1C7C
C03F8000
C0018000
C0018000
E0038000
700F0000
7FFF0000
3FFC0000
0FF00000
00000000
00000000
06E00000
07E00000
06600000
ENDCHAR
STARTCHAR FD05
ENCODING 64773
SWIDTH 1440 0
DWIDTH 36 0
BBX 34 19 1 -8
BITMAP
0000003E00
001F00FF80
003F81FFC0
007FC381C0
00E1C700C0
00C0E600C0
0180EC00C0
61807C01C0
61C07FFFC0
C0FE3FFF80
C0FF1FFE00
C03F800000
C001800000
C001800000
E003800000
700F000000
7FFF000000
3FFC000000
0FF0000000
ENDCHAR
STARTCHAR FD06
ENCODING 64774
SWIDTH 1440 0
DWIDTH 36 0
BBX 34 24 1 -13
BITMAP
0000003E00
001F00FF80
003F81FFC0
007FC381C0
00E1C700C0
00C0E600C0
0180EC00C0
61807C01C0
61C07FFFC0
C0FE3FFF80
C0FF1FFE00
C03F800000
C001800000
C001800000
E003800000
700F000000
7FFF000000
3FFC000000
0FF0000000
0000000000
0000000000
0660000000
07E0000000
0660000000
ENDCHAR
STARTCHAR FD07
ENCODING 64775
SWIDTH 1440 0
DWIDTH 36 0
BBX 34 24 1 -8
BITMAP
0000001800
0000001C00
0000001800
0000000000
0000000000
0000003E00
001F00FF80
003F81FFC0
007FC381C0
00E1C700C0
00C0E600C0
0180EC00C0
61807C01C0
61C07FFFC0
C0FE3FFF80
C0FF1FFE00
C03F800000
C001800000
C001800000
E003800000
700F000000
7FFF000000
3FFC000000
0FF0000000
ENDCHAR
STARTCHAR FD08
ENCODING 64776
SWIDTH 1440 0
DWIDTH 36 0
BBX 34 29 1 -13
BITMAP
0000001800
0000001C00
0000001800
0000000000
0000000000
0000003E00
001F00FF80
003F81FFC0
007FC381C0
00E1C700C0
00C0E600C0
0180EC00C0
61807C01C0
61C07FFFC0
C0FE3FFF80
C0FF1FFE00
C03F800000
C001800000
C001800000
E003800000
700F000000
7FFF000000
3FFC000000
0FF0000000
0000000000
0000000000
0660000000
07E0000000
0660000000
ENDCHAR
STARTCHAR FD0D
ENCODING 64781
SWIDTH 960 0
DWIDTH 24 0
BBX 26 22 -2 -6
BITMAP
00003000
00003000
00003000
00000000
0000CC00
0000FC00
0000CC00
00000000
00780180
07F83180
03F83180
031C3180
031C71C0
030FFF80
030FDF80
03078F00
03000000
07000000
0E000000
FE000000
FC000000
F0000000
ENDCHAR
STARTCHAR FD0E
ENCODING 64782
SWIDTH 960 0
DWIDTH 24 0
BBX 26 14 -2 -6
BITMAP
00780180
07F83180
03F83180
031C3180
031C71C0
030FFF80
030FDF80
03078F00
03000000
07000000
0E000000
FE000000
FC000000
F0000000
ENDCHAR
STARTCHAR FD0F
ENCODING 64783
SWIDTH 1120 0
DWIDTH 28 0
BBX 29 17 -2 -6
BITMAP
000007C0
00001FF0
00003FF0
00187038
07F8E018
07F8C018
03F98018
031F0038
030FFFF8
030FFFF0
0307FFC0
03000000
07000000
0E000000
FE000000
FC000000
F0000000
ENDCHAR
STARTCHAR FD10
ENCODING 64784
SWIDTH 1120 0
DWIDTH 28 0
BBX 29 22 -2 -6
BITMAP
00000300
00000700
00000300
00000000
00000000
000007C0
00001FF0
00003FF0
00187038
07F8E018
07F8C018
03F98018
031F0038
030FFFF8
030FFFF0
0307FFC0
03000000
07000000
0E000000
FE000000
FC000000
F0000000
ENDCHAR
STARTCHAR FD17
ENCODING 64791
SWIDTH 1400 0
DWIDTH 35 0
BBX 34 18 1 -8
BITMAP
001F000000
003F800000
007FC00600
00E1C0C600
00C0E0C600
0180E1C600
618071C700
61C07FFBC0
C0FE3EFBC0
C0FF1C79C0
C03F800000
C001800000
C001800000
E003800000
700F000000
7FFF000000
3FFC000000
0FF0000000
ENDCHAR
STARTCHAR FD18
ENCODING 64792
SWIDTH 1400 0
DWIDTH 35 0
BBX 34 23 1 -13
BITMAP
001F000000
003F800000
007FC00600
00E1C0C600
00C0E0C600
0180E1C600
618071C700
61C07FFBC0
C0FE3EFBC0
C0FF1C79C0
C03F800000
C001800000
C001800000
E003800000
700F000000
7FFF000000
3FFC000000
0FF0000000
0000000000
0000000000
06E0000000
07E0000000
0660000000
ENDCHAR
STARTCHAR FD19
ENCODING 64793
SWIDTH 1400 0
DWIDTH 35 0
BBX 34 24 1 -8
BITMAP
000001C000
000001C000
000000C000
0000000000
0000037000
0000077000
001F037000
003F800000
007FC00600
00E1C0C600
00C0E0C600
0180E1C600
618071C700
61C07FFBC0
C0FE3EFBC0
C0FF1C79C0
C03F800000
C001800000
C001800000
E003800000
700F000000
7FFF000000
3FFC000000
0FF0000000
ENDCHAR
STARTCHAR FD1A
ENCODING 64794
SWIDTH 1400 0
DWIDTH 35 0
BBX 34 29 1 -13
BITMAP
000001C000
000001C000
000000C000
0000000000
0000037000
0000077000
001F037000
003F800000
007FC00600
00E1C0C600
00C0E0C600
0180E1C600
618071C700
61C07FFBC0
C0FE3EFBC0
C0FF1C79C0
C03F800000
C001800000
C001800000
E003800000
700F000000
7FFF000000
3FFC000000
0FF0000000
0000000000
0000000000
06E0000000
07E0000000
0660000000
ENDCHAR
STARTCHAR FD21
ENCODING 64801
SWIDTH 1480 0
DWIDTH 37 0
BBX 36 19 1 -8
BITMAP
0000003E00
001F00FF80
003F81FFC0
007FC381C0
00E1C700C0
00C0E600C0
0180EC00C0
61807C01C0
61C07FFFF0
C0FE3FFFF0
C0FF1FFF70
C03F800000
C001800000
C001800000
E003800000
700F000000
7FFF000000
3FFC000000
0FF0000000
ENDCHAR
STARTCHAR FD22
ENCODING 64802
SWIDTH 1480 0
DWIDTH 37 0
BBX 36 24 1 -13
BITMAP
0000003E00
001F00FF80
003F81FFC0
007FC381C0
00E1C700C0
00C0E600C0
0180EC00C0
61807C01C0
61C07FFFF0
C0FE3FFFF0
C0FF1FFF70
C03F800000
C001800000
C001800000
E003800000
700F000000
7FFF000000
3FFC000000
0FF0000000
0000000000
0000000000
0660000000
07E0000000
0660000000
ENDCHAR
STARTCHAR FD23
ENCODING 64803
SWIDTH 1480 0
DWIDTH 37 0
BBX 36 24 1 -8
BITMAP
0000001800
0000001C00
0000001800
0000000000
0000000000
0000003E00
001F00FF80
003F81FFC0
007FC381C0
00E1C700C0
00C0E600C0
0180EC00C0
61807C01C0
61C07FFFF0
C0FE3FFFF0
C0FF1FFF70
C03F800000
C001800000
C001800000
E003800000
700F000000
7FFF000000
3FFC000000
0FF0000000
ENDCHAR
STARTCHAR FD24
ENCODING 64804
SWIDTH 1480 0
DWIDTH 37 0
BBX 36 29 1 -13
BITMAP
0000001800
0000001C00
0000001800
0000000000
0000000000
0000003E00
001F00FF80
003F81FFC0
007FC381C0
00E1C700C0
00C0E600C0
0180EC00C0
61807C01C0
61C07FFFF0
C0FE3FFFF0
C0FF1FFF70
C03F800000
C001800000
C001800000
E003800000
700F000000
7FFF000000
3FFC000000
0FF0000000
0000000000
0000000000
0660000000
07E0000000
0660000000
ENDCHAR
STARTCHAR FD29
ENCODING 64809
SWIDTH 1080 0
DWIDTH 27 0
BBX 29 22 -2 -6
BITMAP
00003000
00003000
00003000
00000000
0000CC00
0000FC00
0000CC00
00000000
007800C0
07F830C0
03F830C0
031C31C0
031C71C0
030FFFF8
030FDF78
03079E30
03000000
07000000
0E000000
FE000000
FC000000
F0000000
ENDCHAR
STARTCHAR FD2A
ENCODING 64810
SWIDTH 1080 0
DWIDTH 27 0
BBX 29 14 -2 -6
BITMAP
007800C0
07F830C0
03F830C0
031C31C0
031C71C0
030FFFF8
030FDF78
03079E30
03000000
07000000
0E000000
FE000000
FC000000
F0000000
ENDCHAR
STARTCHAR FD2B
ENCODING 64811
SWIDTH 1160 0
DWIDTH 29 0
BBX 31 17 -2 -6
BITMAP
000007C0
00001FF0
00003FF0
00187038
07F8E018
07F8C018
03F98018
031F0038
030FFFFE
030FFFFE
0307FFCC
03000000
07000000
0E000000
FE000000
FC000000
F0000000
ENDCHAR
STARTCHAR FD2C
ENCODING 64812
SWIDTH 1160 0
DWIDTH 29 0
BBX 31 22 -2 -6
BITMAP
00000300
00000700
00000300
00000000
00000000
000007C0
00001FF0
00003FF0
00187038
07F8E018
07F8C018
03F98018
031F0038
030FFFFE
030FFFFE
0307FFCC
03000000
07000000
0E000000
FE000000
FC000000
F0000000
ENDCHAR
STARTCHAR FD3C
ENCODING 64828
SWIDTH 280 0
DWIDTH 7 0
BBX 7 24 0 0
BITMAP
0C
3C
F0
CC
3C
F0
C0
00
00
30
30
30
30
30
30
30
30
30
30
30
30
3E
3E
1E
ENDCHAR
STARTCHAR FD3D
ENCODING 64829
SWIDTH 240 0
DWIDTH 6 0
BBX 6 24 0 0
BITMAP
0C
3C
F0
CC
3C
F0
C0
00
00
30
30
30
30
30
30
30
30
30
30
30
30
30
30
30
ENDCHAR
STARTCHAR FD3E
ENCODING 64830
SWIDTH 520 0
DWIDTH 13 0
BBX 9 23 1 -4
BITMAP
0380
0700
0600
0E00
0C00
1C00
1C00
3E00
7F00
FF00
C300
C180
C300
FF00
7F00
3E00
1C00
1C00
0C00
0E00
0600
0700
0380
ENDCHAR
STARTCHAR FD3F
ENCODING 64831
SWIDTH 520 0
DWIDTH 13 0
BBX 10 23 2 -4
BITMAP
E000
7000
3800
1800
1C00
0C00
0E00
1F00
3F80
7F80
61C0
60C0
61C0
7F80
3F80
1F00
0E00
0C00
1C00
1800
3800
7000
E000
ENDCHAR
STARTCHAR FDF1
ENCODING 65009
SWIDTH 1120 0
DWIDTH 28 0
BBX 26 26 1 -6
BITMAP
00003700
00303700
00303700
00300000
00300000
00300000
00301E00
00307F00
00307F80
0030E380
0030C180
0030C0C0
0030FFC0
00307EC0
00303CC0
003001C0
00780380
3FFFFF80
7FDFFF00
FF8FFE00
E0000000
C0000000
C0000000
FFFF0000
FFFF0000
7FFF0000
ENDCHAR
STARTCHAR FDF2
ENCODING 65010
SWIDTH 1280 0
DWIDTH 32 0
BBX 29 27 1 0
BITMAP
00030000
00030000
00030000
00030000
0000C000
00034000
001B4000
001BC000
000D8018
000C0018
00000618
00000618
00030618
00030618
03830618
03830618
0F830618
3F830618
73830618
C3830618
C3830618
C3830618
FD830618
FD878618
79FFFE18
01F9FC18
00F8F818
ENDCHAR
STARTCHAR FDF4
ENCODING 65012
SWIDTH 1080 0
DWIDTH 27 0
BBX 25 20 1 -3
BITMAP
00000C00
00001F00
00001F00
00001F00
07007C00
0703F000
0307C000
038E0000
038FFF80
018FFF80
01CFFF80
01C00380
C0C01F80
C0E07F00
FFE3F800
FF77C000
7E7E0000
003FE000
003FE000
001FE000
ENDCHAR
STARTCHAR FDFA
ENCODING 65018
SWIDTH 1360 0
DWIDTH 34 0
BBX 32 27 1 -4
BITMAP
00C00300
01C92B02
0909241C
388921E0
68892E3C
C889207E
FDD922C2
6FF83382
0421FFFE
002F99FC
09BC0000
39DFFB3C
681FFB3E
C8600364
FC600360
6FFFFB3E
00600FFF
00600CE0
0E7B00C0
3E6B1F1E
7660E01E
FFFFFFB2
FFBFFFDF
C00000DE
C0000206
7FFBFEFE
3FF800F8
ENDCHAR
STARTCHAR FDFB
ENCODING 65019
SWIDTH 2800 0
DWIDTH 70 0
BBX 68 27 1 -6
BITMAP
038000000004000000
07800000001C000000
06C300180070600000
06C3001803C0600000
038300180F04600000
070304183C16600000
1C031C18F096600000
10030C1880BC600000
03830C1800EC600000
03830C1800C0600000
0F830E18700063C000
3F830E18FF0063F800
73830618FFE067FF00
C3830618CFFE677FF0
C3830618C1FE6707F0
C3830638003E6000F0
FD83077800F0600380
FD8707DC07C0601F00
79FF3FDFFF807FFC00
01FE7F8FFE007FF800
007C3C07F600FFC000
000040000600E00000
000000000700E00000
00000000C781C01C00
00000001C3FFC01C00
00000000C1FF801C00
00000000007E000000
ENDCHAR
STARTCHAR FDFC
ENCODING 65020
SWIDTH 1120 0
DWIDTH 28 0
BBX 26 17 1 0
BITMAP
00730000
00730000
00730000
00730000
00730000
00730000
00731800
00731980
00731D80
6073FDC0
C073F8C0
C071F0C0
C07000C0
E06001C0
7FECDF80
7FCFDF80
1F8CDE00
ENDCHAR
STARTCHAR FDFD
ENCODING 65021
SWIDTH 7800 0
DWIDTH 195 0
BBX 193 35 1 -8
BITMAP
00000000000000000000000000000004000000000000000000
00000000000000000000000000000004000000000000000000
00000000000000000000000000000004000000000000000000
00000000000000000000000300000004000000000000000000
00000000000000000000000B00000001800000000000000000
00000000000000000000006B00000005800000000000000000
00000000000000000000006F00000035800000000000000000
00000000001C00000003807600000037800000000000000000
0000000001F8E300003F1C300C30003B003000000000000000
000000001F80E30003F03F000C300018003000000000000000
00000001F800E3003F003FC00C3000000C3000000000000000
0000001FC018E303F00037F00C3000000C3000000000000000
000000FC0058E33F800031FC0C3000060C3000000000000000
000001C00358E3380000007F8C3000060C3000000000000000
000000000378E3000000000F8C3006060C3000000000000000
0000000003B0E30000000FFF8C3006060C3000000000000000
000000780180E30000003FF80C301E060C3000000000000000
00E0007F0000E30070007E000C307E060C300E000000000180
03F018FFF000E3007000F8000C30E6060C301F000000000180
0FF018E7FE70E3003181FC040C3186060C307B00000000C180
3F3818E0FE30E3000181FE0E0C3306060C306380000830C180
7C3818003E30E30C01C18E060C3386060C30C380000C30C180
74183800F830E30C00C306060C33FE0E0C30C180001C30C180
6C1C3803E030E31C00C306061C31FF0E1C00C1C0003838E180
EFFFFFFF803FC31800C7E607FC30F3FFFC03FFFFFFFFDFFF80
EFEFDFFF003FC31800FFFE07F83003F7F81F7EFFFFFFDF7F80
E3E78FF8003F831800FFFC07F03001E1F1FE3E7FFFC38E3E00
E00000000030001800FC1C060000000000FC00000000000000
E00000000070001C01C0000E0000000000E000000000000000
E0006E0000F0000E0380001C00000000000006000000000180
E000EE0007E0000FFF8000FC0000000000001E000000000380
E0006E0007C00007FF0000F800000000000078000000000180
E000000007800001FC0000E000000000000060000000000000
E0000000000000000000000000000000000000000000000000
E0000000000000000000000000000000000000000000000000
ENDCHAR
STARTCHAR FE70
ENCODING 65136
SWIDTH 280 0
DWIDTH 7 0
BBX 6 8 0 9
BITMAP
04
3C
F0
C0
04
3C
F0
C0
ENDCHAR
STARTCHAR FE71
ENCODING 65137
SWIDTH 120 0
DWIDTH 3 0
BBX 7 15 -2 0
BITMAP
04
1E
F0
44
1E
F0
40
00
00
00
00
00
38
78
78
ENDCHAR
STARTCHAR FE72
ENCODING 65138
SWIDTH 320 0
DWIDTH 8 0
BBX 8 8 0 8
BITMAP
0E
1F
DB
FB
2E
5C
70
40
ENDCHAR
STARTCHAR FE73
ENCODING 65139
SWIDTH 440 0
DWIDTH 11 0
BBX 10 5 1 0
BITMAP
C000
C000
FFC0
FFC0
7FC0
ENDCHAR
STARTCHAR FE74
ENCODING 65140
SWIDTH 280 0
DWIDTH 7 0
BBX 6 8 0 5
BITMAP
04
3C
F0
C0
04
3C
F0
C0
ENDCHAR
STARTCHAR FE76
ENCODING 65142
SWIDTH 280 0
DWIDTH 7 0
BBX 6 4 0 9
BITMAP
04
3C
F0
C0
ENDCHAR
STARTCHAR FE77
ENCODING 65143
SWIDTH 320 0
DWIDTH 8 0
BBX 9 12 -1 0
BITMAP
0300
0F00
3800
2000
0000
0000
0000
0000
0000
7F80
FF80
FF80
ENDCHAR
STARTCHAR FE78
ENCODING 65144
SWIDTH 280 0
DWIDTH 7 0
BBX 6 8 0 8
BITMAP
1C
3C
24
34
1C
78
E0
80
ENDCHAR
STARTCHAR FE79
ENCODING 65145
SWIDTH 320 0
DWIDTH 8 0
BBX 9 15 -1 0
BITMAP
0E00
0F00
1900
0900
0F00
1E00
3800
2000
0000
0000
0000
0000
7F80
FF80
FF80
ENDCHAR
STARTCHAR FE7A
ENCODING 65146
SWIDTH 280 0
DWIDTH 7 0
BBX 6 4 0 9
BITMAP
04
3C
F0
C0
ENDCHAR
STARTCHAR FE7B
ENCODING 65147
SWIDTH 120 0
DWIDTH 3 0
BBX 7 9 -2 -6
BITMAP
38
78
78
00
00
04
1E
70
C0
ENDCHAR
STARTCHAR FE7C
ENCODING 65148
SWIDTH 280 0
DWIDTH 7 0
BBX 7 6 0 9
BITMAP
06
16
D6
DE
EC
60
ENDCHAR
STARTCHAR FE7D
ENCODING 65149
SWIDTH 320 0
DWIDTH 8 0
BBX 9 14 -1 0
BITMAP
0300
0D00
6D00
6F00
7600
3000
0000
0000
0000
0000
0000
7F80
FF80
FF80
ENDCHAR
STARTCHAR FE7E
ENCODING 65150
SWIDTH 240 0
DWIDTH 6 0
BBX 6 6 0 9
BITMAP
38
78
CC
CC
78
78
ENDCHAR
STARTCHAR FE7F
ENCODING 65151
SWIDTH 320 0
DWIDTH 8 0
BBX 9 14 -1 0
BITMAP
0E00
1E00
3300
3300
1E00
0E00
0000
0000
0000
0000
0000
7F80
FF80
FF80
ENDCHAR
STARTCHAR FE80
ENCODING 65152
SWIDTH 400 0
DWIDTH 10 0
BBX 9 9 1 0
BITMAP
3E00
7F00
7F00
E200
6000
6000
FF80
FF80
FF80
ENDCHAR
STARTCHAR FE81
ENCODING 65153
SWIDTH 240 0
DWIDTH 6 0
BBX 8 20 -1 0
BITMAP
73
FF
DE
00
00
18
18
18
18
18
18
18
18
18
18
18
18
18
18
18
ENDCHAR
STARTCHAR FE82
ENCODING 65154
SWIDTH 280 0
DWIDTH 7 0
BBX 8 20 -1 0
BITMAP
73
FF
DE
00
00
18
18
18
18
18
18
18
18
18
18
18
18
1F
1F
0F
ENDCHAR
STARTCHAR FE83
ENCODING 65155
SWIDTH 240 0
DWIDTH 6 0
BBX 6 23 0 0
BITMAP
38
7C
48
60
FC
FC
00
00
30
30
30
30
30
30
30
30
30
30
30
30
30
30
30
ENDCHAR
STARTCHAR FE84
ENCODING 65156
SWIDTH 280 0
DWIDTH 7 0
BBX 7 23 0 0
BITMAP
38
7C
48
60
FC
FC
00
00
30
30
30
30
30
30
30
30
30
30
30
30
3E
3E
1E
ENDCHAR
STARTCHAR FE85
ENCODING 65157
SWIDTH 480 0
DWIDTH 12 0
BBX 10 24 1 -6
BITMAP
1E00
1E00
1400
1000
3F00
3F00
0000
0000
1E00
3F00
7F80
E380
C180
C1C0
E1C0
FFC0
7EC0
3D80
0180
0380
0700
FF00
FE00
F800
ENDCHAR
STARTCHAR FE86
ENCODING 65158
SWIDTH 480 0
DWIDTH 12 0
BBX 11 24 1 -6
BITMAP
0E00
1E00
1400
1000
3F00
3F00
0000
0000
1E00
3F00
7F80
E380
C180
C180
E1C0
FFE0
7FE0
3FE0
0180
0380
0700
FF00
FE00
F800
ENDCHAR
STARTCHAR FE87
ENCODING 65159
SWIDTH 240 0
DWIDTH 6 0
BBX 6 26 0 -7
BITMAP
30
30
30
30
30
30
30
30
30
30
30
30
30
30
30
30
30
30
30
00
38
7C
48
60
FC
FC
ENDCHAR
STARTCHAR FE88
ENCODING 65160
SWIDTH 280 0
DWIDTH 7 0
BBX 6 26 1 -7
BITMAP
60
60
60
60
60
60
60
60
60
60
60
60
60
60
60
60
7C
7C
1C
00
70
F8
D0
C0
F8
F8
ENDCHAR
STARTCHAR FE89
ENCODING 65161
SWIDTH 760 0
DWIDTH 19 0
BBX 18 19 0 -6
BITMAP
381F00
7C3F80
487FC0
606180
FCC100
FCC000
00C000
30C000
30F800
60FF80
603FC0
6007C0
6000C0
6000C0
7001C0
380780
3FFF00
1FFE00
07F800
ENDCHAR
STARTCHAR FE8A
ENCODING 65162
SWIDTH 720 0
DWIDTH 18 0
BBX 18 19 0 -6
BITMAP
380000
7C0000
480000
600000
FC0000
FC0000
000000
300000
300000
603800
603FC0
603FC0
6007C0
6000C0
7001C0
380780
3FFF00
1FFE00
07F800
ENDCHAR
STARTCHAR FE8B
ENCODING 65163
SWIDTH 280 0
DWIDTH 7 0
BBX 7 18 -1 0
BITMAP
1E
1E
34
10
3E
3E
00
00
0C
0C
0C
0E
06
06
0E
7C
FC
F0
ENDCHAR
STARTCHAR FE8C
ENCODING 65164
SWIDTH 320 0
DWIDTH 8 0
BBX 9 16 -1 0
BITMAP
0E00
1F00
1200
1000
3F00
3F00
0000
0C00
0C00
0C00
0C00
0C00
1E00
7F80
F780
E380
ENDCHAR
STARTCHAR FE8D
ENCODING 65165
SWIDTH 240 0
DWIDTH 6 0
BBX 2 19 2 0
BITMAP
C0
C0
C0
C0
C0
C0
C0
C0
C0
C0
C0
C0
C0
C0
C0
C0
C0
C0
C0
ENDCHAR
STARTCHAR FE8E
ENCODING 65166
SWIDTH 280 0
DWIDTH 7 0
BBX 5 19 2 0
BITMAP
C0
C0
C0
C0
C0
C0
C0
C0
C0
C0
C0
C0
C0
C0
C0
C0
F8
F8
38
ENDCHAR
STARTCHAR FE8F
ENCODING 65167
SWIDTH 840 0
DWIDTH 21 0
BBX 19 15 1 -5
BITMAP
600060
600060
C00060
C00060
C00060
C00060
F000E0
7FFFE0
3FFFC0
0FFF00
000000
000000
00E000
00E000
00E000
ENDCHAR
STARTCHAR FE90
ENCODING 65168
SWIDTH 920 0
DWIDTH 23 0
BBX 22 15 1 -5
BITMAP
600000
600070
C00070
C00070
C00070
C00070
F000F0
7FFFBC
3FFFBC
0FFE1C
000000
000000
00E000
00E000
00E000
ENDCHAR
STARTCHAR FE91
ENCODING 65169
SWIDTH 280 0
DWIDTH 7 0
BBX 7 15 -1 -5
BITMAP
0C
0C
0C
0E
06
06
0E
7C
FC
F0
00
00
1C
1C
1C
ENDCHAR
STARTCHAR FE92
ENCODING 65170
SWIDTH 320 0
DWIDTH 8 0
BBX 9 14 -1 -5
BITMAP
0C00
0C00
0C00
0C00
0C00
1E00
7F80
F780
E380
0000
0000
0C00
0C00
0C00
ENDCHAR
STARTCHAR FE93
ENCODING 65171
SWIDTH 440 0
DWIDTH 11 0
BBX 10 16 1 0
BITMAP
3700
3700
3700
0000
0000
1E00
3F00
7F00
7780
E380
C180
C1C0
E180
FF80
7F00
3E00
ENDCHAR
STARTCHAR FE94
ENCODING 65172
SWIDTH 480 0
DWIDTH 12 0
BBX 11 18 1 0
BITMAP
1B80
1F80
1980
0000
0000
0380
0380
0F80
3F80
7F80
E380
C380
C380
FD80
FD80
79E0
01E0
00E0
ENDCHAR
STARTCHAR FE95
ENCODING 65173
SWIDTH 840 0
DWIDTH 21 0
BBX 19 12 1 0
BITMAP
01B800
03B800
61B860
600060
C00060
C00060
C00060
C00060
F000E0
7FFFE0
3FFFC0
0FFF00
ENDCHAR
STARTCHAR FE96
ENCODING 65174
SWIDTH 920 0
DWIDTH 23 0
BBX 22 12 1 0
BITMAP
01B800
03B800
61B800
600070
C00070
C00070
C00070
C00070
F000F0
7FFFBC
3FFFBC
0FFE1C
ENDCHAR
STARTCHAR FE97
ENCODING 65175
SWIDTH 280 0
DWIDTH 7 0
BBX 8 15 -1 0
BITMAP
37
77
37
00
00
0C
0C
0C
0E
06
06
0E
7C
FC
F0
ENDCHAR
STARTCHAR FE98
ENCODING 65176
SWIDTH 320 0
DWIDTH 8 0
BBX 9 14 -1 0
BITMAP
3700
3F00
3300
0000
0000
0C00
0C00
0C00
0C00
0C00
1E00
7F80
F780
E380
ENDCHAR
STARTCHAR FE99
ENCODING 65177
SWIDTH 840 0
DWIDTH 21 0
BBX 19 16 1 0
BITMAP
00E000
00E000
006000
000000
01B800
03B800
61B860
600060
C00060
C00060
C00060
C00060
F000E0
7FFFE0
3FFFC0
0FFF00
ENDCHAR
STARTCHAR FE9A
ENCODING 65178
SWIDTH 920 0
DWIDTH 23 0
BBX 22 16 1 0
BITMAP
00E000
00E000
006000
000000
01B800
03B800
61B800
600070
C00070
C00070
C00070
C00070
F000F0
7FFFBC
3FFFBC
0FFE1C
ENDCHAR
STARTCHAR FE9B
ENCODING 65179
SWIDTH 280 0
DWIDTH 7 0
BBX 8 19 -1 0
BITMAP
0C
1C
0C
00
37
77
37
00
00
0C
0C
0C
0E
06
06
0E
7C
FC
F0
ENDCHAR
STARTCHAR FE9C
ENCODING 65180
SWIDTH 320 0
DWIDTH 8 0
BBX 9 18 -1 0
BITMAP
0C00
0C00
0C00
0000
3300
3F00
3300
0000
0000
0C00
0C00
0C00
0C00
0C00
1E00
7F80
F780
E380
ENDCHAR
STARTCHAR FE9D
ENCODING 65181
SWIDTH 600 0
DWIDTH 15 0
BBX 15 20 1 -8
BITMAP
3FF0
7FFC
7FFC
600C
607C
03F0
0FC0
3E00
7000
6000
C300
C380
C300
C000
C000
E00C
703E
7FFC
3FF8
0FE0
ENDCHAR
STARTCHAR FE9E
ENCODING 65182
SWIDTH 640 0
DWIDTH 16 0
BBX 15 20 1 -8
BITMAP
3FE0
7FFC
7FFC
600C
607C
03F8
0FF0
3E30
7038
601E
C31E
C38E
C300
C000
C000
E00C
703E
7FFC
3FF8
0FE0
ENDCHAR
STARTCHAR FE9F
ENCODING 65183
SWIDTH 640 0
DWIDTH 16 0
BBX 17 16 -1 -5
BITMAP
1E0000
3FC000
3FF800
33FF80
303F80
000F80
003C00
01F000
7FE000
FF8000
FE0000
000000
000000
00C000
01C000
00C000
ENDCHAR
STARTCHAR FEA0
ENCODING 65184
SWIDTH 680 0
DWIDTH 17 0
BBX 18 16 -1 -5
BITMAP
1E0000
3FC000
3FF800
33FF80
303F80
000F80
003E00
01F600
7FE7C0
FF83C0
FE01C0
000000
000000
00C000
01C000
00C000
ENDCHAR
STARTCHAR FEA1
ENCODING 65185
SWIDTH 600 0
DWIDTH 15 0
BBX 15 20 1 -8
BITMAP
3FF0
7FFC
7FFC
600C
607C
03F0
0FC0
3E00
7000
6000
C000
C000
C000
C000
C000
E00C
703E
7FFC
3FF8
0FE0
ENDCHAR
STARTCHAR FEA2
ENCODING 65186
SWIDTH 640 0
DWIDTH 16 0
BBX 15 20 1 -8
BITMAP
3FE0
7FFC
7FFC
600C
607C
03F8
0FF0
3E30
7038
601E
C01E
C00E
C000
C000
C000
E00C
703E
7FFC
3FF8
0FE0
ENDCHAR
STARTCHAR FEA3
ENCODING 65187
SWIDTH 640 0
DWIDTH 16 0
BBX 17 11 -1 0
BITMAP
1E0000
3FC000
3FF800
33FF80
303F80
000F80
003C00
01F000
7FE000
FF8000
FE0000
ENDCHAR
STARTCHAR FEA4
ENCODING 65188
SWIDTH 680 0
DWIDTH 17 0
BBX 18 11 -1 0
BITMAP
1E0000
3FC000
3FF800
33FF80
303F80
000F80
003E00
01F600
7FE7C0
FF83C0
FE01C0
ENDCHAR
STARTCHAR FEA5
ENCODING 65189
SWIDTH 600 0
DWIDTH 15 0
BBX 15 25 1 -8
BITMAP
0300
0700
0300
0000
0000
3FF0
7FFC
7FFC
600C
607C
03F0
0FC0
3E00
7000
6000
C000
C000
C000
C000
C000
E00C
703E
7FFC
3FF8
0FE0
ENDCHAR
STARTCHAR FEA6
ENCODING 65190
SWIDTH 640 0
DWIDTH 16 0
BBX 15 25 1 -8
BITMAP
0300
0700
0300
0000
0000
3FE0
7FFC
7FFC
600C
607C
03F8
0FF0
3E30
7038
601E
C01E
C00E
C000
C000
C000
E00C
703E
7FFC
3FF8
0FE0
ENDCHAR
STARTCHAR FEA7
ENCODING 65191
SWIDTH 640 0
DWIDTH 16 0
BBX 17 15 -1 0
BITMAP
038000
038000
038000
000000
1E0000
3FC000
3FF800
33FF80
303F80
000F80
003C00
01F000
7FE000
FF8000
FE0000
ENDCHAR
STARTCHAR FEA8
ENCODING 65192
SWIDTH 680 0
DWIDTH 17 0
BBX 18 15 -1 0
BITMAP
038000
038000
038000
000000
1E0000
3FC000
3FF800
33FF80
303F80
000F80
003E00
01F600
7FE7C0
FF83C0
FE01C0
ENDCHAR
STARTCHAR FEA9
ENCODING 65193
SWIDTH 480 0
DWIDTH 12 0
BBX 10 13 1 0
BITMAP
0C00
1C00
1E00
0F00
0780
03C0
01C0
00C0
C0C0
C0C0
FFC0
FF80
7F00
ENDCHAR
STARTCHAR FEAA
ENCODING 65194
SWIDTH 560 0
DWIDTH 14 0
BBX 13 13 1 0
BITMAP
0700
0700
0300
0380
0380
0180
01C0
01C0
C0C0
C0E0
FFF8
FF78
7E38
ENDCHAR
STARTCHAR FEAB
ENCODING 65195
SWIDTH 480 0
DWIDTH 12 0
BBX 10 18 1 0
BITMAP
1C00
1C00
1C00
0000
0000
0C00
1C00
1E00
0F00
0780
03C0
01C0
00C0
C0C0
C0C0
FFC0
FF80
7F00
ENDCHAR
STARTCHAR FEAC
ENCODING 65196
SWIDTH 560 0
DWIDTH 14 0
BBX 13 18 1 0
BITMAP
0600
0E00
0600
0000
0000
0700
0700
0300
0380
0380
0180
01C0
01C0
C0C0
C0E0
FFF8
FF78
7E38
ENDCHAR
STARTCHAR FEAD
ENCODING 65197
SWIDTH 280 0
DWIDTH 7 0
BBX 8 14 -2 -6
BITMAP
06
07
07
03
03
03
03
03
03
07
0E
FE
FC
F0
ENDCHAR
STARTCHAR FEAE
ENCODING 65198
SWIDTH 320 0
DWIDTH 8 0
BBX 10 14 -2 -6
BITMAP
0600
0700
0700
0300
0300
03C0
03C0
03C0
0300
0700
0E00
FE00
FC00
F000
ENDCHAR
STARTCHAR FEAF
ENCODING 65199
SWIDTH 280 0
DWIDTH 7 0
BBX 8 19 -2 -6
BITMAP
06
0E
06
00
00
06
07
07
03
03
03
03
03
03
07
0E
FE
FC
F0
ENDCHAR
STARTCHAR FEB0
ENCODING 65200
SWIDTH 320 0
DWIDTH 8 0
BBX 10 19 -2 -6
BITMAP
0600
0E00
0600
0000
0000
0600
0700
0700
0300
0300
03C0
03C0
03C0
0300
0700
0E00
FE00
FC00
F000
ENDCHAR
STARTCHAR FEB1
ENCODING 65201
SWIDTH 1120 0
DWIDTH 28 0
BBX 26 14 1 -6
BITMAP
000000C0
000C18C0
000C18C0
600C18C0
600C38C0
C00FFFC0
C007EFC0
C007C780
C00E0000
E00C0000
F01C0000
7FFC0000
3FF80000
0FE00000
ENDCHAR
STARTCHAR FEB2
ENCODING 65202
SWIDTH 1240 0
DWIDTH 31 0
BBX 30 14 1 -6
BITMAP
00000060
000C1860
000C1860
600C18E0
600C38E0
C00FFFFC
C007EFFC
C007CF38
C00E0000
E00C0000
F01C0000
7FFC0000
3FF80000
0FE00000
ENDCHAR
STARTCHAR FEB3
ENCODING 65203
SWIDTH 760 0
DWIDTH 19 0
BBX 19 8 -1 0
BITMAP
0000C0
0418E0
061860
0C1860
1C1CE0
7FEFE0
FFEFC0
E3C780
ENDCHAR
STARTCHAR FEB4
ENCODING 65204
SWIDTH 840 0
DWIDTH 21 0
BBX 22 8 -1 0
BITMAP
000060
041860
061860
0C1860
1C1CF0
7FFFFC
FFEFBC
E3C71C
ENDCHAR
STARTCHAR FEB5
ENCODING 65205
SWIDTH 1120 0
DWIDTH 28 0
BBX 26 22 1 -6
BITMAP
00001800
00003800
00001800
00000000
00006E00
00007E00
00006600
00000000
000000C0
000C18C0
000C18C0
600C18C0
600C38C0
C00FFFC0
C007EFC0
C007C780
C00E0000
E00C0000
F01C0000
7FFC0000
3FF80000
0FE00000
ENDCHAR
STARTCHAR FEB6
ENCODING 65206
SWIDTH 1240 0
DWIDTH 31 0
BBX 30 22 1 -6
BITMAP
00001800
00003800
00001800
00000000
00006E00
00007E00
00006600
00000000
00000060
000C1860
000C1860
600C18E0
600C38E0
C00FFFFC
C007EFFC
C007CF38
C00E0000
E00C0000
F01C0000
7FFC0000
3FF80000
0FE00000
ENDCHAR
STARTCHAR FEB7
ENCODING 65207
SWIDTH 760 0
DWIDTH 19 0
BBX 19 16 -1 0
BITMAP
001800
001C00
001800
000000
007600
007600
007600
000000
0000C0
0418E0
061860
0C1860
1C1CE0
7FEFE0
FFEFC0
E3C780
ENDCHAR
STARTCHAR FEB8
ENCODING 65208
SWIDTH 840 0
DWIDTH 21 0
BBX 22 16 -1 0
BITMAP
001800
001C00
001800
000000
007600
007600
007600
000000
000060
041860
061860
0C1860
1C1CF0
7FFFFC
FFEFBC
E3C71C
ENDCHAR
STARTCHAR FEB9
ENCODING 65209
SWIDTH 1280 0
DWIDTH 32 0
BBX 30 17 1 -6
BITMAP
000007E0
00000FF0
00001FF8
0000381C
000C600C
600CC00C
600EC00C
C007801C
C007FFF8
C007FFF8
C007FFE0
C0060000
E00E0000
701C0000
7FFC0000
3FF80000
0FE00000
ENDCHAR
STARTCHAR FEBA
ENCODING 65210
SWIDTH 1280 0
DWIDTH 32 0
BBX 31 17 1 -6
BITMAP
000007E0
00000FF0
00001FF8
0000381C
000C600C
600CC00C
600EC00C
C007801C
C007FFFE
C007FFFE
C007FFEE
C0060000
E00E0000
701C0000
7FFC0000
3FF80000
0FE00000
ENDCHAR
STARTCHAR FEBB
ENCODING 65211
SWIDTH 880 0
DWIDTH 22 0
BBX 22 11 -1 0
BITMAP
0007E0
000FF0
003FF8
003818
0C601C
0CC00C
0CC00C
1F801C
7FFFF8
F7FFF0
E3FFE0
ENDCHAR
STARTCHAR FEBC
ENCODING 65212
SWIDTH 880 0
DWIDTH 22 0
BBX 23 11 -1 0
BITMAP
0007E0
000FF0
003FF8
003818
0C601C
0CC00C
0CC00C
1F8018
7FFFFE
F7FFFE
E3FFEE
ENDCHAR
STARTCHAR FEBD
ENCODING 65213
SWIDTH 1280 0
DWIDTH 32 0
BBX 30 22 1 -6
BITMAP
00000380
00000380
00000380
00000000
00000000
000007E0
00000FF0
00001FF8
0000381C
000C600C
600CC00C
600EC00C
C007801C
C007FFF8
C007FFF8
C007FFE0
C0060000
E00E0000
701C0000
7FFC0000
3FF80000
0FE00000
ENDCHAR
STARTCHAR FEBE
ENCODING 65214
SWIDTH 1280 0
DWIDTH 32 0
BBX 31 22 1 -6
BITMAP
00000380
00000380
00000380
00000000
00000000
000007E0
00000FF0
00001FF8
0000381C
000C600C
600CC00C
600EC00C
C007801C
C007FFFE
C007FFFE
C007FFEE
C0060000
E00E0000
701C0000
7FFC0000
3FF80000
0FE00000
ENDCHAR
STARTCHAR FEBF
ENCODING 65215
SWIDTH 880 0
DWIDTH 22 0
BBX 22 16 -1 0
BITMAP
000380
000380
000380
000000
000000
0007E0
000FF0
003FF8
003818
0C601C
0CC00C
0CC00C
1F801C
7FFFF8
F7FFF0
E3FFE0
ENDCHAR
STARTCHAR FEC0
ENCODING 65216
SWIDTH 880 0
DWIDTH 22 0
BBX 23 16 -1 0
BITMAP
000380
000380
000380
000000
000000
0007E0
000FF0
003FF8
003818
0C601C
0CC00C
0CC00C
1F8018
7FFFFE
F7FFFE
E3FFEE
ENDCHAR
STARTCHAR FEC1
ENCODING 65217
SWIDTH 760 0
DWIDTH 19 0
BBX 17 19 1 0
BITMAP
1C0000
1C0000
1C0000
1C0000
1C0000
1C0000
1C0000
1C0000
1C7E00
19FF00
1BFF80
1F0380
1E0180
1C0180
180180
180380
FFFF80
FFFF00
FFFC00
ENDCHAR
STARTCHAR FEC2
ENCODING 65218
SWIDTH 800 0
DWIDTH 20 0
BBX 19 19 1 0
BITMAP
1C0000
1C0000
1C0000
1C0000
1C0000
1C0000
1C0000
1C0000
1C7E00
19FF00
1BFF80
1F0380
1E0180
1C0180
180180
180380
FFFFE0
FFFFE0
FFFEE0
ENDCHAR
STARTCHAR FEC3
ENCODING 65219
SWIDTH 680 0
DWIDTH 17 0
BBX 17 19 -1 0
BITMAP
180000
180000
180000
180000
180000
180000
180000
180000
187C00
19FF00
1BFF00
1F0380
1E0180
1C0180
180180
300380
7FFF80
FFFF00
FFFC00
ENDCHAR
STARTCHAR FEC4
ENCODING 65220
SWIDTH 720 0
DWIDTH 18 0
BBX 19 19 -1 0
BITMAP
180000
180000
180000
180000
180000
180000
180000
180000
187C00
19FF00
1BFF80
1F0380
1E0180
1C0180
180180
300380
7FFFE0
FFFFE0
FFFCE0
ENDCHAR
STARTCHAR FEC5
ENCODING 65221
SWIDTH 760 0
DWIDTH 19 0
BBX 17 19 1 0
BITMAP
1C0000
1C0000
1C0000
1C3000
1C3800
1C3000
1C0000
1C0000
1C7E00
19FF00
1BFF80
1F0380
1E0180
1C0180
180180
180380
FFFF80
FFFF00
FFFC00
ENDCHAR
STARTCHAR FEC6
ENCODING 65222
SWIDTH 800 0
DWIDTH 20 0
BBX 19 19 1 0
BITMAP
1C0000
1C0000
1C0000
1C3000
1C3800
1C3000
1C0000
1C0000
1C7E00
19FF00
1BFF80
1F0380
1E0180
1C0180
180180
180380
FFFFE0
FFFFE0
FFFEE0
ENDCHAR
STARTCHAR FEC7
ENCODING 65223
SWIDTH 680 0
DWIDTH 17 0
BBX 17 19 -1 0
BITMAP
180000
180000
180000
183000
183000
183000
180000
180000
187C00
19FF00
1BFF00
1F0380
1E0180
1C0180
180180
300380
7FFF80
FFFF00
FFFC00
ENDCHAR
STARTCHAR FEC8
ENCODING 65224
SWIDTH 720 0
DWIDTH 18 0
BBX 19 19 -1 0
BITMAP
180000
180000
180000
183000
183000
183000
180000
180000
187C00
19FF00
1BFF80
1F0380
1E0180
1C0180
180180
300380
7FFFE0
FFFFE0
FFFCE0
ENDCHAR
STARTCHAR FEC9
ENCODING 65225
SWIDTH 600 0
DWIDTH 15 0
BBX 15 24 1 -8
BITMAP
0780
0FE0
1FF0
3860
3040
3000
3000
3000
3808
1FF8
0FF8
07F0
1E00
3800
6000
E000
C000
C000
C000
E00C
783E
7FFC
3FF8
0FE0
ENDCHAR
STARTCHAR FECA
ENCODING 65226
SWIDTH 600 0
DWIDTH 15 0
BBX 15 21 0 -8
BITMAP
0FC0
3FF0
3FF0
3038
1818
1C30
0E70
07E0
03C0
0FC0
1DFE
38FE
703E
6000
6000
E000
600C
783C
7FFE
3FF8
0FE0
ENDCHAR
STARTCHAR FECB
ENCODING 65227
SWIDTH 520 0
DWIDTH 13 0
BBX 13 12 -1 0
BITMAP
07C0
1FE0
1FF0
3860
3000
3000
3000
1818
1FF8
7FF8
FFE0
FE00
ENDCHAR
STARTCHAR FECC
ENCODING 65228
SWIDTH 480 0
DWIDTH 12 0
BBX 13 11 -1 0
BITMAP
0FC0
3FF0
3FF0
3030
3830
1C30
0E60
07C0
7FF8
FEF8
F878
ENDCHAR
STARTCHAR FECD
ENCODING 65229
SWIDTH 600 0
DWIDTH 15 0
BBX 15 29 1 -8
BITMAP
0300
0300
0300
0000
0000
0780
0FE0
1FF0
3860
3040
3000
3000
3000
3808
1FF8
0FF8
07F0
1E00
3800
6000
E000
C000
C000
C000
E00C
783E
7FFC
3FF8
0FE0
ENDCHAR
STARTCHAR FECE
ENCODING 65230
SWIDTH 600 0
DWIDTH 15 0
BBX 15 26 0 -8
BITMAP
0380
0380
0380
0000
0000
0FC0
3FF0
3FF0
3038
1818
1C30
0E70
07E0
03C0
0FC0
1DFE
38FE
703E
6000
6000
E000
600C
783C
7FFE
3FF8
0FE0
ENDCHAR
STARTCHAR FECF
ENCODING 65231
SWIDTH 520 0
DWIDTH 13 0
BBX 13 18 -1 0
BITMAP
0300
0380
0300
0000
0000
0000
07C0
1FE0
1FF0
3860
3000
3000
3000
1818
1FF8
7FF8
FFE0
FE00
ENDCHAR
STARTCHAR FED0
ENCODING 65232
SWIDTH 480 0
DWIDTH 12 0
BBX 13 16 -1 0
BITMAP
0300
0380
0300
0000
0000
0FC0
3FF0
3FF0
3030
3830
1C30
0E60
07C0
7FF8
FEF8
F878
ENDCHAR
STARTCHAR FED1
ENCODING 65233
SWIDTH 920 0
DWIDTH 23 0
BBX 21 20 1 0
BITMAP
000180
0001C0
000180
000000
000000
000000
0003C0
0007E0
000FF0
000C30
601818
601C18
C01FF8
C00FD8
C007D8
C00038
F00070
7FFFF0
3FFFE0
0FFF00
ENDCHAR
STARTCHAR FED2
ENCODING 65234
SWIDTH 1000 0
DWIDTH 25 0
BBX 24 18 1 0
BITMAP
000060
000070
000060
000000
000000
0000F0
0001FC
0003FC
60038E
600306
C00306
C00306
C0030C
C0019C
F001F8
7FFFFF
3FFFDF
0FFE0F
ENDCHAR
STARTCHAR FED3
ENCODING 65235
SWIDTH 480 0
DWIDTH 12 0
BBX 12 20 -1 0
BITMAP
0300
0700
0300
0000
0000
0000
0780
1FC0
1FE0
38E0
3060
3060
3FF0
1FF0
0F70
0060
00E0
7FE0
FFC0
FF80
ENDCHAR
STARTCHAR FED4
ENCODING 65236
SWIDTH 440 0
DWIDTH 11 0
BBX 12 18 -1 0
BITMAP
0300
0700
0300
0000
0000
0780
1FC0
1FE0
38E0
3060
3060
3060
3860
18C0
0FC0
7FF0
FDF0
F870
ENDCHAR
STARTCHAR FED5
ENCODING 65237
SWIDTH 720 0
DWIDTH 18 0
BBX 16 21 1 -6
BITMAP
00EC
00EE
00EC
0000
0000
0078
00FE
01FE
01C7
6183
6183
C183
C1FF
C1FF
C07B
C003
E007
700E
7FFE
3FFC
0FF0
ENDCHAR
STARTCHAR FED6
ENCODING 65238
SWIDTH 720 0
DWIDTH 18 0
BBX 17 21 1 -6
BITMAP
00EC00
00EE00
00EC00
000000
000000
007800
00FE00
01FE00
01C700
618300
618300
C18300
C1FF80
C1FF80
C07F80
C00300
E00700
700E00
7FFE00
3FFC00
0FF000
ENDCHAR
STARTCHAR FED7
ENCODING 65239
SWIDTH 480 0
DWIDTH 12 0
BBX 12 20 -1 0
BITMAP
0DC0
1DC0
0DC0
0000
0000
0000
0780
1FC0
1FE0
38E0
3060
3060
3FF0
1FF0
0F70
0060
00E0
7FE0
FFC0
FF80
ENDCHAR
STARTCHAR FED8
ENCODING 65240
SWIDTH 440 0
DWIDTH 11 0
BBX 12 18 -1 0
BITMAP
0DC0
1DC0
0DC0
0000
0000
0780
1FC0
1FE0
38E0
3060
3060
3060
3860
18C0
0FC0
7FF0
FDF0
F870
ENDCHAR
STARTCHAR FED9
ENCODING 65241
SWIDTH 760 0
DWIDTH 19 0
BBX 17 19 1 0
BITMAP
000380
000380
000380
000380
000380
00C380
038380
030380
03C380
03E380
00C380
03C380
070380
000380
000300
000700
FFFF00
FFFE00
FFFC00
ENDCHAR
STARTCHAR FEDA
ENCODING 65242
SWIDTH 920 0
DWIDTH 23 0
BBX 22 19 1 0
BITMAP
000070
000070
000070
000070
000070
003070
00E070
00C070
00F070
60F870
603070
C0F070
C1C070
C00070
C00070
F000F0
7FFFBC
3FFFBC
0FFE1C
ENDCHAR
STARTCHAR FEDB
ENCODING 65243
SWIDTH 360 0
DWIDTH 9 0
BBX 13 19 -1 0
BITMAP
0018
0078
03F8
0FE0
7F80
7C00
6000
6000
7000
7800
3E00
1E00
0700
0300
0300
0300
7F00
FF00
FC00
ENDCHAR
STARTCHAR FEDC
ENCODING 65244
SWIDTH 480 0
DWIDTH 12 0
BBX 13 19 -1 0
BITMAP
0018
0078
03F8
0FE0
7F80
7C00
6000
6000
7000
7800
3800
1C00
0E00
0F00
0780
05E0
7DF8
FCF8
F838
ENDCHAR
STARTCHAR FEDD
ENCODING 65245
SWIDTH 680 0
DWIDTH 17 0
BBX 14 25 1 -6
BITMAP
000C
000C
000C
000C
000C
000C
000C
000C
000C
000C
000C
000C
000C
600C
600C
C00C
C00C
C00C
C01C
C01C
E018
7038
7FF8
3FF0
0FC0
ENDCHAR
STARTCHAR FEDE
ENCODING 65246
SWIDTH 720 0
DWIDTH 18 0
BBX 17 25 1 -6
BITMAP
000C00
000C00
000C00
000C00
000C00
000C00
000C00
000C00
000C00
000C00
000C00
000C00
000C00
600C00
600C00
C00C00
C00F80
C00F80
C01F80
C01C00
E01C00
703800
7FF800
3FF000
0FC000
ENDCHAR
STARTCHAR FEDF
ENCODING 65247
SWIDTH 280 0
DWIDTH 7 0
BBX 6 19 -1 0
BITMAP
0C
0C
0C
0C
0C
0C
0C
0C
0C
0C
0C
0C
0C
0C
0C
1C
7C
F8
F0
ENDCHAR
STARTCHAR FEE0
ENCODING 65248
SWIDTH 320 0
DWIDTH 8 0
BBX 9 19 -1 0
BITMAP
0C00
0C00
0C00
0C00
0C00
0C00
0C00
0C00
0C00
0C00
0C00
0C00
0C00
0C00
0C00
1E00
7F80
E780
E380
ENDCHAR
STARTCHAR FEE1
ENCODING 65249
SWIDTH 600 0
DWIDTH 15 0
BBX 13 19 1 -8
BITMAP
07C0
0FE0
1FE0
1C70
2830
0030
0030
1FF8
7FF8
7FF8
E000
E000
E000
E000
E000
E000
E000
E000
E000
ENDCHAR
STARTCHAR FEE2
ENCODING 65250
SWIDTH 680 0
DWIDTH 17 0
BBX 16 18 1 -8
BITMAP
00E0
03F0
0FF0
3F38
7C38
7418
6C1C
EFFF
EFFF
E3F7
E000
E000
E000
E000
E000
E000
E000
E000
ENDCHAR
STARTCHAR FEE3
ENCODING 65251
SWIDTH 480 0
DWIDTH 12 0
BBX 12 10 -1 0
BITMAP
03C0
07E0
0FF0
0C70
1830
1830
3F30
7FF0
F7F0
E060
ENDCHAR
STARTCHAR FEE4
ENCODING 65252
SWIDTH 560 0
DWIDTH 14 0
BBX 15 10 -1 0
BITMAP
01E0
03E0
0FE0
0F70
1C70
1830
1838
7FFE
EFFE
C7EE
ENDCHAR
STARTCHAR FEE5
ENCODING 65253
SWIDTH 680 0
DWIDTH 17 0
BBX 15 16 1 -4
BITMAP
0380
0380
038C
000C
600C
600E
C006
C006
C006
C006
C006
E00E
701C
7FFC
3FF8
0FE0
ENDCHAR
STARTCHAR FEE6
ENCODING 65254
SWIDTH 720 0
DWIDTH 18 0
BBX 17 16 1 -6
BITMAP
038000
038000
038C00
000C00
600C00
600E00
C00600
C00780
C00780
C00780
C00600
E00E00
701C00
7FFC00
3FF800
0FE000
ENDCHAR
STARTCHAR FEE7
ENCODING 65255
SWIDTH 280 0
DWIDTH 7 0
BBX 7 15 -1 0
BITMAP
1C
1C
0C
00
00
0C
0C
0C
0E
06
06
0E
7C
FC
F0
ENDCHAR
STARTCHAR FEE8
ENCODING 65256
SWIDTH 320 0
DWIDTH 8 0
BBX 9 14 -1 0
BITMAP
0C00
0C00
0C00
0000
0000
0C00
0C00
0C00
0C00
0C00
1E00
7F80
F780
E380
ENDCHAR
STARTCHAR FEE9
ENCODING 65257
SWIDTH 440 0
DWIDTH 11 0
BBX 10 11 1 0
BITMAP
1E00
3F00
7F00
7780
E380
C180
C1C0
E180
FF80
7F00
3E00
ENDCHAR
STARTCHAR FEEA
ENCODING 65258
SWIDTH 480 0
DWIDTH 12 0
BBX 11 13 1 0
BITMAP
0380
0380
0F80
3F80
7F80
E380
C380
C380
FD80
FD80
79E0
01E0
00E0
ENDCHAR
STARTCHAR FEEB
ENCODING 65259
SWIDTH 640 0
DWIDTH 16 0
BBX 16 14 -1 0
BITMAP
0200
0180
07E0
1FF8
1FFC
38FE
306E
3067
3863
18E3
0FC3
7FFF
FDFE
F87E
ENDCHAR
STARTCHAR FEEC
ENCODING 65260
SWIDTH 480 0
DWIDTH 12 0
BBX 13 14 -1 -7
BITMAP
0400
0600
0E00
1C00
7C38
F878
E878
18C0
18C0
1DC0
1F80
0F80
0F80
0700
ENDCHAR
STARTCHAR FEED
ENCODING 65261
SWIDTH 480 0
DWIDTH 12 0
BBX 10 16 1 -6
BITMAP
1E00
3F00
7F80
E380
C180
C1C0
E1C0
FFC0
7EC0
3D80
0180
0380
0700
FF00
FE00
F800
ENDCHAR
STARTCHAR FEEE
ENCODING 65262
SWIDTH 480 0
DWIDTH 12 0
BBX 11 16 1 -6
BITMAP
1E00
3F00
7F80
E380
C180
C180
E1C0
FFE0
7FE0
3FE0
0180
0380
0700
FF00
FE00
F800
ENDCHAR
STARTCHAR FEEF
ENCODING 65263
SWIDTH 760 0
DWIDTH 19 0
BBX 17 19 1 -6
BITMAP
003E00
007F00
00FF80
00C300
018200
018000
018000
618000
61F000
C1FF00
C07F80
C00F80
C00180
C00180
E00380
700F00
7FFE00
3FFC00
0FF000
ENDCHAR
STARTCHAR FEF0
ENCODING 65264
SWIDTH 720 0
DWIDTH 18 0
BBX 17 12 1 -6
BITMAP
600000
600000
C07000
C07F80
C07F80
C00F80
C00180
E00380
700F00
7FFE00
3FFC00
0FF000
ENDCHAR
STARTCHAR FEF1
ENCODING 65265
SWIDTH 760 0
DWIDTH 19 0
BBX 17 24 1 -11
BITMAP
003E00
007F00
00FF80
00C300
018200
018000
018000
618000
61F000
C1FF00
C07F80
C00F80
C00180
C00180
E00380
700F00
7FFE00
3FFC00
0FF000
000000
000000
066000
07E000
066000
ENDCHAR
STARTCHAR FEF2
ENCODING 65266
SWIDTH 720 0
DWIDTH 18 0
BBX 17 17 1 -11
BITMAP
600000
600000
C07000
C07F80
C07F80
C00F80
C00180
E00380
700F00
7FFE00
3FFC00
0FF000
000000
000000
066000
07E000
066000
ENDCHAR
STARTCHAR FEF3
ENCODING 65267
SWIDTH 280 0
DWIDTH 7 0
BBX 8 15 -1 -5
BITMAP
0C
0C
0C
0E
06
06
0E
7C
FC
F0
00
00
37
77
37
ENDCHAR
STARTCHAR FEF4
ENCODING 65268
SWIDTH 320 0
DWIDTH 8 0
BBX 9 14 -1 -5
BITMAP
0C00
0C00
0C00
0C00
0C00
1E00
7F80
F780
E380
0000
0000
3300
3F00
3300
ENDCHAR
STARTCHAR FEF5
ENCODING 65269
SWIDTH 520 0
DWIDTH 13 0
BBX 12 19 0 0
BITMAP
E260
FF60
DE60
4060
C060
E060
7060
3860
1C60
0EE0
07C0
0380
07C0
0EE0
1C70
3870
7FF0
7FF0
7FE0
ENDCHAR
STARTCHAR FEF6
ENCODING 65270
SWIDTH 600 0
DWIDTH 15 0
BBX 15 20 0 -1
BITMAP
E230
FE30
9C30
0030
3830
1830
1830
1830
1830
1C30
1C30
0C30
0C30
0C70
0CF0
0FB8
3FBE
FF1E
780E
8000
ENDCHAR
STARTCHAR FEF7
ENCODING 65271
SWIDTH 520 0
DWIDTH 13 0
BBX 12 22 0 0
BITMAP
3C00
3C00
6800
2060
7C60
7C60
4060
C060
E060
7060
3860
1C60
0EE0
07C0
0380
07C0
0EE0
1C70
3870
7FF0
7FF0
7FE0
ENDCHAR
STARTCHAR FEF8
ENCODING 65272
SWIDTH 600 0
DWIDTH 15 0
BBX 15 23 0 -1
BITMAP
3800
7C00
6800
6030
7C30
7C30
0030
3830
1830
1830
1830
1830
1C30
1C30
0C30
0C30
0C70
0CF0
0FB8
3FBE
FF1E
780E
8000
ENDCHAR
STARTCHAR FEF9
ENCODING 65273
SWIDTH 520 0
DWIDTH 13 0
BBX 12 26 0 -7
BITMAP
0060
0060
0060
4060
C060
E060
7060
3860
1C60
0EE0
07C0
0380
07C0
0EE0
1C70
3870
7FF0
7FF0
7FE0
0000
1C00
3E00
3400
3000
3E00
3E00
ENDCHAR
STARTCHAR FEFA
ENCODING 65274
SWIDTH 600 0
DWIDTH 15 0
BBX 15 26 0 -7
BITMAP
0030
0030
0030
0030
3830
1830
1830
1830
1830
1C30
1C30
0C30
0C30
0C70
0CF0
0FB8
3FBE
FF1E
780E
8000
0700
0F80
0D00
0C00
0F80
0F80
ENDCHAR
STARTCHAR FEFB
ENCODING 65275
SWIDTH 520 0
DWIDTH 13 0
BBX 12 19 0 0
BITMAP
0060
0060
0060
4060
C060
E060
7060
3860
1C60
0EE0
07C0
0380
07C0
0EE0
1C70
3870
7FF0
7FF0
7FE0
ENDCHAR
STARTCHAR FEFC
ENCODING 65276
SWIDTH 600 0
DWIDTH 15 0
BBX 15 20 0 -1
BITMAP
0030
0030
0030
0030
3830
1830
1830
1830
1830
1C30
1C30
0C30
0C30
0C70
0CF0
0FB8
3FBE
FF1E
780E
8000
ENDCHAR
ENDFONT
